<?xml version="1.0" standalone="no"?>
<!DOCTYPE svg PUBLIC "-//W3C//DTD SVG 20010904//EN"
 "http://www.w3.org/TR/2001/REC-SVG-20010904/DTD/svg10.dtd">
<svg version="1.0" xmlns="http://www.w3.org/2000/svg"
 width="700.000000pt" height="700.000000pt" viewBox="0 0 700.000000 700.000000"
 preserveAspectRatio="xMidYMid meet">
<metadata>
Created by potrace 1.14, written by Peter Selinger 2001-2017
</metadata>
<g transform="translate(0.000000,700.000000) scale(0.100000,-0.100000)"
fill="#000000" stroke="none">
<path d="M3457 6784 c-1 -1 -47 -5 -102 -8 -146 -10 -190 -15 -290 -32 -121
-20 -126 -21 -155 -28 -14 -3 -36 -8 -50 -10 -46 -7 -292 -77 -379 -108 -947
-332 -1706 -1092 -2035 -2035 -90 -260 -150 -533 -173 -788 -10 -109 -10 -535
-1 -625 34 -330 131 -717 239 -957 10 -24 19 -45 19 -48 0 -3 23 -54 52 -113
168 -346 373 -636 638 -903 205 -205 384 -350 601 -484 129 -80 125 -78 279
-155 282 -142 677 -272 930 -304 19 -3 64 -9 100 -15 200 -32 704 -36 846 -7
11 2 45 7 75 10 60 7 82 10 189 33 41 8 83 17 92 18 109 22 410 118 513 164
11 5 58 26 105 47 266 119 560 305 780 493 69 59 292 279 351 346 379 434 641
962 754 1520 33 165 41 225 61 435 6 69 6 364 -1 465 -33 509 -199 1032 -472
1486 -98 164 -204 308 -350 476 l-81 94 53 77 c118 172 214 317 211 319 -3 3
-35 7 -181 19 -44 3 -93 7 -110 9 -16 1 -73 6 -125 10 -52 3 -106 8 -120 10
-14 2 -52 6 -85 9 -212 18 -194 14 -285 71 -205 128 -411 229 -631 308 -114
41 -249 84 -288 92 -9 2 -36 8 -61 15 -25 7 -54 14 -65 16 -11 2 -54 10 -95
19 -118 23 -276 44 -390 51 -94 6 -358 12 -363 8z m313 -168 c69 -3 136 -8
150 -10 14 -3 48 -7 75 -11 43 -4 76 -10 187 -29 161 -29 401 -100 592 -176
75 -29 274 -124 285 -136 3 -3 -12 -3 -34 0 -22 3 -71 8 -110 11 -65 5 -96 8
-230 20 -27 2 -86 7 -130 10 -44 4 -96 8 -115 10 l-36 4 -77 -155 -78 -156
-32 5 c-18 3 -72 14 -122 25 -49 11 -117 23 -150 27 -33 4 -69 9 -80 11 -118
23 -477 21 -645 -2 -797 -112 -1456 -526 -1893 -1189 -198 -301 -358 -719
-401 -1050 -24 -184 -28 -244 -28 -395 1 -222 15 -355 58 -560 107 -502 348
-945 718 -1316 313 -314 670 -532 1091 -664 98 -31 303 -78 400 -91 50 -7 91
-13 93 -14 2 -2 -29 -78 -67 -171 -38 -93 -77 -187 -86 -209 -14 -35 -1 -24
102 85 65 68 152 159 193 201 l75 77 165 6 c160 6 189 8 282 21 682 96 1329
473 1738 1014 14 18 30 38 35 44 86 101 254 404 330 597 74 188 143 451 161
613 3 29 8 63 11 77 3 14 7 143 8 288 l2 264 109 116 c195 209 207 222 203
223 -2 0 -11 2 -20 4 -9 1 -50 6 -91 9 -42 3 -104 8 -139 12 -35 3 -79 7 -98
8 -31 2 -36 7 -47 42 -41 138 -61 199 -89 274 -90 236 -241 502 -393 690 -25
30 -47 60 -49 67 -4 9 248 396 299 460 6 8 20 -1 47 -30 278 -308 503 -696
640 -1104 35 -104 89 -307 106 -401 3 -15 7 -36 9 -47 2 -11 7 -45 11 -75 4
-30 9 -64 11 -74 12 -64 19 -219 19 -411 0 -235 -6 -330 -30 -470 -3 -16 -8
-50 -11 -75 -9 -73 -82 -353 -124 -473 -70 -203 -162 -404 -270 -587 -38 -65
-187 -285 -217 -320 -12 -14 -49 -59 -83 -100 -213 -258 -492 -495 -804 -685
-331 -200 -797 -365 -1161 -410 -16 -2 -46 -6 -65 -9 -178 -27 -555 -28 -765
-2 -728 90 -1391 420 -1897 945 -173 179 -314 362 -436 566 -61 101 -202 375
-202 393 0 4 -9 27 -20 49 -68 142 -177 546 -196 728 -3 28 -7 55 -9 62 -26
77 -26 636 -1 793 3 14 7 43 10 65 3 22 7 50 10 62 6 29 18 106 17 115 0 4 6
26 14 48 8 22 14 43 14 45 -3 38 106 379 156 489 143 317 289 563 444 749 164
197 311 345 461 467 30 25 57 47 60 50 10 11 148 109 220 157 217 143 495 277
747 359 180 59 412 111 573 130 30 3 64 8 75 10 11 2 83 7 160 10 77 4 141 7
143 9 1 1 24 1 50 -1 26 -1 103 -5 172 -8z"/>
</g>
</svg>
