<svg width="98" height="50" viewBox="0 0 98 50" fill="none" xmlns="http://www.w3.org/2000/svg">
<path fill-rule="evenodd" clip-rule="evenodd" d="M45.3237 37.4146C47.6541 33.6649 49 29.2396 49 24.5C49 10.969 38.031 0 24.5 0C10.969 0 0 10.969 0 24.5C0 38.031 10.969 49 24.5 49C30.7748 49 36.4987 46.6411 40.8332 42.7617L38.759 37.5H41.1243L38.759 31.5H42.983L45.3237 37.4146Z" fill="#4D6DDF"/>
<ellipse cx="92" cy="37" rx="2" ry="3" fill="#4D6DDF"/>
<path d="M34.728 38.248C34.56 38.752 33.168 40.264 31.104 40.264C29.856 40.264 28.872 39.52 28.44 38.536L37.272 36.928C37.296 36.832 37.272 36.736 37.272 36.616C37.152 33.304 34.44 30.664 31.104 30.664C27.672 30.664 24.912 33.424 24.912 36.856C24.912 37.624 25.056 38.392 25.344 39.088C26.28 41.512 28.704 43.048 31.104 43.048C35.28 43.048 37.08 39.616 37.296 39.064L34.728 38.248ZM28.08 35.824C28.344 34.528 29.448 33.496 30.72 33.4C31.968 33.28 33.216 34.024 33.792 35.176L28.008 36.208L28.08 35.824ZM45.981 31L43.437 37.792L40.749 31H37.677L41.925 41.776L39.741 47.584H42.813L49.053 31H45.981ZM59.2436 38.248C59.0756 38.752 57.6836 40.264 55.6196 40.264C54.3716 40.264 53.3876 39.52 52.9556 38.536L61.7876 36.928C61.8116 36.832 61.7876 36.736 61.7876 36.616C61.6676 33.304 58.9556 30.664 55.6196 30.664C52.1876 30.664 49.4276 33.424 49.4276 36.856C49.4276 37.624 49.5716 38.392 49.8596 39.088C50.7956 41.512 53.2196 43.048 55.6196 43.048C59.7956 43.048 61.5956 39.616 61.8116 39.064L59.2436 38.248ZM52.5956 35.824C52.8596 34.528 53.9636 33.496 55.2356 33.4C56.4836 33.28 57.7316 34.024 58.3076 35.176L52.5236 36.208L52.5956 35.824ZM77.9706 30.808C76.0026 30.808 74.5386 31.576 73.6746 32.752C72.8106 31.552 71.4666 30.808 69.8106 30.808C68.6106 30.808 67.4346 31.336 66.5706 32.2V31H63.4986V43H66.5706V36.4C66.5706 34.792 67.6266 33.64 69.0906 33.64C70.5546 33.64 71.6106 34.768 71.6106 36.376V43H74.7306V36.4C74.7306 34.792 75.7866 33.64 77.2506 33.64C78.7146 33.64 79.7466 34.768 79.7466 36.376V43H82.8906V36.304C82.8906 33.184 80.8986 30.808 77.9706 30.808ZM90.8462 43.192C94.2782 43.192 97.0382 40.408 97.0382 37C97.0382 33.592 94.2782 30.808 90.8462 30.808C87.4382 30.808 84.6542 33.592 84.6542 37C84.6542 40.408 87.4382 43.192 90.8462 43.192ZM90.9662 40.312C89.1422 40.312 87.8462 38.92 87.8462 37C87.8462 35.08 89.1422 33.688 90.9662 33.688C92.7662 33.688 94.0862 35.08 94.0862 37C94.0862 38.92 92.7662 40.312 90.9662 40.312Z" fill="#252525"/>
</svg>
