<svg width="12" height="12" viewBox="0 0 12 12" fill="none" xmlns="http://www.w3.org/2000/svg">
<path fill-rule="evenodd" clip-rule="evenodd" d="M12 1.33333L10.6667 0L0 10.6667L1.33333 12L12 1.33333ZM5.33333 1.33333L4.66667 0L4 1.33333L2.66667 2L4 2.66667L4.66667 4L5.33333 2.66667L6.66667 2L5.33333 1.33333ZM10.6667 8L10 6.66667L9.33333 8L8 8.66667L9.33333 9.33333L10 10.6667L10.6667 9.33333L12 8.66667L10.6667 8ZM11.3333 4L10.6667 4.66667L11.3333 5.33333L12 4.66667L11.3333 4ZM2 4.66667L1.33333 5.33333L2 6L2.66667 5.33333L2 4.66667Z" fill="#00A3FF"/>
</svg>
