<svg width="22" height="26" viewBox="0 0 22 26" fill="none" xmlns="http://www.w3.org/2000/svg">
<path d="M21.5792 1.8243C21.5416 1.59869 21.4561 1.38376 21.3284 1.194C21.2007 1.00425 21.0338 0.844076 20.8389 0.724287C20.6441 0.604499 20.4258 0.527877 20.1988 0.499589C19.9719 0.471301 19.7415 0.492003 19.5232 0.5603L8.32319 4.0611C7.99753 4.16277 7.71288 4.36587 7.51082 4.64076C7.30875 4.91565 7.19984 5.24793 7.19999 5.5891V18.6003C6.47913 18.0597 5.59684 17.7782 4.69606 17.8017C3.79529 17.8251 2.92881 18.1519 2.237 18.7293C1.5452 19.3067 1.0686 20.1007 0.884433 20.9827C0.700263 21.8648 0.819309 22.7832 1.22228 23.5892C1.62526 24.3951 2.28855 25.0414 3.1047 25.4233C3.92085 25.8052 4.84203 25.9003 5.719 25.6933C6.59598 25.4863 7.37736 24.9892 7.93655 24.2826C8.49575 23.5761 8.79999 22.7014 8.79999 21.8003V10.3891L20 6.8883V15.4003C19.2791 14.8597 18.3968 14.5782 17.4961 14.6017C16.5953 14.6251 15.7288 14.9519 15.037 15.5293C14.3452 16.1067 13.8686 16.9007 13.6844 17.7827C13.5003 18.6648 13.6193 19.5832 14.0223 20.3892C14.4253 21.1951 15.0886 21.8414 15.9047 22.2233C16.7208 22.6052 17.642 22.7003 18.519 22.4933C19.396 22.2863 20.1774 21.7892 20.7366 21.0826C21.2957 20.3761 21.6 19.5014 21.6 18.6003V2.0883C21.6 1.9987 21.592 1.9107 21.5792 1.8243Z" fill="#00A3FF"/>
</svg>
