<svg width="32" height="32" viewBox="0 0 32 32" fill="none" xmlns="http://www.w3.org/2000/svg">
<path d="M13.1421 28.0588C11.0447 27.4968 9.79583 25.3338 10.3578 23.2364C10.4703 22.8165 10.9024 22.567 11.3223 22.6795C11.7422 22.792 11.9917 23.2241 11.8792 23.644C11.5419 24.9027 12.2911 26.2002 13.5497 26.5375C14.8084 26.8747 16.1059 26.1257 16.4431 24.8669C16.5556 24.447 16.9877 24.1976 17.4076 24.3101C17.8275 24.4226 18.077 24.8547 17.9645 25.2746C17.4025 27.372 15.2394 28.6208 13.1421 28.0588Z" fill="#999999"/>
<path d="M22.3247 27.2581L5.59007 22.7741C4.61138 22.5119 4.02857 21.5024 4.29081 20.5237C4.42999 20.0043 4.78795 19.5731 5.27291 19.341C7.16481 18.4511 8.55175 16.7923 9.08956 14.7851L9.84727 11.9574C10.8962 8.0426 14.9343 5.71122 18.849 6.76018C22.764 7.80918 25.0954 11.8472 24.0464 15.762L23.2887 18.5898C22.7509 20.5969 23.1226 22.727 24.3077 24.4338C24.62 24.8871 24.7144 25.4395 24.5752 25.9589C24.313 26.9376 23.3036 27.5204 22.3247 27.2581ZM18.4414 8.28151C15.3653 7.45727 12.1928 9.28891 11.3686 12.365L10.6109 15.1928C9.95301 17.648 8.25575 19.6783 5.9557 20.761C5.91189 20.7819 5.8393 20.83 5.81213 20.9314C5.77521 21.0692 5.85991 21.2159 5.9977 21.2528L22.7323 25.7368C22.8703 25.7738 23.017 25.6891 23.0539 25.5513C23.0811 25.4499 23.0421 25.372 23.0162 25.3346C21.5642 23.2443 21.1095 20.6374 21.7674 18.1821L22.5251 15.3544C23.3493 12.2783 21.5177 9.10579 18.4414 8.28151Z" fill="#999999"/>
<path d="M18.4414 8.2816C18.0215 8.16909 17.7721 7.737 17.8846 7.31712L18.6999 4.27446C18.8124 3.85457 19.2445 3.6051 19.6644 3.71761C20.0842 3.83012 20.3337 4.26221 20.2212 4.6821L19.4059 7.72475C19.2934 8.14464 18.8613 8.39411 18.4414 8.2816Z" fill="#999999"/>
</svg>
