<svg width="14" height="11" viewBox="0 0 14 11" fill="none" xmlns="http://www.w3.org/2000/svg">
<path d="M7.5478 0.95402C7.48664 0.865192 7.4048 0.792564 7.30934 0.742389C7.21387 0.692215 7.10764 0.665999 6.9998 0.665999C6.89195 0.665999 6.78572 0.692215 6.69026 0.742389C6.59479 0.792564 6.51296 0.865192 6.4518 0.95402L0.451797 9.62069C0.382347 9.72065 0.34162 9.83773 0.334042 9.95922C0.326462 10.0807 0.35232 10.2019 0.408807 10.3098C0.465294 10.4176 0.550248 10.5079 0.65444 10.5708C0.758633 10.6337 0.878078 10.6669 0.999798 10.6667L12.9998 10.6667C13.1212 10.6662 13.2402 10.6326 13.344 10.5695C13.4478 10.5064 13.5324 10.4163 13.5888 10.3087C13.6451 10.2011 13.6711 10.0802 13.6639 9.959C13.6566 9.83777 13.6165 9.72081 13.5478 9.62069L7.5478 0.95402Z" fill="#BDCCE3"/>
</svg>
