<svg width="16" height="16" viewBox="0 0 16 16" fill="none" xmlns="http://www.w3.org/2000/svg">
<path d="M7.99301 1.33331C4.31301 1.33331 1.33301 4.31998 1.33301 7.99998C1.33301 11.68 4.31301 14.6666 7.99301 14.6666C11.6797 14.6666 14.6663 11.68 14.6663 7.99998C14.6663 4.31998 11.6797 1.33331 7.99301 1.33331ZM7.99967 13.3333C5.05301 13.3333 2.66634 10.9466 2.66634 7.99998C2.66634 5.05331 5.05301 2.66665 7.99967 2.66665C10.9463 2.66665 13.333 5.05331 13.333 7.99998C13.333 10.9466 10.9463 13.3333 7.99967 13.3333ZM7.85301 4.66665H7.81301C7.54634 4.66665 7.33301 4.87998 7.33301 5.14665V8.29331C7.33301 8.52665 7.45301 8.74665 7.65967 8.86665L10.4263 10.5266C10.653 10.66 10.9463 10.5933 11.0797 10.3666C11.1132 10.3127 11.1354 10.2525 11.1452 10.1897C11.1549 10.127 11.1519 10.0629 11.1363 10.0013C11.1208 9.93971 11.093 9.88188 11.0546 9.83126C11.0163 9.78064 10.9681 9.73826 10.913 9.70665L8.33301 8.17331V5.14665C8.33301 4.87998 8.11967 4.66665 7.85301 4.66665Z" fill="#BDCCE3"/>
</svg>
