<svg width="32" height="32" viewBox="0 0 32 32" fill="none" xmlns="http://www.w3.org/2000/svg">
<path d="M15.9993 29.3333L19.3327 26.6667M15.9993 29.3333V17.3333V29.3333ZM15.9993 29.3333L12.666 26.6667L15.9993 29.3333Z" stroke="#00A3FF" stroke-width="2.66667" stroke-linecap="round" stroke-linejoin="round"/>
<path d="M6.71162 12.156C5.45057 12.4733 4.34879 13.2402 3.61329 14.3126C2.87779 15.385 2.5592 16.689 2.71737 17.9797C2.87553 19.2704 3.49957 20.459 4.47224 21.322C5.44491 22.1851 6.69926 22.6632 7.99962 22.6667H9.33296" stroke="#00A3FF" stroke-width="2.66667" stroke-linecap="round" stroke-linejoin="round"/>
<path d="M21.1066 9.51734C20.6508 7.71277 19.526 6.149 17.9601 5.14302C16.3941 4.13704 14.5043 3.76413 12.6736 4.09988C10.8429 4.43563 9.20834 5.45492 8.1013 6.95113C6.99427 8.44733 6.49757 10.3085 6.71189 12.1573C6.71189 12.1573 6.91589 13.3333 7.33322 14" stroke="#00A3FF" stroke-width="2.66667" stroke-linecap="round" stroke-linejoin="round"/>
<path d="M22.6663 22.6667C23.6077 22.666 24.5383 22.466 25.3968 22.0798C26.2553 21.6936 27.0223 21.13 27.6473 20.426C28.2723 19.722 28.7411 18.8936 29.0229 17.9954C29.3046 17.0972 29.3929 16.1494 29.282 15.2146C29.1711 14.2798 28.8635 13.379 28.3794 12.5717C27.8953 11.7643 27.2457 11.0686 26.4733 10.5304C25.701 9.99217 24.8234 9.62363 23.8983 9.44902C22.9733 9.27442 22.0217 9.2977 21.1063 9.51734L19.333 10" stroke="#00A3FF" stroke-width="2.66667" stroke-linecap="round" stroke-linejoin="round"/>
</svg>
