<svg width="16" height="16" viewBox="0 0 16 16" fill="none" xmlns="http://www.w3.org/2000/svg">
<path d="M5.33398 2.66665V10.6666C5.33398 11.0203 5.47446 11.3594 5.72451 11.6095C5.97456 11.8595 6.3137 12 6.66732 12H12.0007C12.3543 12 12.6934 11.8595 12.9435 11.6095C13.1935 11.3594 13.334 11.0203 13.334 10.6666V4.82798C13.334 4.65035 13.2984 4.47452 13.2295 4.31081C13.1606 4.1471 13.0597 3.99881 12.9327 3.87465L10.7227 1.71331C10.4736 1.46975 10.139 1.33336 9.79065 1.33331H6.66732C6.3137 1.33331 5.97456 1.47379 5.72451 1.72384C5.47446 1.97389 5.33398 2.31302 5.33398 2.66665V2.66665Z" stroke="#00A3FF" stroke-width="1.2" stroke-linecap="round" stroke-linejoin="round"/>
<path d="M10.667 12V13.3333C10.667 13.6869 10.5265 14.0261 10.2765 14.2761C10.0264 14.5262 9.68728 14.6666 9.33366 14.6666H4.00033C3.6467 14.6666 3.30756 14.5262 3.05752 14.2761C2.80747 14.0261 2.66699 13.6869 2.66699 13.3333V5.99996C2.66699 5.64634 2.80747 5.3072 3.05752 5.05715C3.30756 4.8071 3.6467 4.66663 4.00033 4.66663H5.33366" stroke="#00A3FF" stroke-width="1.2" stroke-linecap="round" stroke-linejoin="round"/>
</svg>
