<svg width="16" height="16" viewBox="0 0 16 16" fill="none" xmlns="http://www.w3.org/2000/svg">
<path d="M4.50008 11.5002H2.75004C2.2859 11.5002 1.84077 11.3159 1.51257 10.9877C1.18438 10.6595 1 10.2143 1 9.7502V2.75004C1 2.2859 1.18438 1.84077 1.51257 1.51257C1.84077 1.18438 2.2859 1 2.75004 1H9.7502C10.2143 1 10.6595 1.18438 10.9877 1.51257C11.3159 1.84077 11.5002 2.2859 11.5002 2.75004V4.50008L4.50008 11.5002ZM6.25012 15.0003H13.2503C13.7144 15.0003 14.1596 14.8159 14.4877 14.4877C14.8159 14.1596 15.0003 13.7144 15.0003 13.2503V6.25012C15.0003 5.78598 14.8159 5.34085 14.4877 5.01266C14.1596 4.68446 13.7144 4.50008 13.2503 4.50008H6.25012C5.78598 4.50008 5.34085 4.68446 5.01266 5.01266C4.68446 5.34085 4.50008 5.78598 4.50008 6.25012V13.2503C4.50008 13.7144 4.68446 14.1596 5.01266 14.4877C5.34085 14.8159 5.78598 15.0003 6.25012 15.0003Z" stroke="#00A3FF" stroke-width="1.33333" stroke-linecap="round" stroke-linejoin="round"/>
</svg>
