<svg width="16" height="16" viewBox="0 0 16 16" fill="none" xmlns="http://www.w3.org/2000/svg">
<path d="M5.64294 7.52871C6.39827 6.77338 7.71561 6.77338 8.47094 7.52871L8.94227 8.00004L9.88494 7.05738L9.41361 6.58604C8.78494 5.95671 7.94761 5.60938 7.05694 5.60938C6.16628 5.60938 5.32894 5.95671 4.70028 6.58604L3.28561 8.00004C2.6618 8.62585 2.31152 9.47343 2.31152 10.357C2.31152 11.2407 2.6618 12.0882 3.28561 12.714C3.59486 13.0237 3.96225 13.2693 4.36669 13.4365C4.77112 13.6038 5.20462 13.6895 5.64227 13.6887C6.08005 13.6896 6.51368 13.604 6.91824 13.4367C7.3228 13.2694 7.6903 13.0238 7.99961 12.714L8.47094 12.2427L7.52828 11.3L7.05694 11.7714C6.68126 12.1454 6.17272 12.3554 5.64261 12.3554C5.11249 12.3554 4.60396 12.1454 4.22828 11.7714C3.85394 11.3959 3.64375 10.8873 3.64375 10.357C3.64375 9.82682 3.85394 9.31822 4.22828 8.94271L5.64294 7.52871Z" fill="#FE6470"/>
<path d="M8.00008 3.28591L7.52875 3.75725L8.47141 4.69991L8.94275 4.22858C9.31843 3.85457 9.82697 3.6446 10.3571 3.6446C10.8872 3.6446 11.3957 3.85457 11.7714 4.22858C12.1457 4.6041 12.3559 5.11269 12.3559 5.64291C12.3559 6.17314 12.1457 6.68173 11.7714 7.05725L10.3567 8.47125C9.60141 9.22658 8.28408 9.22658 7.52875 8.47125L7.05741 7.99991L6.11475 8.94258L6.58608 9.41391C7.21475 10.0432 8.05208 10.3906 8.94275 10.3906C9.83341 10.3906 10.6707 10.0432 11.2994 9.41391L12.7141 7.99991C13.3379 7.3741 13.6882 6.52653 13.6882 5.64291C13.6882 4.7593 13.3379 3.91172 12.7141 3.28591C12.0884 2.66178 11.2408 2.31128 10.3571 2.31128C9.47336 2.31128 8.62572 2.66178 8.00008 3.28591Z" fill="#FE6470"/>
</svg>
