<svg width="16" height="12" viewBox="0 0 16 12" fill="none" xmlns="http://www.w3.org/2000/svg">
<path d="M0.286133 11.3568C0.286133 11.5273 0.35386 11.6908 0.474416 11.8114C0.594972 11.9319 0.758481 11.9997 0.928972 11.9997C1.09946 11.9997 1.26297 11.9319 1.38353 11.8114C1.50408 11.6908 1.57181 11.5273 1.57181 11.3568V0.64284C1.57181 0.472348 1.50408 0.308839 1.38353 0.188283C1.26297 0.0677275 1.09946 0 0.928972 0C0.758481 0 0.594972 0.0677275 0.474416 0.188283C0.35386 0.308839 0.286133 0.472348 0.286133 0.64284V11.3568Z" fill="#00A3FF"/>
<path d="M14.4287 11.3568C14.4287 11.5273 14.4964 11.6908 14.617 11.8114C14.7375 11.9319 14.9011 11.9997 15.0716 11.9997C15.242 11.9997 15.4056 11.9319 15.5261 11.8114C15.6467 11.6908 15.7144 11.5273 15.7144 11.3568V0.64284C15.7144 0.472348 15.6467 0.308839 15.5261 0.188283C15.4056 0.0677275 15.242 0 15.0716 0C14.9011 0 14.7375 0.0677275 14.617 0.188283C14.4964 0.308839 14.4287 0.472348 14.4287 0.64284V11.3568Z" fill="#00A3FF"/>
<path d="M9.83973 7.75968C9.74283 7.89005 9.69888 8.05228 9.71671 8.21373C9.73455 8.37519 9.81284 8.52391 9.93586 8.62999C10.0589 8.73607 10.2175 8.79164 10.3798 8.78554C10.5421 8.77944 10.6961 8.71211 10.8108 8.59709L12.8422 6.56828C12.9368 6.50699 13.0141 6.42251 13.0667 6.32289C13.1194 6.22326 13.1457 6.11181 13.1431 5.99916C13.1458 5.88658 13.1196 5.77518 13.0671 5.67556C13.0146 5.57595 12.9375 5.49142 12.8431 5.43003L10.8117 3.40123L10.7388 3.33866C10.615 3.24719 10.4625 3.2032 10.309 3.21468C10.1554 3.22616 10.0111 3.29236 9.9023 3.40123L9.83973 3.47323C9.74826 3.59705 9.70427 3.7496 9.71575 3.90311C9.72724 4.05663 9.79343 4.20093 9.9023 4.30977L10.9488 5.35717H7.7055L7.68407 5.35889H5.05186L6.0984 4.31149L6.16697 4.23092C6.24596 4.12043 6.28793 3.98777 6.28685 3.85195C6.28577 3.71614 6.2417 3.58416 6.16097 3.47494L6.09754 3.40294L6.01698 3.33437C5.90649 3.25538 5.77382 3.21342 5.63801 3.2145C5.5022 3.21557 5.37021 3.25964 5.261 3.34037L5.18814 3.40294L3.15677 5.43174L3.09334 5.47717C3.018 5.54161 2.95782 5.62188 2.91707 5.71226C2.87633 5.80263 2.85603 5.90089 2.85763 6.00001C2.85478 6.11274 2.88086 6.22431 2.93337 6.32409C2.98589 6.42387 3.06309 6.50853 3.15762 6.57L5.189 8.5988L5.26185 8.66137C5.3857 8.75353 5.53858 8.79804 5.69255 8.78677C5.84651 8.7755 5.99128 8.7092 6.10039 8.59999C6.2095 8.49077 6.27566 8.34594 6.28678 8.19197C6.29791 8.03799 6.25325 7.88516 6.16097 7.76139L6.0984 7.6894L5.05186 6.64371H8.2952L8.31663 6.64285H10.9488L9.9023 7.68854L9.83973 7.75968Z" fill="#00A3FF"/>
</svg>
