<svg width="15" height="15" viewBox="0 0 15 15" fill="none" xmlns="http://www.w3.org/2000/svg">
<path d="M4.67969 1.41406H4.53125C4.61289 1.41406 4.67969 1.34727 4.67969 1.26562V1.41406H10.3203V1.26562C10.3203 1.34727 10.3871 1.41406 10.4688 1.41406H10.3203V2.75H11.6562V1.26562C11.6562 0.610645 11.1237 0.078125 10.4688 0.078125H4.53125C3.87627 0.078125 3.34375 0.610645 3.34375 1.26562V2.75H4.67969V1.41406ZM14.0312 2.75H0.96875C0.640332 2.75 0.375 3.01533 0.375 3.34375V3.9375C0.375 4.01914 0.441797 4.08594 0.523438 4.08594H1.64414L2.10244 13.79C2.13213 14.4228 2.65537 14.9219 3.28809 14.9219H11.7119C12.3465 14.9219 12.8679 14.4246 12.8976 13.79L13.3559 4.08594H14.4766C14.5582 4.08594 14.625 4.01914 14.625 3.9375V3.34375C14.625 3.01533 14.3597 2.75 14.0312 2.75ZM11.569 13.5859H3.43096L2.98193 4.08594H12.0181L11.569 13.5859Z" fill="#00A3FF"/>
</svg>
