<svg width="14" height="14" viewBox="0 0 14 14" fill="none" xmlns="http://www.w3.org/2000/svg">
<path d="M3.49998 1.39999C3.49998 1.02869 3.64748 0.672597 3.91003 0.410048C4.17258 0.147499 4.52867 0 4.89997 0H9.09995C9.47125 0 9.82734 0.147499 10.0899 0.410048C10.3524 0.672597 10.4999 1.02869 10.4999 1.39999V2.79998H13.2999C13.4856 2.79998 13.6636 2.87373 13.7949 3.00501C13.9262 3.13628 13.9999 3.31433 13.9999 3.49998C13.9999 3.68563 13.9262 3.86368 13.7949 3.99495C13.6636 4.12623 13.4856 4.19998 13.2999 4.19998H12.5516L11.9447 12.6993C11.9196 13.0525 11.7615 13.3831 11.5024 13.6244C11.2433 13.8658 10.9023 13.9999 10.5482 13.9999H3.45098C3.09688 13.9999 2.75593 13.8658 2.4968 13.6244C2.23768 13.3831 2.07963 13.0525 2.05449 12.6993L1.44899 4.19998H0.699996C0.514345 4.19998 0.336299 4.12623 0.205024 3.99495C0.0737493 3.86368 0 3.68563 0 3.49998C0 3.31433 0.0737493 3.13628 0.205024 3.00501C0.336299 2.87373 0.514345 2.79998 0.699996 2.79998H3.49998V1.39999ZM4.89997 2.79998H9.09995V1.39999H4.89997V2.79998ZM2.85178 4.19998L3.45168 12.5999H10.5489L11.1488 4.19998H2.85178ZM5.59997 5.59997C5.78562 5.59997 5.96366 5.67372 6.09494 5.80499C6.22621 5.93627 6.29996 6.11431 6.29996 6.29996V10.4999C6.29996 10.6856 6.22621 10.8636 6.09494 10.9949C5.96366 11.1262 5.78562 11.1999 5.59997 11.1999C5.41432 11.1999 5.23627 11.1262 5.105 10.9949C4.97372 10.8636 4.89997 10.6856 4.89997 10.4999V6.29996C4.89997 6.11431 4.97372 5.93627 5.105 5.80499C5.23627 5.67372 5.41432 5.59997 5.59997 5.59997ZM8.39995 5.59997C8.5856 5.59997 8.76365 5.67372 8.89492 5.80499C9.0262 5.93627 9.09995 6.11431 9.09995 6.29996V10.4999C9.09995 10.6856 9.0262 10.8636 8.89492 10.9949C8.76365 11.1262 8.5856 11.1999 8.39995 11.1999C8.2143 11.1999 8.03625 11.1262 7.90498 10.9949C7.7737 10.8636 7.69995 10.6856 7.69995 10.4999V6.29996C7.69995 6.11431 7.7737 5.93627 7.90498 5.80499C8.03625 5.67372 8.2143 5.59997 8.39995 5.59997Z" fill="#00A3FF"/>
</svg>
