<svg width="16" height="16" viewBox="0 0 16 16" fill="none" xmlns="http://www.w3.org/2000/svg">
<path d="M4.66659 2.66634C4.66659 2.31272 4.80706 1.97358 5.05711 1.72353C5.30716 1.47348 5.6463 1.33301 5.99992 1.33301H9.99992C10.3535 1.33301 10.6927 1.47348 10.9427 1.72353C11.1928 1.97358 11.3333 2.31272 11.3333 2.66634V3.99967H13.9999C14.1767 3.99967 14.3463 4.06991 14.4713 4.19494C14.5963 4.31996 14.6666 4.48953 14.6666 4.66634C14.6666 4.84315 14.5963 5.01272 14.4713 5.13775C14.3463 5.26277 14.1767 5.33301 13.9999 5.33301H13.2873L12.7093 13.4277C12.6853 13.7641 12.5348 14.0789 12.288 14.3087C12.0412 14.5386 11.7165 14.6663 11.3793 14.6663H4.61992C4.28268 14.6663 3.95796 14.5386 3.71118 14.3087C3.46439 14.0789 3.31386 13.7641 3.28992 13.4277L2.71325 5.33301H1.99992C1.82311 5.33301 1.65354 5.26277 1.52851 5.13775C1.40349 5.01272 1.33325 4.84315 1.33325 4.66634C1.33325 4.48953 1.40349 4.31996 1.52851 4.19494C1.65354 4.06991 1.82311 3.99967 1.99992 3.99967H4.66659V2.66634ZM5.99992 3.99967H9.99992V2.66634H5.99992V3.99967ZM4.04925 5.33301L4.62059 13.333H11.3799L11.9513 5.33301H4.04925ZM6.66659 6.66634C6.8434 6.66634 7.01297 6.73658 7.13799 6.8616C7.26301 6.98663 7.33325 7.1562 7.33325 7.33301V11.333C7.33325 11.5098 7.26301 11.6794 7.13799 11.8044C7.01297 11.9294 6.8434 11.9997 6.66659 11.9997C6.48977 11.9997 6.32021 11.9294 6.19518 11.8044C6.07016 11.6794 5.99992 11.5098 5.99992 11.333V7.33301C5.99992 7.1562 6.07016 6.98663 6.19518 6.8616C6.32021 6.73658 6.48977 6.66634 6.66659 6.66634ZM9.33325 6.66634C9.51006 6.66634 9.67963 6.73658 9.80466 6.8616C9.92968 6.98663 9.99992 7.1562 9.99992 7.33301V11.333C9.99992 11.5098 9.92968 11.6794 9.80466 11.8044C9.67963 11.9294 9.51006 11.9997 9.33325 11.9997C9.15644 11.9997 8.98687 11.9294 8.86185 11.8044C8.73682 11.6794 8.66659 11.5098 8.66659 11.333V7.33301C8.66659 7.1562 8.73682 6.98663 8.86185 6.8616C8.98687 6.73658 9.15644 6.66634 9.33325 6.66634Z" fill="white"/>
</svg>
