<svg width="32" height="32" viewBox="0 0 32 32" fill="none" xmlns="http://www.w3.org/2000/svg">
    <rect width="32" height="32" rx="8" fill="#00A3FF"/>
    <path d="M11.8333 9.33366C11.8333 8.89163 12.0089 8.46771 12.3214 8.15515C12.634 7.84259 13.0579 7.66699 13.5 7.66699H18.5C18.942 7.66699 19.3659 7.84259 19.6785 8.15515C19.991 8.46771 20.1666 8.89163 20.1666 9.33366V11.0003H23.5C23.721 11.0003 23.9329 11.0881 24.0892 11.2444C24.2455 11.4007 24.3333 11.6126 24.3333 11.8337C24.3333 12.0547 24.2455 12.2666 24.0892 12.4229C23.9329 12.5792 23.721 12.667 23.5 12.667H22.6091L21.8866 22.7853C21.8567 23.2058 21.6685 23.5993 21.3601 23.8866C21.0516 24.1739 20.6457 24.3337 20.2241 24.3337H11.775C11.3534 24.3337 10.9475 24.1739 10.639 23.8866C10.3305 23.5993 10.1424 23.2058 10.1125 22.7853L9.39163 12.667H8.49996C8.27895 12.667 8.06698 12.5792 7.9107 12.4229C7.75442 12.2666 7.66663 12.0547 7.66663 11.8337C7.66663 11.6126 7.75442 11.4007 7.9107 11.2444C8.06698 11.0881 8.27895 11.0003 8.49996 11.0003H11.8333V9.33366ZM13.5 11.0003H18.5V9.33366H13.5V11.0003ZM11.0616 12.667L11.7758 22.667H20.225L20.9391 12.667H11.0616ZM14.3333 14.3337C14.5543 14.3337 14.7663 14.4215 14.9225 14.5777C15.0788 14.734 15.1666 14.946 15.1666 15.167V20.167C15.1666 20.388 15.0788 20.6 14.9225 20.7562C14.7663 20.9125 14.5543 21.0003 14.3333 21.0003C14.1123 21.0003 13.9003 20.9125 13.744 20.7562C13.5878 20.6 13.5 20.388 13.5 20.167V15.167C13.5 14.946 13.5878 14.734 13.744 14.5777C13.9003 14.4215 14.1123 14.3337 14.3333 14.3337ZM17.6666 14.3337C17.8876 14.3337 18.0996 14.4215 18.2559 14.5777C18.4122 14.734 18.5 14.946 18.5 15.167V20.167C18.5 20.388 18.4122 20.6 18.2559 20.7562C18.0996 20.9125 17.8876 21.0003 17.6666 21.0003C17.4456 21.0003 17.2337 20.9125 17.0774 20.7562C16.9211 20.6 16.8333 20.388 16.8333 20.167V15.167C16.8333 14.946 16.9211 14.734 17.0774 14.5777C17.2337 14.4215 17.4456 14.3337 17.6666 14.3337Z" fill="white"/>
</svg>