<svg width="20" height="20" viewBox="0 0 20 20" fill="none" xmlns="http://www.w3.org/2000/svg">
    <rect width="20" height="20" rx="4" fill="#A5B4CB"/>
    <path d="M6.66683 4.66683C6.66683 4.31321 6.80731 3.97407 7.05735 3.72402C7.3074 3.47397 7.64654 3.3335 8.00016 3.3335H12.0002C12.3538 3.3335 12.6929 3.47397 12.943 3.72402C13.193 3.97407 13.3335 4.31321 13.3335 4.66683V6.00016H16.0002C16.177 6.00016 16.3465 6.0704 16.4716 6.19543C16.5966 6.32045 16.6668 6.49002 16.6668 6.66683C16.6668 6.84364 16.5966 7.01321 16.4716 7.13823C16.3465 7.26326 16.177 7.3335 16.0002 7.3335H15.2875L14.7095 15.4282C14.6856 15.7646 14.535 16.0794 14.2882 16.3092C14.0415 16.5391 13.7167 16.6668 13.3795 16.6668H6.62016C6.28292 16.6668 5.95821 16.5391 5.71142 16.3092C5.46463 16.0794 5.31411 15.7646 5.29016 15.4282L4.7135 7.3335H4.00016C3.82335 7.3335 3.65378 7.26326 3.52876 7.13823C3.40373 7.01321 3.3335 6.84364 3.3335 6.66683C3.3335 6.49002 3.40373 6.32045 3.52876 6.19543C3.65378 6.0704 3.82335 6.00016 4.00016 6.00016H6.66683V4.66683ZM8.00016 6.00016H12.0002V4.66683H8.00016V6.00016ZM6.0495 7.3335L6.62083 15.3335H13.3802L13.9515 7.3335H6.0495ZM8.66683 8.66683C8.84364 8.66683 9.01321 8.73707 9.13823 8.86209C9.26326 8.98712 9.3335 9.15669 9.3335 9.3335V13.3335C9.3335 13.5103 9.26326 13.6799 9.13823 13.8049C9.01321 13.9299 8.84364 14.0002 8.66683 14.0002C8.49002 14.0002 8.32045 13.9299 8.19543 13.8049C8.0704 13.6799 8.00016 13.5103 8.00016 13.3335V9.3335C8.00016 9.15669 8.0704 8.98712 8.19543 8.86209C8.32045 8.73707 8.49002 8.66683 8.66683 8.66683ZM11.3335 8.66683C11.5103 8.66683 11.6799 8.73707 11.8049 8.86209C11.9299 8.98712 12.0002 9.15669 12.0002 9.3335V13.3335C12.0002 13.5103 11.9299 13.6799 11.8049 13.8049C11.6799 13.9299 11.5103 14.0002 11.3335 14.0002C11.1567 14.0002 10.9871 13.9299 10.8621 13.8049C10.7371 13.6799 10.6668 13.5103 10.6668 13.3335V9.3335C10.6668 9.15669 10.7371 8.98712 10.8621 8.86209C10.9871 8.73707 11.1567 8.66683 11.3335 8.66683Z" fill="white"/>
</svg>