<svg width="48" height="48" viewBox="0 0 48 48" fill="none" xmlns="http://www.w3.org/2000/svg">
    <rect width="48" height="48" rx="8" stroke="#E5EAF4"/>
    <path d="M20.656 12.9058L19.875 12.9998C19.875 12.9998 16.371 13.3828 13.812 15.4378H13.782L13.75 15.4678C13.176 15.9958 12.926 16.6448 12.531 17.5938C12.0654 18.7355 11.669 19.9043 11.344 21.0938C10.602 23.7768 10 27.0268 10 29.9998V30.2498L10.125 30.4998C11.051 32.1248 12.695 33.1598 14.219 33.8748C15.742 34.5898 17.059 34.9688 17.969 34.9998L18.563 35.0308L18.875 34.4998L19.969 32.5618C21.129 32.8238 22.465 32.9998 24 32.9998C25.535 32.9998 26.871 32.8238 28.031 32.5618L29.125 34.4998L29.438 35.0308L30.031 34.9998C30.941 34.9688 32.258 34.5898 33.781 33.8748C35.305 33.1598 36.949 32.1248 37.875 30.4998L38 30.2498V29.9998C38 27.0268 37.398 23.7768 36.656 21.0938C36.331 19.9043 35.9346 18.7355 35.469 17.5938C35.074 16.6438 34.824 15.9958 34.25 15.4688L34.219 15.4368H34.187C31.63 13.3828 28.125 12.9998 28.125 12.9998L27.344 12.9058L27.062 13.6248C27.062 13.6248 26.773 14.3548 26.594 15.1878C25.7343 15.0691 24.8678 15.0063 24 14.9998C23.465 14.9998 22.54 15.0348 21.406 15.1878C21.226 14.3548 20.937 13.6248 20.937 13.6248L20.656 12.9058ZM19.281 15.1878C19.324 15.3278 19.367 15.4488 19.406 15.5628C18.113 15.8828 16.734 16.3708 15.469 17.1558L16.531 18.8438C19.125 17.2338 22.851 16.9998 24 16.9998C25.148 16.9998 28.875 17.2338 31.469 18.8438L32.531 17.1558C31.266 16.3708 29.887 15.8828 28.594 15.5618C28.633 15.4488 28.676 15.3278 28.719 15.1868C29.652 15.3748 31.434 15.8048 32.906 16.9688C32.898 16.9728 33.281 17.5508 33.625 18.3748C33.977 19.2228 34.367 20.3518 34.719 21.6248C35.395 24.0658 35.926 27.0388 35.969 29.6558C35.339 30.6168 34.172 31.4838 32.937 32.0628C32.1625 32.4288 31.3431 32.691 30.5 32.8428L30 31.9998C30.297 31.8898 30.59 31.7698 30.844 31.6558C32.383 30.9798 33.219 30.2498 33.219 30.2498L31.906 28.7498C31.906 28.7498 31.344 29.2658 30.031 29.8438C28.72 30.4218 26.715 30.9998 24 30.9998C21.285 30.9998 19.281 30.4218 17.969 29.8438C16.656 29.2658 16.094 28.7498 16.094 28.7498L14.781 30.2498C14.781 30.2498 15.617 30.9798 17.156 31.6558C17.41 31.7698 17.703 31.8908 18 31.9998L17.5 32.8438C16.6565 32.6915 15.8367 32.4285 15.062 32.0618C13.828 31.4838 12.66 30.6168 12.032 29.6558C12.074 27.0388 12.605 24.0658 13.282 21.6248C13.5812 20.5206 13.9461 19.4353 14.375 18.3748C14.719 17.5508 15.102 16.9728 15.094 16.9688C16.566 15.8048 18.348 15.3748 19.281 15.1878ZM20.5 21.9998C19.727 21.9998 19.043 22.4408 18.625 22.9998C18.207 23.5588 18 24.2458 18 24.9998C18 25.7538 18.207 26.4408 18.625 26.9998C19.043 27.5588 19.727 27.9998 20.5 27.9998C21.273 27.9998 21.957 27.5588 22.375 26.9998C22.793 26.4408 23 25.7538 23 24.9998C23 24.2458 22.793 23.5588 22.375 22.9998C21.957 22.4408 21.273 21.9998 20.5 21.9998ZM27.5 21.9998C26.727 21.9998 26.043 22.4408 25.625 22.9998C25.207 23.5588 25 24.2458 25 24.9998C25 25.7538 25.207 26.4408 25.625 26.9998C26.043 27.5588 26.727 27.9998 27.5 27.9998C28.273 27.9998 28.957 27.5588 29.375 26.9998C29.793 26.4408 30 25.7538 30 24.9998C30 24.2458 29.793 23.5588 29.375 22.9998C28.957 22.4408 28.273 21.9998 27.5 21.9998ZM20.5 23.9998C20.555 23.9998 20.625 24.0198 20.75 24.1878C20.875 24.3548 21 24.6478 21 24.9998C21 25.3518 20.875 25.6448 20.75 25.8128C20.625 25.9798 20.555 25.9998 20.5 25.9998C20.445 25.9998 20.375 25.9798 20.25 25.8118C20.0846 25.5735 19.9973 25.2898 20 24.9998C20 24.6478 20.125 24.3548 20.25 24.1868C20.375 24.0198 20.445 23.9998 20.5 23.9998ZM27.5 23.9998C27.555 23.9998 27.625 24.0198 27.75 24.1878C27.875 24.3548 28 24.6478 28 24.9998C28 25.3518 27.875 25.6448 27.75 25.8128C27.625 25.9798 27.555 25.9998 27.5 25.9998C27.445 25.9998 27.375 25.9798 27.25 25.8118C27.0846 25.5735 26.9973 25.2898 27 24.9998C27 24.6478 27.125 24.3548 27.25 24.1868C27.375 24.0198 27.445 23.9998 27.5 23.9998Z" fill="#131635"/>
</svg>