<svg width="24" height="19" viewBox="0 0 24 19" fill="none" xmlns="http://www.w3.org/2000/svg">
<path d="M9.13371 0L8.46429 0.080723C8.46429 0.080723 5.46086 0.409627 3.26743 2.17437H3.24171L3.21429 2.20014C2.72229 2.65356 2.508 3.21089 2.16943 4.02585C1.77033 5.00635 1.43057 6.01005 1.152 7.0315C0.516 9.33555 0 12.1265 0 14.6796V14.8943L0.107143 15.109C0.900857 16.5045 2.31 17.3933 3.61629 18.0073C4.92171 18.6213 6.05057 18.9468 6.83057 18.9734L7.33971 19L7.60714 18.544L8.54486 16.8797C9.53914 17.1047 10.6843 17.2559 12 17.2559C13.3157 17.2559 14.4609 17.1047 15.4551 16.8797L16.3929 18.544L16.6611 19L17.1694 18.9734C17.9494 18.9468 19.0783 18.6213 20.3837 18.0073C21.69 17.3933 23.0991 16.5045 23.8929 15.109L24 14.8943V14.6796C24 12.1265 23.484 9.33555 22.848 7.0315C22.5694 6.01005 22.2297 5.00635 21.8306 4.02585C21.492 3.21003 21.2777 2.65356 20.7857 2.20099L20.7591 2.17351H20.7317C18.54 0.409627 15.5357 0.080723 15.5357 0.080723L14.8663 0L14.6246 0.617446C14.6246 0.617446 14.3769 1.24434 14.2234 1.95968C13.4865 1.85782 12.7438 1.80389 12 1.79824C11.5414 1.79824 10.7486 1.82829 9.77657 1.95968C9.62229 1.24434 9.37457 0.617446 9.37457 0.617446L9.13371 0ZM7.95514 1.95968C7.992 2.07991 8.02886 2.18382 8.06229 2.28172C6.954 2.55652 5.772 2.97559 4.68771 3.64972L5.598 5.0993C7.82143 3.7167 11.0151 3.51575 12 3.51575C12.984 3.51575 16.1786 3.7167 18.402 5.0993L19.3123 3.64972C18.228 2.97559 17.046 2.55652 15.9377 2.28086C15.9711 2.18382 16.008 2.07991 16.0449 1.95882C16.8446 2.12027 18.372 2.48954 19.6337 3.48913C19.6269 3.49256 19.9551 3.98893 20.25 4.69654C20.5517 5.42477 20.886 6.39431 21.1877 7.4875C21.7671 9.58373 22.2223 12.1368 22.2591 14.3842C21.7191 15.2094 20.7189 15.954 19.6603 16.4512C18.9964 16.7655 18.2941 16.9907 17.5714 17.121L17.1429 16.3971C17.3974 16.3026 17.6486 16.1996 17.8663 16.1017C19.1854 15.5212 19.902 14.8943 19.902 14.8943L18.7766 13.6061C18.7766 13.6061 18.2949 14.0493 17.1694 14.5456C16.0457 15.042 14.3271 15.5384 12 15.5384C9.67286 15.5384 7.95514 15.042 6.83057 14.5456C5.70514 14.0493 5.22343 13.6061 5.22343 13.6061L4.098 14.8943C4.098 14.8943 4.81457 15.5212 6.13371 16.1017C6.35143 16.1996 6.60257 16.3035 6.85714 16.3971L6.42857 17.1219C5.70555 16.9911 5.00291 16.7653 4.33886 16.4503C3.28114 15.954 2.28 15.2094 1.74171 14.3842C1.77771 12.1368 2.23286 9.58373 2.81314 7.4875C3.06956 6.53929 3.3824 5.6073 3.75 4.69654C4.04486 3.98893 4.37314 3.49256 4.36629 3.48913C5.628 2.48954 7.15543 2.12027 7.95514 1.95968ZM9 7.80954C8.33743 7.80954 7.75114 8.18825 7.39286 8.66829C7.03457 9.14834 6.85714 9.73831 6.85714 10.3858C6.85714 11.0333 7.03457 11.6233 7.39286 12.1033C7.75114 12.5834 8.33743 12.9621 9 12.9621C9.66257 12.9621 10.2489 12.5834 10.6071 12.1033C10.9654 11.6233 11.1429 11.0333 11.1429 10.3858C11.1429 9.73831 10.9654 9.14834 10.6071 8.66829C10.2489 8.18825 9.66257 7.80954 9 7.80954ZM15 7.80954C14.3374 7.80954 13.7511 8.18825 13.3929 8.66829C13.0346 9.14834 12.8571 9.73831 12.8571 10.3858C12.8571 11.0333 13.0346 11.6233 13.3929 12.1033C13.7511 12.5834 14.3374 12.9621 15 12.9621C15.6626 12.9621 16.2489 12.5834 16.6071 12.1033C16.9654 11.6233 17.1429 11.0333 17.1429 10.3858C17.1429 9.73831 16.9654 9.14834 16.6071 8.66829C16.2489 8.18825 15.6626 7.80954 15 7.80954ZM9 9.52705C9.04714 9.52705 9.10714 9.54423 9.21429 9.6885C9.32143 9.83191 9.42857 10.0835 9.42857 10.3858C9.42857 10.6881 9.32143 10.9397 9.21429 11.084C9.10714 11.2274 9.04714 11.2446 9 11.2446C8.95286 11.2446 8.89286 11.2274 8.78571 11.0831C8.64397 10.8785 8.56909 10.6349 8.57143 10.3858C8.57143 10.0835 8.67857 9.83191 8.78571 9.68764C8.89286 9.54423 8.95286 9.52705 9 9.52705ZM15 9.52705C15.0471 9.52705 15.1071 9.54423 15.2143 9.6885C15.3214 9.83191 15.4286 10.0835 15.4286 10.3858C15.4286 10.6881 15.3214 10.9397 15.2143 11.084C15.1071 11.2274 15.0471 11.2446 15 11.2446C14.9529 11.2446 14.8929 11.2274 14.7857 11.0831C14.644 10.8785 14.5691 10.6349 14.5714 10.3858C14.5714 10.0835 14.6786 9.83191 14.7857 9.68764C14.8929 9.54423 14.9529 9.52705 15 9.52705Z" fill="#131635"/>
</svg>
