<svg width="14" height="14" viewBox="0 0 14 14" fill="none" xmlns="http://www.w3.org/2000/svg">
<path d="M4.66659 9.33301H3.49992C3.1905 9.33301 2.89375 9.21009 2.67496 8.9913C2.45617 8.77251 2.33325 8.47576 2.33325 8.16634V3.49967C2.33325 3.19026 2.45617 2.89351 2.67496 2.67472C2.89375 2.45592 3.1905 2.33301 3.49992 2.33301H8.16659C8.476 2.33301 8.77275 2.45592 8.99154 2.67472C9.21034 2.89351 9.33325 3.19026 9.33325 3.49967V4.66634L4.66659 9.33301ZM5.83325 11.6663H10.4999C10.8093 11.6663 11.1061 11.5434 11.3249 11.3246C11.5437 11.1058 11.6666 10.8091 11.6666 10.4997V5.83301C11.6666 5.52359 11.5437 5.22684 11.3249 5.00805C11.1061 4.78926 10.8093 4.66634 10.4999 4.66634H5.83325C5.52383 4.66634 5.22709 4.78926 5.00829 5.00805C4.7895 5.22684 4.66659 5.52359 4.66659 5.83301V10.4997C4.66659 10.8091 4.7895 11.1058 5.00829 11.3246C5.22709 11.5434 5.52383 11.6663 5.83325 11.6663Z" stroke="white" stroke-width="1.33333" stroke-linecap="round" stroke-linejoin="round"/>
</svg>
