<svg width="14" height="14" viewBox="0 0 14 14" fill="none" xmlns="http://www.w3.org/2000/svg">
<path d="M13.1484 3.16163L12.3007 2.51996C12.1695 2.41779 12.008 2.3623 11.8418 2.3623C11.6755 2.3623 11.514 2.41779 11.3829 2.51996L3.889 8.57885C3.43153 8.33721 2.90158 8.2709 2.39867 8.39239C1.89577 8.51387 1.45453 8.81479 1.15782 9.23862C0.861105 9.66245 0.729347 10.18 0.787288 10.6941C0.84523 11.2083 1.08888 11.6835 1.47249 12.0307C1.85609 12.3779 2.35324 12.573 2.87057 12.5795C3.3879 12.586 3.8898 12.4034 4.28201 12.066C4.67422 11.7286 4.92974 11.2596 5.00059 10.7471C5.07144 10.2346 4.95274 9.7139 4.66678 9.28274L6.18345 8.06941L11.3829 12.2577C11.514 12.3599 11.6755 12.4154 11.8418 12.4154C12.008 12.4154 12.1695 12.3599 12.3007 12.2577L13.1484 11.62L8.14345 7.38885L13.1484 3.16163ZM2.89733 11.5694C2.67736 11.5694 2.46232 11.5042 2.27942 11.382C2.09651 11.2598 1.95396 11.086 1.86978 10.8828C1.78559 10.6796 1.76357 10.456 1.80648 10.2402C1.8494 10.0245 1.95533 9.82627 2.11088 9.67073C2.26642 9.51518 2.4646 9.40925 2.68035 9.36633C2.8961 9.32342 3.11973 9.34544 3.32296 9.42963C3.5262 9.51381 3.6999 9.65636 3.82211 9.83927C3.94433 10.0222 4.00956 10.2372 4.00956 10.4572C4.00853 10.7518 3.89102 11.0342 3.68266 11.2425C3.4743 11.4509 3.192 11.5684 2.89733 11.5694Z" fill="white"/>
<path d="M5.56122 5.92653L4.66678 5.20319C4.95274 4.77204 5.07144 4.25131 5.00059 3.73881C4.92974 3.22632 4.67422 2.75732 4.28201 2.41992C3.8898 2.08251 3.3879 1.89991 2.87057 1.90642C2.35324 1.91292 1.85609 2.10808 1.47249 2.45524C1.08888 2.8024 0.84523 3.27767 0.787288 3.79179C0.729347 4.3059 0.861105 4.82348 1.15782 5.24731C1.45453 5.67114 1.89577 5.97206 2.39867 6.09355C2.90158 6.21503 3.43153 6.14873 3.889 5.90708L4.729 6.61097L5.56122 5.92653ZM2.89733 5.14875C2.67736 5.14875 2.46232 5.08352 2.27942 4.96131C2.09651 4.83909 1.95396 4.66539 1.86978 4.46216C1.78559 4.25892 1.76357 4.03529 1.80648 3.81954C1.8494 3.60379 1.95533 3.40561 2.11088 3.25007C2.26642 3.09452 2.4646 2.98859 2.68035 2.94568C2.8961 2.90276 3.11973 2.92479 3.32296 3.00897C3.5262 3.09315 3.6999 3.23571 3.82211 3.41861C3.94433 3.60151 4.00956 3.81655 4.00956 4.03653C4.00853 4.33083 3.89089 4.61273 3.68242 4.82047C3.47395 5.02822 3.19164 5.14486 2.89733 5.14486V5.14875Z" fill="white"/>
</svg>
