<svg width="28" height="28" viewBox="0 0 28 28" fill="none" xmlns="http://www.w3.org/2000/svg">
<path d="M1.99866 6.79928C1.99866 5.52618 2.5044 4.30521 3.40462 3.40499C4.30484 2.50476 5.52581 1.99902 6.79892 1.99902H21.1997C22.4728 1.99902 23.6938 2.50476 24.594 3.40499C25.4942 4.30521 26 5.52618 26 6.79928V21.2001C26 22.4732 25.4942 23.6941 24.594 24.5944C23.6938 25.4946 22.4728 26.0003 21.1997 26.0003H6.79892C5.52581 26.0003 4.30484 25.4946 3.40462 24.5944C2.5044 23.6941 1.99866 22.4732 1.99866 21.2001V6.79928Z" stroke="#A5B4CB" stroke-width="2.66667" stroke-linecap="round" stroke-linejoin="round"/>
<path d="M10.6893 10.2478C10.0453 9.93844 9.48132 9.8291 8.68665 9.8291C6.51731 9.8291 5.01465 11.7091 5.01465 13.9931C5.01465 16.2771 6.51865 18.1611 8.68665 18.1611C9.94931 18.1611 11.1013 17.5131 11.604 16.3264L11.6306 16.2531L11.6586 16.1331L11.6666 16.0584L11.6693 13.9958L11.66 13.8718C11.6 13.4691 11.2546 13.1624 10.836 13.1624L9.49998 13.1624L9.37731 13.1704C8.97465 13.2304 8.66665 13.5771 8.66665 13.9958L8.67465 14.1184C8.70434 14.3157 8.80383 14.4958 8.95503 14.626C9.10624 14.7562 9.29913 14.8278 9.49865 14.8278L9.99998 14.8278L9.99998 15.8064L9.99331 15.8264C9.74131 16.2544 9.25731 16.4944 8.68665 16.4944C7.53198 16.4944 6.68131 15.4291 6.68131 13.9931C6.68131 12.5584 7.53065 11.4971 8.68665 11.4971C9.24798 11.4971 9.56798 11.5584 9.96798 11.7504C10.0666 11.7978 10.1737 11.8253 10.283 11.8313C10.3922 11.8373 10.5016 11.8217 10.6049 11.7854C10.7081 11.7491 10.8033 11.6929 10.8848 11.6198C10.9663 11.5468 11.0326 11.4584 11.08 11.3598C11.1273 11.2611 11.1548 11.1541 11.1608 11.0448C11.1668 10.9355 11.1512 10.8261 11.115 10.7229C11.0787 10.6196 11.0224 10.5245 10.9494 10.443C10.8764 10.3615 10.788 10.2951 10.6893 10.2478Z" fill="#A5B4CB"/>
<path d="M15.6626 10.7024C15.604 10.3011 15.2573 9.99177 14.8386 9.99177C14.3786 9.99177 14.0053 10.3651 14.0053 10.8251L14.0053 17.1758L14.0146 17.2984C14.046 17.5062 14.1546 17.6944 14.3188 17.8254C14.483 17.9565 14.6907 18.0206 14.9002 18.0051C15.1097 17.9896 15.3056 17.8956 15.4487 17.7418C15.5918 17.588 15.6716 17.3858 15.672 17.1758L15.672 10.8251L15.6626 10.7024Z" fill="#A5B4CB"/>
<path d="M21.496 10.0011L18.8333 9.99177L18.7093 10.0011C18.512 10.0301 18.3316 10.129 18.201 10.2797C18.0703 10.4304 17.9981 10.623 17.9973 10.8224L17.9973 17.1531L18.0053 17.2771C18.035 17.4746 18.1347 17.6549 18.2862 17.7851C18.4377 17.9153 18.6309 17.9867 18.8306 17.9864L18.9533 17.9784C19.1508 17.9487 19.3311 17.849 19.4613 17.6975C19.5915 17.5461 19.663 17.3528 19.6626 17.1531L19.6626 15.6664L21.16 15.6678L21.2826 15.6584C21.4802 15.629 21.6606 15.5297 21.791 15.3784C21.9215 15.2272 21.9933 15.0342 21.9933 14.8344L21.984 14.7118C21.9253 14.3091 21.5786 13.9998 21.16 13.9998L19.6626 13.9998L19.6626 11.6611L21.4906 11.6678L21.6133 11.6598C21.8225 11.6306 22.0128 11.523 22.1457 11.3589C22.2787 11.1948 22.3443 10.9863 22.3294 10.7756C22.3145 10.5649 22.2201 10.3678 22.0654 10.224C21.9107 10.0802 21.7072 10.0006 21.496 10.0011Z" fill="#A5B4CB"/>
</svg>
