<svg width="48" height="48" viewBox="0 0 48 48" fill="none" xmlns="http://www.w3.org/2000/svg">
    <rect x="0.5" y="0.5" width="47" height="47" rx="7.5" stroke="#E5EAF4"/>
    <path d="M23.9998 10.6665C16.6398 10.6665 10.6665 16.6398 10.6665 23.9998C10.6665 31.3598 16.6398 37.3332 23.9998 37.3332H30.6665V34.6665H23.9998C18.2132 34.6665 13.3332 29.7865 13.3332 23.9998C13.3332 18.2132 18.2132 13.3332 23.9998 13.3332C29.7865 13.3332 34.6665 18.2132 34.6665 23.9998V25.9065C34.6665 26.9598 33.7198 27.9998 32.6665 27.9998C31.6132 27.9998 30.6665 26.9598 30.6665 25.9065V23.9998C30.6665 20.3198 27.6798 17.3332 23.9998 17.3332C20.3198 17.3332 17.3332 20.3198 17.3332 23.9998C17.3332 27.6798 20.3198 30.6665 23.9998 30.6665C25.8398 30.6665 27.5198 29.9198 28.7198 28.7065C29.5865 29.8932 31.0798 30.6665 32.6665 30.6665C35.2932 30.6665 37.3332 28.5332 37.3332 25.9065V23.9998C37.3332 16.6398 31.3598 10.6665 23.9998 10.6665ZM23.9998 27.9998C21.7865 27.9998 19.9998 26.2132 19.9998 23.9998C19.9998 21.7865 21.7865 19.9998 23.9998 19.9998C26.2132 19.9998 27.9998 21.7865 27.9998 23.9998C27.9998 26.2132 26.2132 27.9998 23.9998 27.9998Z" fill="#131635"/>
</svg>