<svg width="48" height="48" viewBox="0 0 48 48" fill="none" xmlns="http://www.w3.org/2000/svg">
    <rect x="0.5" y="0.5" width="47" height="47" rx="7.5" stroke="#E5EAF4"/>
    <path fill-rule="evenodd" clip-rule="evenodd" d="M12 24.067C12 30.033 16.333 34.994 22 36V27.333H19V24H22V21.333C22 18.333 23.933 16.667 26.667 16.667C27.533 16.667 28.467 16.8 29.333 16.933V20H27.8C26.333 20 26 20.733 26 21.667V24H29.2L28.667 27.333H26V36C31.667 34.994 36 30.034 36 24.067C36 17.43 30.6 12 24 12C17.4 12 12 17.43 12 24.067Z" fill="#131635"/>
</svg>