<svg width="22" height="24" viewBox="0 0 22 24" fill="none" xmlns="http://www.w3.org/2000/svg">
<path d="M19.0001 0V2.66667H16.3334V0H5.66677V2.66667H3.0001V0H0.333435V24H3.0001V21.3333H5.66677V24H16.3334V21.3333H19.0001V24H21.6668V0H19.0001ZM5.66677 18.6667H3.0001V16H5.66677V18.6667ZM5.66677 13.3333H3.0001V10.6667H5.66677V13.3333ZM5.66677 8H3.0001V5.33333H5.66677V8ZM13.6668 21.3333H8.33344V2.66667H13.6668V21.3333ZM19.0001 18.6667H16.3334V16H19.0001V18.6667ZM19.0001 13.3333H16.3334V10.6667H19.0001V13.3333ZM19.0001 8H16.3334V5.33333H19.0001V8Z" fill="#00A3FF"/>
</svg>
