<svg width="34" height="30" viewBox="0 0 34 30" fill="none" xmlns="http://www.w3.org/2000/svg">
<path d="M8.25 1V29V1ZM25.75 1V29V1ZM1.25 8H8.25H1.25ZM25.75 8H32.75H25.75ZM1.25 15H32.75H1.25ZM1.25 22H8.25H1.25ZM25.75 22H32.75H25.75ZM3 29H31C31.4641 29 31.9092 28.8156 32.2374 28.4874C32.5656 28.1592 32.75 27.7141 32.75 27.25V2.75C32.75 2.28587 32.5656 1.84075 32.2374 1.51256C31.9092 1.18437 31.4641 1 31 1H3C2.53587 1 2.09075 1.18437 1.76256 1.51256C1.43437 1.84075 1.25 2.28587 1.25 2.75V27.25C1.25 27.7141 1.43437 28.1592 1.76256 28.4874C2.09075 28.8156 2.53587 29 3 29Z" stroke="#0177FB" stroke-width="2" stroke-linecap="round" stroke-linejoin="round"/>
</svg>
