<svg width="32" height="28" viewBox="0 0 32 28" fill="none" xmlns="http://www.w3.org/2000/svg">
<rect x="1.25" y="1.25" width="29.5" height="25.5" rx="4.75" stroke="#0177FB" stroke-width="2.5"/>
<path d="M9.62417 9.00159C10.5778 9.00159 11.2546 9.13021 12.0274 9.49862C12.1458 9.55503 12.2518 9.63403 12.3395 9.73111C12.4271 9.82819 12.4946 9.94146 12.5381 10.0644C12.5817 10.1874 12.6004 10.3177 12.5932 10.4478C12.586 10.578 12.553 10.7055 12.4962 10.823C12.4393 10.9405 12.3597 11.0457 12.2619 11.1327C12.1641 11.2197 12.05 11.2867 11.9261 11.3299C11.8022 11.3731 11.6709 11.3917 11.5397 11.3845C11.4086 11.3774 11.2802 11.3447 11.1618 11.2882C10.6818 11.0596 10.2978 10.9865 9.62417 10.9865C8.23697 10.9865 7.21777 12.2505 7.21777 13.9592C7.21777 15.6694 8.23857 16.9382 9.62417 16.9382C10.309 16.9382 10.8898 16.6524 11.1922 16.1442L11.2002 16.1188V14.9532H10.5986C10.3592 14.9532 10.1277 14.868 9.94623 14.7129C9.76479 14.5579 9.6454 14.3434 9.60977 14.1085L9.60017 13.9608C9.60017 13.4622 9.96977 13.0509 10.453 12.9794L10.6002 12.9683H12.2034C12.7058 12.9683 13.1202 13.3351 13.1922 13.8147L13.2034 13.9608L13.2002 16.4189L13.1906 16.5063L13.157 16.6492L13.125 16.7365C12.5218 18.1498 11.1394 18.9215 9.62417 18.9215C7.02257 18.9215 5.21777 16.6794 5.21777 13.9576C5.21777 11.239 7.02097 9 9.62417 9V9.00159ZM17.0066 9.19532C17.509 9.19532 17.925 9.56214 17.9954 10.0417L18.0066 10.1878V17.7496C18.0061 17.9998 17.9104 18.2406 17.7386 18.4237C17.5669 18.6069 17.3318 18.7189 17.0804 18.7374C16.829 18.7558 16.5798 18.6794 16.3828 18.5233C16.1858 18.3673 16.0554 18.1431 16.0178 17.8957L16.0066 17.7496V10.1878C16.0066 9.63995 16.4546 9.19532 17.0066 9.19532ZM21.8002 9.19532L24.9954 9.20326C25.2469 9.20531 25.4885 9.30139 25.6718 9.47234C25.8552 9.64329 25.9669 9.87655 25.9847 10.1256C26.0024 10.3747 25.9249 10.6212 25.7677 10.8161C25.6104 11.011 25.3849 11.1399 25.1362 11.1771L24.989 11.1882L22.7954 11.1803V13.9671H24.5922C25.0946 13.9671 25.5106 14.3355 25.581 14.8135L25.5922 14.9596C25.5925 15.1977 25.5065 15.428 25.35 15.6085C25.1934 15.7889 24.9767 15.9075 24.7394 15.9425L24.5922 15.9521H22.7954V17.7226C22.7954 17.9603 22.7094 18.19 22.5532 18.3701C22.397 18.5501 22.1809 18.6686 21.9442 18.704L21.797 18.7151C21.557 18.7154 21.325 18.6301 21.1432 18.4747C20.9614 18.3193 20.8419 18.1043 20.8066 17.8687L20.797 17.7226V10.183C20.7975 9.94521 20.884 9.71549 21.0408 9.53566C21.1976 9.35584 21.4143 9.23788 21.6514 9.20326L21.8002 9.19373V9.19532Z" fill="#0177FB"/>
</svg>
