<svg width="14" height="18" viewBox="0 0 14 18" fill="none" xmlns="http://www.w3.org/2000/svg">
<path d="M8.66671 0.666992H2.00004C1.55801 0.666992 1.13409 0.842587 0.821529 1.15515C0.508969 1.46771 0.333374 1.89163 0.333374 2.33366V15.667C0.333374 16.109 0.508969 16.5329 0.821529 16.8455C1.13409 17.1581 1.55801 17.3337 2.00004 17.3337H12C12.4421 17.3337 12.866 17.1581 13.1786 16.8455C13.4911 16.5329 13.6667 16.109 13.6667 15.667V5.66699L8.66671 0.666992ZM6.44421 13.8103C6.08132 13.9304 5.70224 13.9945 5.32004 14.0003C4.70587 14.0003 4.26087 13.8453 3.95004 13.5453C3.64087 13.2553 3.47087 12.8162 3.47587 12.3212C3.48087 11.2012 4.29504 10.562 5.40004 10.562C5.83421 10.562 6.17004 10.6478 6.33421 10.727L6.17504 11.3362C5.99004 11.2562 5.76004 11.1912 5.39087 11.1912C4.75587 11.1912 4.27587 11.5512 4.27587 12.2812C4.27587 12.9753 4.71087 13.3853 5.33504 13.3853C5.51004 13.3853 5.65004 13.3653 5.71004 13.3345V12.6295H5.19004V12.0353H6.44421V13.8103ZM7.80587 13.9653H7.04087V10.597H7.80587V13.9653ZM10.5242 11.222H9.23004V11.9912H10.4392V12.6112H9.23004V13.9653H8.46504V10.597H10.5242V11.222ZM8.66671 6.50033H7.83337V2.33366L12 6.50033H8.66671Z" fill="white"/>
</svg>
