<svg width="32" height="32" viewBox="0 0 32 32" fill="none" xmlns="http://www.w3.org/2000/svg">
<path d="M16.0001 2.6665C23.3641 2.6665 29.3334 8.63584 29.3334 15.9998C29.3334 23.3638 23.3641 29.3332 16.0001 29.3332C13.8721 29.3361 11.7745 28.8276 9.88409 27.8505L4.78276 29.2732C4.49815 29.3526 4.19754 29.3549 3.91172 29.2799C3.62591 29.2049 3.36518 29.0553 3.15624 28.8464C2.9473 28.6374 2.79766 28.3767 2.72266 28.0909C2.64766 27.8051 2.65 27.5045 2.72943 27.2198L4.15343 22.1225C3.1739 20.2304 2.66399 18.1304 2.66676 15.9998C2.66676 8.63584 8.63609 2.6665 16.0001 2.6665ZM16.0001 4.6665C12.9943 4.6665 10.1116 5.86055 7.98622 7.98596C5.8608 10.1114 4.66676 12.9941 4.66676 15.9998C4.66676 17.9598 5.16409 19.8438 6.09743 21.5158L6.29743 21.8758L4.81476 27.1878L10.1308 25.7052L10.4908 25.9052C12.0033 26.7461 13.6883 27.2295 15.4166 27.3183C17.1448 27.407 18.8705 27.0988 20.4612 26.4173C22.0519 25.7358 23.4654 24.699 24.5934 23.3865C25.7213 22.074 26.5336 20.5207 26.9682 18.8455C27.4027 17.1704 27.4478 15.418 27.1001 13.7228C26.7524 12.0275 26.0211 10.4344 24.9623 9.06552C23.9034 7.6967 22.5452 6.58853 20.9917 5.826C19.4382 5.06347 17.7307 4.66684 16.0001 4.6665ZM16.0001 20.6665C16.3537 20.6665 16.6929 20.807 16.9429 21.057C17.193 21.3071 17.3334 21.6462 17.3334 21.9998C17.3334 22.3535 17.193 22.6926 16.9429 22.9426C16.6929 23.1927 16.3537 23.3332 16.0001 23.3332C15.6465 23.3332 15.3073 23.1927 15.0573 22.9426C14.8072 22.6926 14.6668 22.3535 14.6668 21.9998C14.6668 21.6462 14.8072 21.3071 15.0573 21.057C15.3073 20.807 15.6465 20.6665 16.0001 20.6665ZM16.0001 8.99984C16.9726 8.99984 17.9052 9.38615 18.5928 10.0738C19.2805 10.7614 19.6668 11.694 19.6668 12.6665C19.6668 14.0132 19.2708 14.7652 18.2654 15.8118L18.0401 16.0398C17.2108 16.8692 17.0001 17.2212 17.0001 17.9998C17.0001 18.2651 16.8947 18.5194 16.7072 18.7069C16.5197 18.8945 16.2653 18.9998 16.0001 18.9998C15.7349 18.9998 15.4805 18.8945 15.293 18.7069C15.1055 18.5194 15.0001 18.2651 15.0001 17.9998C15.0001 16.6532 15.3961 15.9012 16.4014 14.8545L16.6268 14.6265C17.4561 13.7972 17.6668 13.4452 17.6668 12.6665C17.6654 12.2402 17.5007 11.8306 17.2066 11.522C16.9125 11.2134 16.5113 11.0293 16.0856 11.0074C15.6598 10.9856 15.2419 11.1277 14.9177 11.4045C14.5936 11.6814 14.3878 12.0719 14.3428 12.4958L14.3334 12.6665C14.3334 12.9317 14.2281 13.1861 14.0405 13.3736C13.853 13.5611 13.5986 13.6665 13.3334 13.6665C13.0682 13.6665 12.8139 13.5611 12.6263 13.3736C12.4388 13.1861 12.3334 12.9317 12.3334 12.6665C12.3334 11.694 12.7197 10.7614 13.4074 10.0738C14.095 9.38615 15.0276 8.99984 16.0001 8.99984Z" fill="#999999"/>
</svg>
