<svg width="24" height="24" viewBox="0 0 24 24" fill="none" xmlns="http://www.w3.org/2000/svg">
    <path d="M22.1836 11.8358L12.5297 2.18895C12.4602 2.1193 12.3776 2.06404 12.2867 2.02634C12.1958 1.98864 12.0984 1.96924 12 1.96924C11.9016 1.96924 11.8042 1.98864 11.7133 2.02634C11.6224 2.06404 11.5398 2.1193 11.4703 2.18895L1.81642 11.8358C1.53517 12.1171 1.37579 12.4991 1.37579 12.8975C1.37579 13.7249 2.04845 14.3975 2.87579 14.3975H3.89298V21.2811C3.89298 21.696 4.22814 22.0311 4.64298 22.0311H10.5V16.7811H13.125V22.0311H19.357C19.7719 22.0311 20.107 21.696 20.107 21.2811V14.3975H21.1242C21.5227 14.3975 21.9047 14.2405 22.1859 13.9569C22.7695 13.371 22.7695 12.4218 22.1836 11.8358Z" fill="#131635"/>
</svg>