<svg width="16" height="16" viewBox="0 0 16 16" fill="none" xmlns="http://www.w3.org/2000/svg">
<path d="M3.99992 1.33301C4.70716 1.33301 5.38544 1.61396 5.88554 2.11406C6.38563 2.61415 6.66659 3.29243 6.66659 3.99967V5.33301H9.33325V3.99967C9.33325 3.29243 9.6142 2.61415 10.1143 2.11406C10.6144 1.61396 11.2927 1.33301 11.9999 1.33301C12.7072 1.33301 13.3854 1.61396 13.8855 2.11406C14.3856 2.61415 14.6666 3.29243 14.6666 3.99967C14.6666 4.70692 14.3856 5.3852 13.8855 5.88529C13.3854 6.38539 12.7072 6.66634 11.9999 6.66634H10.6666V9.33301H11.9999C12.7072 9.33301 13.3854 9.61396 13.8855 10.1141C14.3856 10.6142 14.6666 11.2924 14.6666 11.9997C14.6666 12.7069 14.3856 13.3852 13.8855 13.8853C13.3854 14.3854 12.7072 14.6663 11.9999 14.6663C11.2927 14.6663 10.6144 14.3854 10.1143 13.8853C9.6142 13.3852 9.33325 12.7069 9.33325 11.9997V10.6663H6.66659V11.9997C6.66659 12.7069 6.38563 13.3852 5.88554 13.8853C5.38544 14.3854 4.70716 14.6663 3.99992 14.6663C3.29267 14.6663 2.6144 14.3854 2.1143 13.8853C1.6142 13.3852 1.33325 12.7069 1.33325 11.9997C1.33325 11.2924 1.6142 10.6142 2.1143 10.1141C2.6144 9.61396 3.29267 9.33301 3.99992 9.33301H5.33325V6.66634H3.99992C3.29267 6.66634 2.6144 6.38539 2.1143 5.88529C1.6142 5.3852 1.33325 4.70692 1.33325 3.99967C1.33325 3.29243 1.6142 2.61415 2.1143 2.11406C2.6144 1.61396 3.29267 1.33301 3.99992 1.33301ZM10.6666 11.9997C10.6666 12.3533 10.8071 12.6924 11.0571 12.9425C11.3072 13.1925 11.6463 13.333 11.9999 13.333C12.3535 13.333 12.6927 13.1925 12.9427 12.9425C13.1928 12.6924 13.3333 12.3533 13.3333 11.9997C13.3333 11.6461 13.1928 11.3069 12.9427 11.0569C12.6927 10.8068 12.3535 10.6663 11.9999 10.6663H10.6666V11.9997ZM9.33325 6.66634H6.66659V9.33301H9.33325V6.66634ZM3.99992 10.6663C3.6463 10.6663 3.30716 10.8068 3.05711 11.0569C2.80706 11.3069 2.66659 11.6461 2.66659 11.9997C2.66659 12.3533 2.80706 12.6924 3.05711 12.9425C3.30716 13.1925 3.6463 13.333 3.99992 13.333C4.35354 13.333 4.69268 13.1925 4.94273 12.9425C5.19278 12.6924 5.33325 12.3533 5.33325 11.9997V10.6663H3.99992ZM5.33325 3.99967C5.33325 3.64605 5.19278 3.30691 4.94273 3.05687C4.69268 2.80682 4.35354 2.66634 3.99992 2.66634C3.6463 2.66634 3.30716 2.80682 3.05711 3.05687C2.80706 3.30691 2.66659 3.64605 2.66659 3.99967C2.66659 4.3533 2.80706 4.69244 3.05711 4.94248C3.30716 5.19253 3.6463 5.33301 3.99992 5.33301H5.33325V3.99967ZM11.9999 5.33301C12.3535 5.33301 12.6927 5.19253 12.9427 4.94248C13.1928 4.69244 13.3333 4.3533 13.3333 3.99967C13.3333 3.64605 13.1928 3.30691 12.9427 3.05687C12.6927 2.80682 12.3535 2.66634 11.9999 2.66634C11.6463 2.66634 11.3072 2.80682 11.0571 3.05687C10.8071 3.30691 10.6666 3.64605 10.6666 3.99967V5.33301H11.9999Z" fill="#00A3FF"/>
</svg>
