<svg width="18" height="12" viewBox="0 0 18 12" fill="none" xmlns="http://www.w3.org/2000/svg">
<path d="M16.5 0H1.5C0.671562 0 0 0.671562 0 1.5V10.5C0 11.3284 0.671562 12 1.5 12H16.5C17.3284 12 18 11.3284 18 10.5V1.5C18 0.671562 17.3284 0 16.5 0ZM16.75 10.5C16.75 10.6378 16.6378 10.75 16.5 10.75H1.5C1.36216 10.75 1.25 10.6378 1.25 10.5V1.5C1.25 1.36216 1.36216 1.25 1.5 1.25H16.5C16.6378 1.25 16.75 1.36216 16.75 1.5V10.5ZM5.3125 6.4375V5.5625C5.3125 5.35541 5.14459 5.1875 4.9375 5.1875H4.0625C3.85541 5.1875 3.6875 5.35541 3.6875 5.5625V6.4375C3.6875 6.64459 3.85541 6.8125 4.0625 6.8125H4.9375C5.14459 6.8125 5.3125 6.64459 5.3125 6.4375ZM8.3125 6.4375V5.5625C8.3125 5.35541 8.14459 5.1875 7.9375 5.1875H7.0625C6.85541 5.1875 6.6875 5.35541 6.6875 5.5625V6.4375C6.6875 6.64459 6.85541 6.8125 7.0625 6.8125H7.9375C8.14459 6.8125 8.3125 6.64459 8.3125 6.4375ZM11.3125 6.4375V5.5625C11.3125 5.35541 11.1446 5.1875 10.9375 5.1875H10.0625C9.85541 5.1875 9.6875 5.35541 9.6875 5.5625V6.4375C9.6875 6.64459 9.85541 6.8125 10.0625 6.8125H10.9375C11.1446 6.8125 11.3125 6.64459 11.3125 6.4375ZM14.3125 6.4375V5.5625C14.3125 5.35541 14.1446 5.1875 13.9375 5.1875H13.0625C12.8554 5.1875 12.6875 5.35541 12.6875 5.5625V6.4375C12.6875 6.64459 12.8554 6.8125 13.0625 6.8125H13.9375C14.1446 6.8125 14.3125 6.64459 14.3125 6.4375ZM3.8125 9V8.125C3.8125 7.91791 3.64459 7.75 3.4375 7.75H2.5625C2.35541 7.75 2.1875 7.91791 2.1875 8.125V9C2.1875 9.20709 2.35541 9.375 2.5625 9.375H3.4375C3.64459 9.375 3.8125 9.20709 3.8125 9ZM15.8125 9V8.125C15.8125 7.91791 15.6446 7.75 15.4375 7.75H14.5625C14.3554 7.75 14.1875 7.91791 14.1875 8.125V9C14.1875 9.20709 14.3554 9.375 14.5625 9.375H15.4375C15.6446 9.375 15.8125 9.20709 15.8125 9ZM3.8125 3.875V3C3.8125 2.79291 3.64459 2.625 3.4375 2.625H2.5625C2.35541 2.625 2.1875 2.79291 2.1875 3V3.875C2.1875 4.08209 2.35541 4.25 2.5625 4.25H3.4375C3.64459 4.25 3.8125 4.08209 3.8125 3.875ZM6.8125 3.875V3C6.8125 2.79291 6.64459 2.625 6.4375 2.625H5.5625C5.35541 2.625 5.1875 2.79291 5.1875 3V3.875C5.1875 4.08209 5.35541 4.25 5.5625 4.25H6.4375C6.64459 4.25 6.8125 4.08209 6.8125 3.875ZM9.8125 3.875V3C9.8125 2.79291 9.64459 2.625 9.4375 2.625H8.5625C8.35541 2.625 8.1875 2.79291 8.1875 3V3.875C8.1875 4.08209 8.35541 4.25 8.5625 4.25H9.4375C9.64459 4.25 9.8125 4.08209 9.8125 3.875ZM12.8125 3.875V3C12.8125 2.79291 12.6446 2.625 12.4375 2.625H11.5625C11.3554 2.625 11.1875 2.79291 11.1875 3V3.875C11.1875 4.08209 11.3554 4.25 11.5625 4.25H12.4375C12.6446 4.25 12.8125 4.08209 12.8125 3.875ZM15.8125 3.875V3C15.8125 2.79291 15.6446 2.625 15.4375 2.625H14.5625C14.3554 2.625 14.1875 2.79291 14.1875 3V3.875C14.1875 4.08209 14.3554 4.25 14.5625 4.25H15.4375C15.6446 4.25 15.8125 4.08209 15.8125 3.875ZM12.75 8.8125V8.3125C12.75 8.10541 12.5821 7.9375 12.375 7.9375H5.625C5.41791 7.9375 5.25 8.10541 5.25 8.3125V8.8125C5.25 9.01959 5.41791 9.1875 5.625 9.1875H12.375C12.5821 9.1875 12.75 9.01959 12.75 8.8125Z" fill="#00A3FF"/>
</svg>
