<svg width="16" height="16" viewBox="0 0 16 16" fill="none" xmlns="http://www.w3.org/2000/svg">
<path d="M8.00001 0C5.82551 0 5.55451 0.0105 4.70351 0.0465C3.84901 0.0885 3.27101 0.221 2.76101 0.419C2.22724 0.62051 1.74384 0.936008 1.34451 1.3435C0.935878 1.7419 0.620205 2.22557 0.420007 2.76C0.222007 3.27 0.0895071 3.848 0.0475071 4.7025C0.00900708 5.554 0.00100708 5.8245 0.00100708 7.999C0.00100708 10.1735 0.0115071 10.4445 0.0475071 11.2955C0.0895071 12.1475 0.222007 12.728 0.420007 13.238C0.621517 13.7718 0.937015 14.2552 1.34451 14.6545C1.74291 15.0631 2.22657 15.3788 2.76101 15.579C3.27101 15.7745 3.85151 15.9095 4.70351 15.9515C5.55501 15.99 5.82551 15.998 8.00001 15.998C10.1745 15.998 10.4455 15.9875 11.2965 15.9515C12.1485 15.9095 12.729 15.774 13.239 15.579C13.7728 15.3775 14.2562 15.062 14.6555 14.6545C15.0647 14.2565 15.3804 13.7727 15.58 13.238C15.7755 12.728 15.9105 12.1475 15.9525 11.2955C15.991 10.444 15.999 10.1735 15.999 7.999C15.999 5.8245 15.9885 5.5535 15.9525 4.7025C15.9105 3.8505 15.775 3.267 15.58 2.76C15.3785 2.22623 15.063 1.74283 14.6555 1.3435C14.2575 0.934345 13.7737 0.61859 13.239 0.419C12.729 0.221 12.1485 0.0885 11.2965 0.0465C10.445 0.008 10.1745 0 8.00001 0ZM8.00001 1.44C10.1355 1.44 10.3905 1.4505 11.2345 1.4865C12.013 1.523 12.437 1.653 12.7185 1.763C13.0665 1.89146 13.3815 2.09593 13.6405 2.3615C13.9056 2.61941 14.1093 2.93367 14.2365 3.281C14.3465 3.5625 14.4765 3.9865 14.513 4.765C14.549 5.609 14.5595 5.8645 14.5595 7.9995C14.5595 10.1345 14.549 10.39 14.51 11.234C14.468 12.0125 14.338 12.4365 14.2285 12.718C14.077 13.0935 13.908 13.356 13.629 13.64C13.3691 13.9039 13.0543 14.1074 12.707 14.236C12.429 14.346 11.999 14.476 11.2175 14.5125C10.369 14.5485 10.119 14.559 7.97801 14.559C5.83701 14.559 5.58751 14.5485 4.73801 14.5095C3.95951 14.4675 3.53001 14.3375 3.24851 14.228C2.86851 14.0765 2.60801 13.9075 2.32901 13.6285C2.04751 13.347 1.86851 13.079 1.73051 12.7065C1.61851 12.4285 1.49051 11.9985 1.44901 11.217C1.42051 10.3785 1.40701 10.1185 1.40701 7.9875C1.40701 5.8575 1.42051 5.597 1.44901 4.748C1.49051 3.9665 1.61851 3.5375 1.73051 3.2585C1.86851 2.878 2.04801 2.618 2.32901 2.3365C2.60751 2.058 2.86851 1.878 3.24851 1.737C3.53001 1.6275 3.94901 1.4975 4.73051 1.4585C5.57901 1.428 5.82901 1.417 7.96701 1.417L8.00001 1.44ZM8.00001 3.8935C7.46068 3.8933 6.9266 3.99939 6.42828 4.20569C5.92997 4.41199 5.4772 4.71446 5.09583 5.09583C4.71447 5.47719 4.412 5.92997 4.20569 6.42828C3.99939 6.92659 3.89331 7.46067 3.89351 8C3.89331 8.53933 3.99939 9.07341 4.20569 9.57172C4.412 10.07 4.71447 10.5228 5.09583 10.9042C5.4772 11.2855 5.92997 11.588 6.42828 11.7943C6.9266 12.0006 7.46068 12.1067 8.00001 12.1065C8.53934 12.1067 9.07342 12.0006 9.57173 11.7943C10.07 11.588 10.5228 11.2855 10.9042 10.9042C11.2855 10.5228 11.588 10.07 11.7943 9.57172C12.0006 9.07341 12.1067 8.53933 12.1065 8C12.1067 7.46067 12.0006 6.92659 11.7943 6.42828C11.588 5.92997 11.2855 5.47719 10.9042 5.09583C10.5228 4.71446 10.07 4.41199 9.57173 4.20569C9.07342 3.99939 8.53934 3.8933 8.00001 3.8935ZM8.00001 10.6665C6.52601 10.6665 5.33351 9.474 5.33351 8C5.33351 6.526 6.52601 5.3335 8.00001 5.3335C9.47401 5.3335 10.6665 6.526 10.6665 8C10.6665 9.474 9.47401 10.6665 8.00001 10.6665ZM13.232 3.7295C13.2317 3.98433 13.1303 4.22864 12.95 4.40874C12.7697 4.58884 12.5253 4.69 12.2705 4.69C12.1445 4.69 12.0197 4.66518 11.9033 4.61696C11.7869 4.56874 11.6811 4.49807 11.592 4.40897C11.5029 4.31987 11.4323 4.2141 11.384 4.09768C11.3358 3.98127 11.311 3.8565 11.311 3.7305C11.311 3.6045 11.3358 3.47973 11.384 3.36332C11.4323 3.2469 11.5029 3.14113 11.592 3.05203C11.6811 2.96293 11.7869 2.89226 11.9033 2.84404C12.0197 2.79582 12.1445 2.771 12.2705 2.771C12.799 2.771 13.232 3.201 13.232 3.7295Z" fill="url(#paint0_linear)"/>
<defs>
<linearGradient id="paint0_linear" x1="16" y1="4.76807e-07" x2="8.1062e-06" y2="16" gradientUnits="userSpaceOnUse">
<stop stop-color="#7A37AB"/>
<stop offset="0.34375" stop-color="#BB2F7D"/>
<stop offset="0.709671" stop-color="#F91202"/>
<stop offset="1" stop-color="#F7D901"/>
</linearGradient>
</defs>
</svg>
