<svg width="32" height="32" viewBox="0 0 32 32" fill="none" xmlns="http://www.w3.org/2000/svg">
<path d="M3.99854 8.79953C3.99854 7.52642 4.50428 6.30545 5.4045 5.40523C6.30472 4.50501 7.52569 3.99927 8.7988 3.99927H23.1996C24.4727 3.99927 25.6936 4.50501 26.5939 5.40523C27.4941 6.30545 27.9998 7.52642 27.9998 8.79953V23.2003C27.9998 24.4734 27.4941 25.6944 26.5939 26.5946C25.6936 27.4948 24.4727 28.0006 23.1996 28.0006H8.7988C7.52569 28.0006 6.30472 27.4948 5.4045 26.5946C4.50428 25.6944 3.99854 24.4734 3.99854 23.2003V8.79953Z" stroke="#0177FB" stroke-width="2.66667" stroke-linecap="round" stroke-linejoin="round"/>
<path d="M11.7995 14.7999C13.4564 14.7999 14.7996 13.4567 14.7996 11.7997C14.7996 10.1428 13.4564 8.79956 11.7995 8.79956C10.1425 8.79956 8.79932 10.1428 8.79932 11.7997C8.79932 13.4567 10.1425 14.7999 11.7995 14.7999Z" stroke="#0177FB" stroke-width="2.66667" stroke-linecap="round" stroke-linejoin="round"/>
<path d="M19.0311 16.7452L8.79932 28.0006H23.5241C24.7113 28.0006 25.8498 27.529 26.6893 26.6895C27.5288 25.85 28.0004 24.7115 28.0004 23.5243C28.0004 22.9651 27.7903 22.4263 27.4123 22.0122L22.5761 16.738C22.3507 16.4921 22.0765 16.2959 21.771 16.1619C21.4656 16.0279 21.1355 15.959 20.802 15.9597C20.4684 15.9604 20.1387 16.0306 19.8338 16.1658C19.5288 16.3011 19.2555 16.4984 19.0311 16.7452V16.7452Z" stroke="#0177FB" stroke-width="2.66667" stroke-linecap="round" stroke-linejoin="round"/>
</svg>
