<svg width="17" height="16" viewBox="0 0 17 16" fill="none" xmlns="http://www.w3.org/2000/svg">
    <path d="M3.25301 6.61489L1.27006 8.59784C0.456855 9.41105 0 10.514 0 11.664C0 12.8141 0.456855 13.917 1.27006 14.7302C2.08327 15.5434 3.18621 16.0003 4.33626 16.0003C5.48631 16.0003 6.58926 15.5434 7.40246 14.7302L10.0445 12.0868C10.5349 11.5963 10.9004 10.9954 11.1105 10.3344C11.3206 9.67346 11.3691 8.97174 11.2518 8.28816C11.1346 7.60459 10.8551 6.95911 10.4368 6.4059C10.0185 5.8527 9.47354 5.40792 8.84776 5.10889L8.00082 5.95583C7.91482 6.04196 7.84004 6.13859 7.77824 6.24345C8.26173 6.38244 8.70058 6.64521 9.0514 7.00578C9.40221 7.36635 9.65285 7.81224 9.77854 8.29936C9.90422 8.78648 9.9006 9.29797 9.76803 9.78326C9.63546 10.2686 9.37853 10.7108 9.02265 11.0664L6.38208 13.7084C5.83969 14.2508 5.10405 14.5555 4.33699 14.5555C3.56993 14.5555 2.83428 14.2508 2.29189 13.7084C1.7495 13.166 1.44478 12.4304 1.44478 11.6633C1.44478 10.8963 1.7495 10.1606 2.29189 9.61822L3.43801 8.47354C3.2763 7.86757 3.21383 7.2394 3.25301 6.61344V6.61489Z" fill="#7D8DA7"/>
    <path d="M4.69435 7.21926L4.93572 6.9779C5.2938 6.6185 5.74057 6.36021 6.23071 6.22923C6.36168 5.7391 6.61997 5.29232 6.97937 4.93425L7.22074 4.69288C6.4937 4.65201 5.76806 4.79465 5.1106 5.10768C4.79263 5.77252 4.65389 6.49951 4.69435 7.21782V7.21926Z" fill="#7D8DA7"/>
    <path d="M5.95724 3.91207C5.46685 4.40252 5.10128 5.00345 4.8912 5.66443C4.68112 6.3254 4.63266 7.02712 4.74989 7.7107C4.86712 8.39427 5.14663 9.03975 5.56494 9.59295C5.98325 10.1462 6.52817 10.5909 7.15394 10.89L8.27405 9.76842C7.78402 9.63698 7.33721 9.37888 6.97854 9.02005C6.61986 8.66122 6.36194 8.21431 6.2307 7.72422C6.09947 7.23413 6.09953 6.71814 6.2309 6.22808C6.36226 5.73803 6.62029 5.29119 6.97906 4.93245L9.61962 2.29044C10.162 1.74805 10.8977 1.44334 11.6647 1.44334C12.4318 1.44334 13.1674 1.74805 13.7098 2.29044C14.2522 2.83284 14.5569 3.56848 14.5569 4.33554C14.5569 5.1026 14.2522 5.83825 13.7098 6.38064L12.5637 7.52532C12.7256 8.13234 12.7877 8.76105 12.7487 9.38542L14.7316 7.40247C15.5449 6.58926 16.0017 5.48631 16.0017 4.33626C16.0017 3.18622 15.5449 2.08327 14.7316 1.27006C13.9184 0.456855 12.8155 0 11.6654 0C10.5154 0 9.41245 0.456855 8.59924 1.27006L5.95724 3.91207Z" fill="#7D8DA7"/>
    <path d="M10.8914 10.8902C11.2058 10.2331 11.3489 9.50725 11.3076 8.78003L11.0663 9.02139C10.7082 9.3808 10.2614 9.63909 9.77128 9.77006C9.64031 10.2602 9.38202 10.707 9.02261 11.065L8.78125 11.3064C9.50828 11.3473 10.2339 11.2046 10.8914 10.8916V10.8902Z" fill="#7D8DA7"/>
</svg>