<svg width="48" height="48" viewBox="0 0 48 48" fill="none" xmlns="http://www.w3.org/2000/svg">
    <rect x="0.5" y="0.5" width="47" height="47" rx="7.5" stroke="#E5EAF4"/>
    <path d="M25.9376 28.7938C25.8906 28.7473 25.8272 28.7212 25.761 28.7212C25.6949 28.7212 25.6315 28.7473 25.5845 28.7938L21.9532 32.4251C20.272 34.1063 17.4345 34.2845 15.5782 32.4251C13.7188 30.5657 13.897 27.7313 15.5782 26.0501L19.2095 22.4188C19.3063 22.322 19.3063 22.1626 19.2095 22.0657L17.9657 20.822C17.9187 20.7754 17.8553 20.7493 17.7892 20.7493C17.723 20.7493 17.6596 20.7754 17.6126 20.822L13.9813 24.4532C11.3376 27.097 11.3376 31.3751 13.9813 34.0157C16.6251 36.6563 20.9032 36.6595 23.5438 34.0157L27.1751 30.3845C27.272 30.2876 27.272 30.1282 27.1751 30.0313L25.9376 28.7938ZM34.0188 13.9813C31.3751 11.3376 27.097 11.3376 24.4563 13.9813L20.822 17.6126C20.7754 17.6596 20.7493 17.723 20.7493 17.7892C20.7493 17.8553 20.7754 17.9187 20.822 17.9657L22.0626 19.2063C22.1595 19.3032 22.3188 19.3032 22.4157 19.2063L26.047 15.5751C27.7282 13.8938 30.5657 13.7157 32.422 15.5751C34.2813 17.4345 34.1032 20.2688 32.422 21.9501L28.7907 25.5813C28.7442 25.6283 28.7181 25.6918 28.7181 25.7579C28.7181 25.824 28.7442 25.8875 28.7907 25.9345L30.0345 27.1782C30.1313 27.2751 30.2907 27.2751 30.3876 27.1782L34.0188 23.547C36.6595 20.9032 36.6595 16.6251 34.0188 13.9813ZM27.0657 19.6345C27.0187 19.5879 26.9553 19.5618 26.8892 19.5618C26.823 19.5618 26.7596 19.5879 26.7126 19.6345L19.6345 26.7095C19.5879 26.7565 19.5618 26.8199 19.5618 26.886C19.5618 26.9522 19.5879 27.0156 19.6345 27.0626L20.872 28.3001C20.9688 28.397 21.1282 28.397 21.2251 28.3001L28.3001 21.2251C28.397 21.1282 28.397 20.9688 28.3001 20.872L27.0657 19.6345Z" fill="#131635"/>
</svg>