<svg width="25" height="24" viewBox="0 0 25 24" fill="none" xmlns="http://www.w3.org/2000/svg">
<path d="M4.87945 9.92201L1.90507 12.8964C0.685273 14.1162 0 15.7706 0 17.4956C0 19.2207 0.685273 20.8751 1.90507 22.0949C3.12486 23.3147 4.77926 24 6.50431 24C8.22936 24 9.88376 23.3147 11.1035 22.0949L15.0665 18.1298C15.8021 17.3941 16.3504 16.4927 16.6655 15.5013C16.9807 14.5098 17.0533 13.4572 16.8775 12.4319C16.7017 11.4065 16.2824 10.4383 15.6549 9.60854C15.0275 8.77875 14.2101 8.11158 13.2715 7.66304L12.0011 8.93344C11.8721 9.06263 11.7599 9.20758 11.6672 9.36486C12.3924 9.57334 13.0507 9.96749 13.5769 10.5083C14.1031 11.0492 14.4791 11.718 14.6676 12.4487C14.8561 13.1794 14.8507 13.9466 14.6519 14.6745C14.453 15.4024 14.0676 16.0659 13.5338 16.5992L9.573 20.5622C8.75942 21.3757 7.65597 21.8328 6.50539 21.8328C5.35482 21.8328 4.25137 21.3757 3.43779 20.5622C2.62421 19.7486 2.16714 18.6451 2.16714 17.4946C2.16714 16.344 2.62421 15.2405 3.43779 14.4269L5.15695 12.71C4.91439 11.801 4.82068 10.8588 4.87945 9.91984V9.92201Z" fill="#131635"/>
<path d="M7.04119 10.8282L7.40324 10.4662C7.94035 9.92707 8.6105 9.53964 9.34569 9.34318C9.54215 8.60798 9.92958 7.93783 10.4687 7.40072L10.8307 7.03868C9.74018 6.97737 8.65174 7.19133 7.66556 7.66087C7.18861 8.65812 6.98049 9.74858 7.04119 10.826V10.8282Z" fill="#131635"/>
<path d="M8.93549 5.86803C8.19993 6.60369 7.65158 7.50508 7.33646 8.49653C7.02134 9.48797 6.94865 10.5405 7.1245 11.5659C7.30035 12.5912 7.7196 13.5594 8.34706 14.3892C8.97452 15.219 9.79188 15.8862 10.7305 16.3347L12.4107 14.6524C11.6756 14.4553 11.0054 14.0681 10.4674 13.5299C9.92941 12.9917 9.54254 12.3213 9.34569 11.5862C9.14884 10.8511 9.14894 10.0771 9.34598 9.342C9.54302 8.60693 9.93006 7.93667 10.4682 7.39858L14.429 3.43562C15.2426 2.62204 16.346 2.16497 17.4966 2.16497C18.6472 2.16497 19.7506 2.62204 20.5642 3.43562C21.3778 4.2492 21.8349 5.35265 21.8349 6.50323C21.8349 7.6538 21.3778 8.75725 20.5642 9.57083L18.8451 11.2878C19.0879 12.1983 19.1811 13.1414 19.1226 14.0779L22.0969 11.1035C23.3167 9.88376 24.002 8.22936 24.002 6.50431C24.002 4.77926 23.3167 3.12486 22.0969 1.90507C20.8771 0.685274 19.2227 0 17.4977 0C15.7726 0 14.1182 0.685274 12.8985 1.90507L8.93549 5.86803Z" fill="#131635"/>
<path d="M16.3368 16.3347C16.8083 15.3492 17.0231 14.2604 16.9611 13.1696L16.5991 13.5316C16.062 14.0707 15.3918 14.4581 14.6566 14.6546C14.4602 15.3898 14.0727 16.0599 13.5336 16.5971L13.1716 16.9591C14.2621 17.0204 15.3506 16.8064 16.3368 16.3369V16.3347Z" fill="#131635"/>
</svg>
