<svg width="487" height="43" viewBox="0 0 487 43" fill="none" xmlns="http://www.w3.org/2000/svg">
    <path d="M24.84 6.8V15.44H10.08V6.8H0.72V32H10.08V23.36H24.84V32H34.2V6.8H24.84ZM37.4302 3.2V8.96H46.0702V3.2H37.4302ZM37.4302 10.4V32H46.0702V10.4H37.4302ZM69.696 10.4V13.64C67.824 11.372 64.764 10.04 60.408 10.04C53.748 10.04 48.96 13.208 48.96 20.48C48.96 27.752 53.748 30.92 60.408 30.92C64.764 30.92 67.824 29.588 69.696 27.32C69.624 32.792 67.356 33.8 63.144 33.8C58.464 33.8 53.712 32.756 51.228 32.288V39.308C53.28 39.848 58.572 41 64.728 41C72.144 41 78.336 37.868 78.336 29.228V10.4H69.696ZM63.648 23.72C59.076 23.72 57.6 22.928 57.6 20.48C57.6 18.032 59.076 17.24 63.648 17.24C68.22 17.24 69.696 18.032 69.696 20.48C69.696 22.928 68.22 23.72 63.648 23.72ZM100.645 10.04C96.1093 10.04 92.7973 11.48 90.2053 13.28V3.2H81.5653V32H90.2053V20.336C91.8973 18.716 94.5973 17.6 97.1533 17.6C101.041 17.6 102.373 19.184 102.373 22.892V32H111.013V19.364C111.013 11.552 105.505 10.04 100.645 10.04ZM113.908 23.108C113.908 30.596 119.668 32.36 130 32.36C140.332 32.36 146.092 30.596 146.092 23.648C146.092 17.06 139.936 16.376 130 15.98C124.528 15.764 123.628 15.8 123.628 14.828C123.628 13.856 124.528 13.64 128.92 13.64C133.492 13.64 135.652 13.928 135.652 15.26H145.012C145.012 8.816 139.468 6.44 129.64 6.44C119.704 6.44 114.268 8.816 114.268 14.36C114.268 20.228 118.624 22.1 130 22.46C135.904 22.64 136.732 22.784 136.732 23.864C136.732 24.8 135.904 25.16 130.36 25.16C124.42 25.16 123.268 24.332 123.268 23.108H113.908ZM169.727 17.6V10.4H160.907V4.64L152.267 6.8V10.4H147.911V17.6H152.267V25.628C152.267 30.308 155.579 32.36 162.275 32.36C165.119 32.36 167.675 32.18 169.727 31.82V24.8C167.243 25.16 166.163 25.16 164.219 25.16C161.699 25.16 160.907 24.116 160.907 22.064V17.6H169.727ZM189.634 10.04C186.106 10.04 183.154 11.156 181.246 14V10.4H172.606V32H181.246V20.336C183.73 17.6 187.078 17.24 190.138 17.24C191.722 17.24 193.342 17.456 195.358 17.96V10.76C193.918 10.4 192.154 10.04 189.634 10.04ZM211.858 25.52C209.482 25.52 207.07 24.944 206.35 22.64H226.834C226.834 13.208 221.11 10.04 212.218 10.04C203.398 10.04 197.53 13.208 197.53 21.2C197.53 29.192 203.398 32.36 211.858 32.36C220.75 32.36 225.394 29.624 226.474 23.9H218.014C216.25 25.304 214.99 25.52 211.858 25.52ZM212.182 16.16C214.486 16.16 216.646 16.376 217.618 18.32H206.746C207.718 16.376 209.878 16.16 212.182 16.16ZM243.411 10.04C239.415 10.04 234.735 10.832 230.415 12.236L233.223 18.356C237.183 17.492 240.351 17.24 243.123 17.24C246.003 17.24 248.739 17.348 248.739 19.94C246.759 19.22 244.455 18.824 241.431 18.824C235.131 18.824 228.651 20.3 228.651 25.916C228.651 30.596 232.971 32.36 237.903 32.36C241.647 32.36 245.391 31.82 248.739 29.372V32H257.379V21.308C257.307 13.064 252.267 10.04 243.411 10.04ZM248.739 24.944C246.579 25.88 243.411 26.6 240.495 26.6C238.299 26.6 237.291 26.42 237.291 25.232C237.291 23.864 239.019 23.504 243.015 23.504C245.499 23.504 247.371 23.684 248.739 24.044V24.944ZM297.28 10.04C292.024 10.04 288.712 11.84 286.444 14C284.752 10.832 281.332 10.04 278.632 10.04C273.376 10.04 270.82 12.2 268.912 14V10.4H260.272V32H268.912V20.336C270.748 18.536 272.584 17.6 274.78 17.6C277.948 17.6 278.92 19.184 278.92 22.892V32H287.56V20.336C289.396 18.536 291.232 17.6 293.428 17.6C296.596 17.6 297.568 19.184 297.568 22.892V32H306.208V19.004C306.208 11.552 301.06 10.04 297.28 10.04ZM348.788 6.8V21.668L337.916 6.8H325.676V32H335.036V17.132L345.908 32H358.148V6.8H348.788ZM388.042 14.72V6.8H361.402V32H370.762V25.34H385.882V17.42H370.762V14.72H388.042ZM421.505 6.8H390.545V14.72H401.345V32H410.705V14.72H421.505V6.8Z" fill="white"/>
    <path d="M449.368 7.68C449.858 7.134 450.138 6.462 450.138 5.776C450.138 4.334 449.452 3.2 447.226 3.2H438.602V13H447.562C449.788 13 450.754 11.796 450.754 10.144C450.754 9.01 450.208 8.198 449.368 7.68ZM441.122 5.02H446.316C447.002 5.02 447.618 5.02 447.618 6.028C447.618 7.05 447.002 7.05 446.33 7.05H446.316H441.122V5.02ZM446.946 11.054H441.122V8.982H446.946C447.618 8.982 448.234 8.982 448.234 10.018C448.234 11.054 447.618 11.054 446.946 11.054ZM461.95 5.202V3.2H451.59V13H461.95V10.998H454.11V9.01H461.95V7.19H454.11V5.202H461.95ZM474.688 3.2H462.648V5.314H467.408V13H469.928V5.314H474.688V3.2ZM483.229 13H486.015L480.947 3.2H477.545L472.491 13H475.263L476.313 10.914H482.179L483.229 13ZM477.251 9.038L479.253 5.062L481.241 9.038H477.251Z" fill="#00A3FF"/>
</svg>