<svg width="122" height="44" viewBox="0 0 122 44" fill="none" xmlns="http://www.w3.org/2000/svg">
<path d="M7.308 29.248H17.928V34H2.34V8.8H17.748V13.552H7.308V18.916H16.848V23.596H7.308V29.248ZM32.5631 16H37.5311L30.9791 34C30.0431 36.592 28.7951 38.464 27.2351 39.616C25.6991 40.792 23.7791 41.32 21.4751 41.2V36.88C22.7231 36.904 23.7071 36.64 24.4271 36.088C25.1711 35.536 25.7591 34.648 26.1911 33.424L18.8111 16H23.8871L28.5671 28.096L32.5631 16ZM42.9621 26.908C43.5861 29.164 45.2781 30.292 48.0381 30.292C49.8141 30.292 51.1581 29.692 52.0701 28.492L55.8141 30.652C54.0381 33.22 51.4221 34.504 47.9661 34.504C44.9901 34.504 42.6021 33.604 40.8021 31.804C39.0021 30.004 38.1021 27.736 38.1021 25C38.1021 22.288 38.9901 20.032 40.7661 18.232C42.5421 16.408 44.8221 15.496 47.6061 15.496C50.2461 15.496 52.4181 16.408 54.1221 18.232C55.8501 20.056 56.7141 22.312 56.7141 25C56.7141 25.6 56.6541 26.236 56.5341 26.908H42.9621ZM42.8901 23.308H52.0701C51.8061 22.084 51.2541 21.172 50.4141 20.572C49.5981 19.972 48.6621 19.672 47.6061 19.672C46.3581 19.672 45.3261 19.996 44.5101 20.644C43.6941 21.268 43.1541 22.156 42.8901 23.308ZM79.864 15.496C81.928 15.496 83.572 16.168 84.796 17.512C86.044 18.856 86.668 20.656 86.668 22.912V34H82.024V23.236C82.024 22.156 81.76 21.316 81.232 20.716C80.704 20.116 79.96 19.816 79 19.816C77.944 19.816 77.116 20.164 76.516 20.86C75.94 21.556 75.652 22.564 75.652 23.884V34H71.008V23.236C71.008 22.156 70.744 21.316 70.216 20.716C69.688 20.116 68.944 19.816 67.984 19.816C66.952 19.816 66.124 20.164 65.5 20.86C64.9 21.556 64.6 22.564 64.6 23.884V34H59.956V16H64.6V17.908C65.68 16.3 67.348 15.496 69.604 15.496C71.812 15.496 73.444 16.36 74.5 18.088C75.7 16.36 77.488 15.496 79.864 15.496ZM105.948 31.768C104.1 33.592 101.844 34.504 99.1803 34.504C96.5163 34.504 94.2603 33.592 92.4123 31.768C90.5883 29.92 89.6763 27.664 89.6763 25C89.6763 22.336 90.5883 20.092 92.4123 18.268C94.2603 16.42 96.5163 15.496 99.1803 15.496C101.844 15.496 104.1 16.42 105.948 18.268C107.796 20.092 108.72 22.336 108.72 25C108.72 27.664 107.796 29.92 105.948 31.768ZM95.6883 28.564C96.6243 29.5 97.7883 29.968 99.1803 29.968C100.572 29.968 101.736 29.5 102.672 28.564C103.608 27.628 104.076 26.44 104.076 25C104.076 23.56 103.608 22.372 102.672 21.436C101.736 20.5 100.572 20.032 99.1803 20.032C97.7883 20.032 96.6243 20.5 95.6883 21.436C94.7763 22.372 94.3203 23.56 94.3203 25C94.3203 26.44 94.7763 27.628 95.6883 28.564Z" fill="#00A3FF"/>
<rect x="121.977" y="28.9324" width="3" height="10.793" rx="1.5" transform="rotate(101.216 121.977 28.9324)" fill="#00A3FF"/>
<rect x="111.954" y="25.3459" width="3" height="9" rx="1.5" transform="rotate(-90.4211 111.954 25.3459)" fill="#00A3FF"/>
<rect x="116.557" y="15.7991" width="3" height="6.78145" rx="1.5" transform="rotate(66.8293 116.557 15.7991)" fill="#00A3FF"/>
<rect x="109.876" y="17.3826" width="3" height="4.8634" rx="1.5" transform="rotate(-128.713 109.876 17.3826)" fill="#00A3FF"/>
</svg>
