<svg width="201" height="38" viewBox="0 0 201 38" fill="none" xmlns="http://www.w3.org/2000/svg">
<path d="M48.08 10.152V27H43.976V20.064H37.592V27H33.488V10.152H37.592V16.752H43.976V10.152H48.08ZM56.3467 10.152V27H52.2427V10.152H56.3467ZM71.7048 15.48C71.4008 14.92 70.9608 14.496 70.3848 14.208C69.8248 13.904 69.1608 13.752 68.3928 13.752C67.0648 13.752 66.0008 14.192 65.2008 15.072C64.4008 15.936 64.0008 17.096 64.0008 18.552C64.0008 20.104 64.4168 21.32 65.2488 22.2C66.0968 23.064 67.2568 23.496 68.7288 23.496C69.7368 23.496 70.5848 23.24 71.2728 22.728C71.9768 22.216 72.4888 21.48 72.8088 20.52H67.6008V17.496H76.5288V21.312C76.2248 22.336 75.7048 23.288 74.9688 24.168C74.2488 25.048 73.3288 25.76 72.2088 26.304C71.0888 26.848 69.8248 27.12 68.4168 27.12C66.7528 27.12 65.2648 26.76 63.9528 26.04C62.6568 25.304 61.6408 24.288 60.9048 22.992C60.1848 21.696 59.8248 20.216 59.8248 18.552C59.8248 16.888 60.1848 15.408 60.9048 14.112C61.6408 12.8 62.6568 11.784 63.9528 11.064C65.2488 10.328 66.7288 9.96 68.3928 9.96C70.4088 9.96 72.1048 10.448 73.4808 11.424C74.8728 12.4 75.7928 13.752 76.2408 15.48H71.7048ZM94.5941 10.152V27H90.4901V20.064H84.1061V27H80.0021V10.152H84.1061V16.752H90.4901V10.152H94.5941ZM104.853 27.168C103.621 27.168 102.517 26.968 101.541 26.568C100.565 26.168 99.7808 25.576 99.1888 24.792C98.6128 24.008 98.3088 23.064 98.2768 21.96H102.645C102.709 22.584 102.925 23.064 103.293 23.4C103.661 23.72 104.141 23.88 104.733 23.88C105.341 23.88 105.821 23.744 106.173 23.472C106.525 23.184 106.701 22.792 106.701 22.296C106.701 21.88 106.557 21.536 106.269 21.264C105.997 20.992 105.653 20.768 105.237 20.592C104.837 20.416 104.261 20.216 103.509 19.992C102.421 19.656 101.533 19.32 100.845 18.984C100.157 18.648 99.5648 18.152 99.0688 17.496C98.5728 16.84 98.3248 15.984 98.3248 14.928C98.3248 13.36 98.8928 12.136 100.029 11.256C101.165 10.36 102.645 9.912 104.469 9.912C106.325 9.912 107.821 10.36 108.957 11.256C110.093 12.136 110.701 13.368 110.781 14.952H106.341C106.309 14.408 106.109 13.984 105.741 13.68C105.373 13.36 104.901 13.2 104.325 13.2C103.829 13.2 103.429 13.336 103.125 13.608C102.821 13.864 102.669 14.24 102.669 14.736C102.669 15.28 102.925 15.704 103.437 16.008C103.949 16.312 104.749 16.64 105.837 16.992C106.925 17.36 107.805 17.712 108.477 18.048C109.165 18.384 109.757 18.872 110.253 19.512C110.749 20.152 110.997 20.976 110.997 21.984C110.997 22.944 110.749 23.816 110.253 24.6C109.773 25.384 109.069 26.008 108.141 26.472C107.213 26.936 106.117 27.168 104.853 27.168ZM126.842 10.152V13.44H122.378V27H118.274V13.44H113.81V10.152H126.842ZM138.694 27L135.19 20.64H134.206V27H130.102V10.152H136.99C138.318 10.152 139.446 10.384 140.374 10.848C141.318 11.312 142.022 11.952 142.486 12.768C142.95 13.568 143.182 14.464 143.182 15.456C143.182 16.576 142.862 17.576 142.222 18.456C141.598 19.336 140.67 19.96 139.438 20.328L143.326 27H138.694ZM134.206 17.736H136.75C137.502 17.736 138.062 17.552 138.43 17.184C138.814 16.816 139.006 16.296 139.006 15.624C139.006 14.984 138.814 14.48 138.43 14.112C138.062 13.744 137.502 13.56 136.75 13.56H134.206V17.736ZM151.062 13.44V16.848H156.558V20.016H151.062V23.712H157.278V27H146.958V10.152H157.278V13.44H151.062ZM171.631 24.024H165.343L164.335 27H160.039L166.135 10.152H170.887L176.983 27H172.639L171.631 24.024ZM170.575 20.856L168.487 14.688L166.423 20.856H170.575ZM199.118 10.152V27H195.014V16.896L191.246 27H187.934L184.142 16.872V27H180.038V10.152H184.886L189.614 21.816L194.294 10.152H199.118Z" fill="#131635"/>
<path d="M16.389 1.73977C16.6124 1.77556 16.817 1.88606 16.9695 2.05321C17.122 2.22036 17.2133 2.43428 17.2285 2.66002L18.0601 14.8775L24.2647 12.4958C24.447 12.4257 24.6458 12.4106 24.8366 12.4522C25.0274 12.4939 25.2019 12.5905 25.3384 12.7301C25.475 12.8698 25.5676 13.0464 25.605 13.2381C25.6423 13.4298 25.6227 13.6282 25.5485 13.8089L16.7035 35.4137C16.6179 35.6228 16.4641 35.7969 16.267 35.9074C16.0699 36.0179 15.8411 36.0584 15.6181 36.0223C15.395 35.9862 15.1907 35.8756 15.0385 35.7085C14.8864 35.5414 14.7953 35.3277 14.7801 35.1022L13.9478 22.8829L7.74326 25.2646C7.56095 25.3347 7.36211 25.3498 7.17129 25.3082C6.98048 25.2665 6.80603 25.1699 6.66949 25.0303C6.53295 24.8906 6.44029 24.714 6.40296 24.5223C6.36563 24.3306 6.38525 24.1322 6.45941 23.9515L15.3044 2.34674C15.3899 2.13784 15.5435 1.96399 15.7402 1.85346C15.937 1.74292 16.1654 1.70219 16.3882 1.7379L16.389 1.73977Z" fill="#FCCC46"/>
</svg>
