<svg width="64" height="64" viewBox="0 0 64 64" fill="none" xmlns="http://www.w3.org/2000/svg">
<path d="M32.0002 40C36.4268 40 39.9735 36.4267 39.9735 32L40.0002 16C40.0002 11.5733 36.4268 8 32.0002 8C27.5735 8 24.0002 11.5733 24.0002 16V32C24.0002 36.4267 27.5735 40 32.0002 40ZM46.1335 32C46.1335 40 39.3602 45.6 32.0002 45.6C24.6402 45.6 17.8668 40 17.8668 32H13.3335C13.3335 41.12 20.5868 48.6133 29.3335 49.92V58.6667H34.6668V49.92C43.4135 48.64 50.6668 41.12 50.6668 32H46.1335Z" fill="white"/>
</svg>
