<svg width="24" height="24" viewBox="0 0 24 24" fill="none" xmlns="http://www.w3.org/2000/svg">
    <path d="M12.4326 5.59082H11.6086C9.64991 5.59082 8.04724 7.19349 8.04724 9.15215V14.7965C8.04724 16.7552 9.64991 18.3578 11.6086 18.3578H12.4326C14.3912 18.3578 15.9939 16.7552 15.9939 14.7965V9.15215C15.9939 7.19349 14.3912 5.59082 12.4326 5.59082Z" fill="#B0E2FF"/>
    <path d="M12.0203 7.37109C11.8371 7.37162 11.6616 7.44463 11.532 7.57416C11.4025 7.7037 11.3295 7.87924 11.329 8.06243V10.0071C11.3296 10.1902 11.4026 10.3657 11.5322 10.4951C11.6617 10.6246 11.8372 10.6976 12.0203 10.6981C12.2034 10.6976 12.3789 10.6246 12.5085 10.4951C12.638 10.3657 12.711 10.1902 12.7116 10.0071V8.06243C12.7111 7.87924 12.6381 7.7037 12.5086 7.57416C12.379 7.44463 12.2035 7.37162 12.0203 7.37109Z" fill="#B0E2FF"/>
    <path d="M11.7123 6.05896C12.7213 6.49196 13.6803 7.11329 13.792 8.68329C13.9213 10.5016 13.2486 13.9063 13.032 15.6356C12.881 16.8446 12.283 17.4046 11.4886 18.039C11.0886 18.3593 13.2443 18.3203 14.132 17.8013C14.894 17.356 15.632 16.5916 15.641 16.8333L15.7486 8.23163C15.7486 8.23163 15.4363 5.91929 12.8933 5.91829C12.8933 5.91829 10.3426 5.78729 11.7123 6.05896Z" fill="#EBF8FF"/>
    <path d="M12.9433 18.1672H11.0976C9.44094 18.1672 8.08594 16.8122 8.08594 15.1559V8.79356C8.08594 7.13723 9.44127 5.78223 11.0976 5.78223H12.9429C14.5996 5.78223 15.9546 7.13723 15.9546 8.79356V15.1559C15.9546 16.8122 14.5993 18.1672 12.9429 18.1672H12.9433Z" stroke="#00A3FF" stroke-width="0.444444" stroke-miterlimit="10" stroke-linecap="round" stroke-linejoin="round"/>
    <path d="M12.0479 10.7186H11.9919C11.8125 10.7181 11.6407 10.6467 11.5139 10.5199C11.3871 10.3931 11.3156 10.2212 11.3152 10.0419V8.02692C11.3152 7.65492 11.6199 7.35059 11.9919 7.35059H12.0479C12.4199 7.35059 12.7245 7.65492 12.7245 8.02725V10.0426C12.7245 10.4146 12.4199 10.7193 12.0479 10.7193V10.7186Z" stroke="#00A3FF" stroke-width="0.444444" stroke-miterlimit="10" stroke-linecap="round" stroke-linejoin="round"/>
    <path d="M13.7769 20.0059L12.0382 21.7445" stroke="#00A3FF" stroke-width="0.444444" stroke-miterlimit="10" stroke-linecap="round" stroke-linejoin="round"/>
    <path d="M10.2858 20.0059L12.0244 21.7445" stroke="#00A3FF" stroke-width="0.444444" stroke-miterlimit="10" stroke-linecap="round" stroke-linejoin="round"/>
    <path d="M10.2858 3.96425L12.0244 2.22559" stroke="#00A3FF" stroke-width="0.444444" stroke-miterlimit="10" stroke-linecap="round" stroke-linejoin="round"/>
    <path d="M13.7769 3.96425L12.0382 2.22559" stroke="#00A3FF" stroke-width="0.444444" stroke-miterlimit="10" stroke-linecap="round" stroke-linejoin="round"/>
</svg>