<svg width="13" height="16" viewBox="0 0 13 16" fill="none" xmlns="http://www.w3.org/2000/svg">
<path d="M12.987 0.835623C12.9635 0.694615 12.91 0.560284 12.8302 0.441687C12.7504 0.323089 12.6461 0.222982 12.5243 0.148114C12.4026 0.0732463 12.2661 0.025358 12.1243 0.00767783C11.9824 -0.0100023 11.8384 0.00293652 11.702 0.0456224L4.702 2.23362C4.49846 2.29716 4.32056 2.4241 4.19427 2.59591C4.06798 2.76772 3.99991 2.97539 4 3.18862V11.3206C3.54946 10.9827 2.99803 10.8068 2.43505 10.8215C1.87206 10.8361 1.33051 11.0404 0.898134 11.4012C0.465757 11.7621 0.167884 12.2584 0.0527782 12.8097C-0.0623279 13.3609 0.012076 13.9349 0.263935 14.4387C0.515794 14.9424 0.930353 15.3463 1.44044 15.585C1.95054 15.8237 2.52628 15.8831 3.07439 15.7537C3.62249 15.6244 4.11086 15.3137 4.46035 14.8721C4.80985 14.4305 5 13.8838 5 13.3206V6.18862L12 4.00062V9.32062C11.5495 8.98272 10.998 8.80683 10.435 8.82147C9.87206 8.8361 9.33051 9.04039 8.89813 9.40124C8.46576 9.7621 8.16788 10.2584 8.05278 10.8097C7.93767 11.3609 8.01208 11.9349 8.26394 12.4387C8.51579 12.9424 8.93035 13.3463 9.44044 13.585C9.95054 13.8237 10.5263 13.8831 11.0744 13.7537C11.6225 13.6244 12.1109 13.3137 12.4604 12.8721C12.8099 12.4305 13 11.8838 13 11.3206V1.00062C13 0.944623 12.995 0.889623 12.987 0.835623Z" fill="#A5B4CB"/>
</svg>
