<svg width="16" height="16" viewBox="0 0 16 16" fill="none" xmlns="http://www.w3.org/2000/svg">
<path d="M9.12509 7.01041H15.3855C15.5926 7.01041 15.7605 6.8425 15.7605 6.63541V0.375C15.7605 0.167906 15.5926 0 15.3855 0H13.8855C13.6784 0 13.5105 0.167906 13.5105 0.375V2.816C12.0801 1.22747 10.0024 0.233437 7.69253 0.250219C3.41422 0.281281 -0.00897026 3.73844 0.000123024 8.01684C0.00921631 12.2893 3.4755 15.75 7.75009 15.75C9.75287 15.75 11.5781 14.9902 12.9535 13.7433C13.1129 13.5988 13.1202 13.351 12.9681 13.1989L11.9067 12.1374C11.7668 11.9976 11.5422 11.99 11.3941 12.121C10.4242 12.9792 9.14862 13.5 7.75009 13.5C4.71047 13.5 2.25009 11.0401 2.25009 8C2.25009 4.96041 4.70997 2.5 7.75009 2.5C9.57809 2.5 11.1963 3.38987 12.1962 4.76041H9.12509C8.918 4.76041 8.75009 4.92831 8.75009 5.13541V6.63541C8.75009 6.8425 8.918 7.01041 9.12509 7.01041Z" fill="#00A3FF"/>
</svg>
