<svg width="14" height="16" viewBox="0 0 14 16" fill="none" xmlns="http://www.w3.org/2000/svg">
<path d="M13.986 0.845097C13.9607 0.702491 13.9031 0.566637 13.8172 0.446695C13.7312 0.326752 13.6189 0.22551 13.4877 0.149794C13.3566 0.0740768 13.2097 0.0256455 13.0569 0.00776488C12.9042 -0.0101157 12.7491 0.00296981 12.6022 0.0461397L5.06369 2.25895C4.8445 2.32321 4.65291 2.45159 4.5169 2.62534C4.3809 2.7991 4.30759 3.00913 4.30769 3.22478V11.449C3.8225 11.1072 3.22865 10.9294 2.62236 10.9442C2.01607 10.959 1.43286 11.1656 0.967221 11.5305C0.501584 11.8955 0.180798 12.3974 0.056838 12.9549C-0.0671223 13.5124 0.0130049 14.0929 0.284238 14.6024C0.55547 15.1118 1.00192 15.5203 1.55125 15.7617C2.10058 16.0031 2.72061 16.0632 3.31088 15.9324C3.90115 15.8015 4.42708 15.4873 4.80346 15.0407C5.17984 14.5941 5.38462 14.0412 5.38462 13.4717V6.25879L12.9231 4.04598V9.4263C12.4379 9.08457 11.844 8.90669 11.2377 8.92148C10.6315 8.93628 10.0482 9.14289 9.5826 9.50784C9.11697 9.87278 8.79618 10.3747 8.67222 10.9322C8.54826 11.4897 8.62839 12.0703 8.89962 12.5797C9.17085 13.0891 9.6173 13.4976 10.1666 13.739C10.716 13.9804 11.336 14.0405 11.9263 13.9097C12.5165 13.7788 13.0425 13.4646 13.4188 13.018C13.7952 12.5714 14 12.0185 14 11.449V1.01197C14 0.955333 13.9946 0.899709 13.986 0.845097Z" fill="white"/>
</svg>
