<svg width="18" height="26" viewBox="0 0 18 26" fill="none" xmlns="http://www.w3.org/2000/svg">
<path d="M3.59998 4.00006H14.4V5.80006H3.59998V4.00006Z" fill="#00A3FF"/>
<path d="M3.59998 7.59991H14.4V9.39991H3.59998V7.59991Z" fill="#00A3FF"/>
<path d="M3.59998 20.1999H8.99997V21.9999H3.59998V20.1999Z" fill="#00A3FF"/>
<path d="M3.59998 11.2H8.99997V12.9999H3.59998V11.2Z" fill="#00A3FF"/>
<path d="M16.2 25.6H1.8C1.32276 25.5995 0.865196 25.4097 0.527734 25.0723C0.190272 24.7348 0.000476529 24.2772 0 23.8V2.20002C0.000476529 1.72278 0.190272 1.26522 0.527734 0.927758C0.865196 0.590296 1.32276 0.400501 1.8 0.400024H16.2C16.6772 0.400501 17.1348 0.590296 17.4722 0.927758C17.8097 1.26522 17.9995 1.72278 18 2.20002V23.8C17.9995 24.2772 17.8097 24.7348 17.4722 25.0723C17.1348 25.4097 16.6772 25.5995 16.2 25.6ZM1.8 2.20002V23.8H16.2V2.20002H1.8Z" fill="#00A3FF"/>
</svg>
