<svg width="16" height="16" viewBox="0 0 16 16" fill="none" xmlns="http://www.w3.org/2000/svg">
    <path d="M8.00008 5.33325C9.76541 5.33325 11.3521 5.88392 12.4501 6.75992C12.8257 6.62825 13.236 6.63536 13.6069 6.77995C13.9777 6.92455 14.2846 7.19709 14.4719 7.54827C14.6593 7.89945 14.7147 8.30608 14.6283 8.69461C14.5419 9.08315 14.3193 9.42793 14.0007 9.66659C14.0007 12.0599 11.3141 13.9999 8.00075 13.9999C4.75075 13.9999 2.10408 12.1333 2.00075 9.80392L1.33408 9.66659C1.01554 9.42793 0.792926 9.08315 0.706508 8.69461C0.620089 8.30608 0.675573 7.89945 0.862923 7.54827C1.05027 7.19709 1.35712 6.92455 1.72795 6.77995C2.09879 6.63536 2.50913 6.62825 2.88475 6.75992C3.98208 5.88459 5.56875 5.33325 7.33408 5.33325H8.00008Z" stroke="#7D8DA7" stroke-width="1.33333" stroke-linecap="round" stroke-linejoin="round"/>
    <path d="M8 5.33333L8.66667 2L12.6667 2.66667" stroke="#7D8DA7" stroke-width="1.33333" stroke-linecap="round" stroke-linejoin="round"/>
    <path d="M12.6667 3.33333C13.0349 3.33333 13.3333 3.03486 13.3333 2.66667C13.3333 2.29848 13.0349 2 12.6667 2C12.2985 2 12 2.29848 12 2.66667C12 3.03486 12.2985 3.33333 12.6667 3.33333Z" stroke="#7D8DA7" stroke-width="1.33333" stroke-linecap="round" stroke-linejoin="round"/>
    <path d="M6.00008 8.99992C6.18418 8.99992 6.33341 8.85068 6.33341 8.66659C6.33341 8.48249 6.18418 8.33325 6.00008 8.33325C5.81599 8.33325 5.66675 8.48249 5.66675 8.66659C5.66675 8.85068 5.81599 8.99992 6.00008 8.99992Z" fill="#7D8DA7" stroke="#7D8DA7" stroke-width="1.33333" stroke-linecap="round" stroke-linejoin="round"/>
    <path d="M10.0001 8.99992C10.1842 8.99992 10.3334 8.85068 10.3334 8.66659C10.3334 8.48249 10.1842 8.33325 10.0001 8.33325C9.81599 8.33325 9.66675 8.48249 9.66675 8.66659C9.66675 8.85068 9.81599 8.99992 10.0001 8.99992Z" fill="#7D8DA7" stroke="#7D8DA7" stroke-width="1.33333" stroke-linecap="round" stroke-linejoin="round"/>
    <path d="M6.66675 11.3333C7.11141 11.5553 7.55541 11.6666 8.00008 11.6666C8.44475 11.6666 8.88875 11.5553 9.33341 11.3333" stroke="#7D8DA7" stroke-width="1.33333" stroke-linecap="round" stroke-linejoin="round"/>
</svg>