<svg width="20" height="20" viewBox="0 0 20 20" fill="none" xmlns="http://www.w3.org/2000/svg">
<path d="M17.8822 10.5444V9.99998V9.44842L19.2575 8.24502C19.5111 8.02156 19.6774 7.71568 19.7272 7.38143C19.7771 7.04718 19.7071 6.70608 19.5297 6.41842L17.8392 3.55317C17.7136 3.3356 17.533 3.15489 17.3155 3.02916C17.098 2.90344 16.8513 2.83712 16.6 2.83686C16.4443 2.83567 16.2895 2.85986 16.1416 2.90849L14.401 3.49587C14.1004 3.29616 13.7869 3.11669 13.4626 2.95863L13.0973 1.15353C13.0318 0.823739 12.8524 0.527498 12.5904 0.31666C12.3285 0.105822 12.0008 -0.00617904 11.6646 0.000263195H8.3123C7.97613 -0.00617904 7.64841 0.105822 7.3865 0.31666C7.12459 0.527498 6.94518 0.823739 6.87967 1.15353L6.51435 2.95863C6.18767 3.11665 5.8718 3.29612 5.56882 3.49587L3.864 2.87984C3.7145 2.84089 3.55969 2.82637 3.40556 2.83686C3.15433 2.83712 2.90759 2.90344 2.69008 3.02916C2.47257 3.15489 2.29195 3.3356 2.16634 3.55317L0.475843 6.41842C0.308646 6.70565 0.246516 7.04208 0.300095 7.37009C0.353673 7.69809 0.519626 7.99726 0.769531 8.21636L2.12336 9.45558V10.5515L0.769531 11.7549C0.512567 11.9756 0.342075 12.2801 0.288311 12.6145C0.234547 12.9489 0.300988 13.2915 0.475843 13.5815L2.16634 16.4468C2.29195 16.6644 2.47257 16.8451 2.69008 16.9708C2.90759 17.0965 3.15433 17.1628 3.40556 17.1631C3.56125 17.1643 3.71609 17.1401 3.864 17.0915L5.60464 16.5041C5.90516 16.7038 6.21864 16.8833 6.54301 17.0413L6.90833 18.8464C6.97383 19.1762 7.15324 19.4725 7.41515 19.6833C7.67706 19.8941 8.00478 20.0061 8.34095 19.9997H11.7219C12.0581 20.0061 12.3858 19.8941 12.6477 19.6833C12.9097 19.4725 13.0891 19.1762 13.1546 18.8464L13.5199 17.0413C13.8466 16.8833 14.1624 16.7038 14.4654 16.5041L16.1989 17.0915C16.3468 17.1401 16.5016 17.1643 16.6573 17.1631C16.9086 17.1628 17.1553 17.0965 17.3728 16.9708C17.5903 16.8451 17.7709 16.6644 17.8966 16.4468L19.5297 13.5815C19.6969 13.2943 19.7591 12.9579 19.7055 12.6299C19.6519 12.3019 19.486 12.0027 19.2361 11.7836L17.8822 10.5444ZM16.6 15.7305L14.1431 14.8996C13.5679 15.3867 12.9106 15.7675 12.2019 16.0242L11.6933 18.5957H8.3123L7.80372 16.0528C7.1006 15.7889 6.44682 15.4088 5.86967 14.9282L3.40556 15.7305L1.71506 12.8652L3.66343 11.1461C3.53098 10.4046 3.53098 9.64551 3.66343 8.90402L1.71506 7.13473L3.40556 4.26948L5.86251 5.10041C6.43766 4.61324 7.095 4.23242 7.80372 3.9758L8.3123 1.40424H11.6933L12.2019 3.94714C12.905 4.21105 13.5588 4.59121 14.1359 5.07175L16.6 4.26948L18.2905 7.13473L16.3422 8.85388C16.4746 9.59537 16.4746 10.3545 16.3422 11.0959L18.2905 12.8652L16.6 15.7305Z" fill="#999999"/>
<path d="M10.0028 14.2979C9.15273 14.2979 8.32178 14.0458 7.615 13.5736C6.90822 13.1013 6.35735 12.4301 6.03205 11.6447C5.70676 10.8594 5.62164 9.99526 5.78748 9.16155C5.95331 8.32784 6.36265 7.56204 6.96371 6.96097C7.56478 6.3599 8.33059 5.95057 9.1643 5.78473C9.998 5.6189 10.8622 5.70401 11.6475 6.02931C12.4328 6.3546 13.1041 6.90547 13.5763 7.61225C14.0486 8.31903 14.3006 9.14998 14.3006 10C14.3064 10.566 14.1991 11.1275 13.9852 11.6515C13.7712 12.1756 13.4549 12.6516 13.0546 13.0519C12.6544 13.4521 12.1783 13.7685 11.6543 13.9824C11.1302 14.1964 10.5688 14.3036 10.0028 14.2979ZM10.0028 7.13477C9.62409 7.12595 9.24755 7.19404 8.89594 7.33491C8.54432 7.47577 8.22493 7.6865 7.95709 7.95434C7.68925 8.22219 7.47852 8.54157 7.33765 8.89319C7.19678 9.24481 7.1287 9.62134 7.13752 10C7.1287 10.3787 7.19678 10.7552 7.33765 11.1069C7.47852 11.4585 7.68925 11.7779 7.95709 12.0457C8.22493 12.3135 8.54432 12.5243 8.89594 12.6651C9.24755 12.806 9.62409 12.8741 10.0028 12.8653C10.3815 12.8741 10.758 12.806 11.1096 12.6651C11.4612 12.5243 11.7806 12.3135 12.0484 12.0457C12.3163 11.7779 12.527 11.4585 12.6679 11.1069C12.8088 10.7552 12.8768 10.3787 12.868 10C12.8768 9.62134 12.8088 9.24481 12.6679 8.89319C12.527 8.54157 12.3163 8.22219 12.0484 7.95434C11.7806 7.6865 11.4612 7.47577 11.1096 7.33491C10.758 7.19404 10.3815 7.12595 10.0028 7.13477Z" fill="#999999"/>
</svg>
