<svg width="32" height="32" viewBox="0 0 32 32" fill="none" xmlns="http://www.w3.org/2000/svg">
<circle cx="16" cy="16" r="16" fill="white" fill-opacity="1"/>
<path d="M10 16C10 17.1027 10.8973 18 12 18C12.5293 18 13.008 17.79 13.366 17.4533L17.36 19.736C17.348 19.8227 17.3333 19.9093 17.3333 20C17.3333 21.1027 18.2307 22 19.3333 22C20.436 22 21.3333 21.1027 21.3333 20C21.3333 18.8973 20.436 18 19.3333 18C18.804 18 18.3253 18.21 17.9673 18.5467L13.9733 16.2647C13.9853 16.1773 14 16.0907 14 16C14 15.9093 13.9853 15.8227 13.9733 15.7353L17.9673 13.4533C18.3253 13.79 18.804 14 19.3333 14C20.436 14 21.3333 13.1027 21.3333 12C21.3333 10.8973 20.436 10 19.3333 10C18.2307 10 17.3333 10.8973 17.3333 12C17.3333 12.0907 17.348 12.1773 17.36 12.2647L13.366 14.5467C12.9973 14.1965 12.5085 14.0008 12 14C10.8973 14 10 14.8973 10 16Z" fill="#131635"/>
</svg>
