<svg width="18" height="20" viewBox="0 0 18 20" fill="none" xmlns="http://www.w3.org/2000/svg">
<path d="M15 13.8776C14.2875 13.8776 13.63 14.1327 13.115 14.5587L7.935 10.7347C8.02174 10.2489 8.02174 9.7511 7.935 9.26531L13.115 5.44133C13.63 5.86735 14.2875 6.12245 15 6.12245C16.655 6.12245 18 4.75 18 3.06122C18 1.37245 16.655 0 15 0C13.345 0 12 1.37245 12 3.06122C12 3.35714 12.04 3.64031 12.1175 3.91071L7.1975 7.54592C6.4675 6.55867 5.3075 5.91837 4 5.91837C1.79 5.91837 0 7.7449 0 10C0 12.2551 1.79 14.0816 4 14.0816C5.3075 14.0816 6.4675 13.4413 7.1975 12.4541L12.1175 16.0893C12.04 16.3597 12 16.6454 12 16.9388C12 18.6276 13.345 20 15 20C16.655 20 18 18.6276 18 16.9388C18 15.25 16.655 13.8776 15 13.8776ZM15 1.73469C15.7175 1.73469 16.3 2.32908 16.3 3.06122C16.3 3.79337 15.7175 4.38776 15 4.38776C14.2825 4.38776 13.7 3.79337 13.7 3.06122C13.7 2.32908 14.2825 1.73469 15 1.73469ZM4 12.2449C2.7875 12.2449 1.8 11.2372 1.8 10C1.8 8.76276 2.7875 7.7551 4 7.7551C5.2125 7.7551 6.2 8.76276 6.2 10C6.2 11.2372 5.2125 12.2449 4 12.2449ZM15 18.2653C14.2825 18.2653 13.7 17.6709 13.7 16.9388C13.7 16.2066 14.2825 15.6122 15 15.6122C15.7175 15.6122 16.3 16.2066 16.3 16.9388C16.3 17.6709 15.7175 18.2653 15 18.2653Z" fill="#131635"/>
</svg>
