<svg width="16" height="16" viewBox="0 0 16 16" fill="none" xmlns="http://www.w3.org/2000/svg">
<path d="M7.33317 14.0002H4.6665V12.6669H7.33317V14.0002ZM10.3332 12.6669H11.3332V14.0002H8.6665V12.6669H8.79984L7.8665 8.60024L6.19984 9.00025C6.13317 9.33358 5.99984 9.60025 5.8665 9.86691C5.2665 10.8669 3.99984 11.1336 2.99984 10.5336C1.99984 9.93358 1.73317 8.66691 2.33317 7.66691C2.93317 6.66691 4.19984 6.40024 5.19984 7.00025C5.4665 7.13358 5.6665 7.40024 5.79984 7.60024L7.4665 7.20024L7.0665 5.53358C6.79984 5.46691 6.53317 5.33358 6.2665 5.20024C5.33317 4.60024 4.99984 3.33358 5.59984 2.33358C6.19984 1.33358 7.4665 1.06691 8.4665 1.66691C9.4665 2.26691 9.73317 3.53358 9.13317 4.53358C8.99984 4.80025 8.73317 5.00024 8.53317 5.13358L10.3332 12.6669ZM4.6665 7.86691C4.19984 7.53358 3.53317 7.73358 3.19984 8.20024C2.8665 8.66691 3.0665 9.33358 3.53317 9.60024C3.99984 9.93358 4.6665 9.80024 4.99984 9.26691C5.2665 8.80024 5.13317 8.13358 4.6665 7.86691ZM8.2665 4.00025C8.59984 3.53358 8.39984 2.86691 7.93317 2.53358C7.4665 2.20024 6.79984 2.40025 6.4665 2.86691C6.19984 3.33358 6.33317 4.00024 6.8665 4.33358C7.33317 4.60024 7.99984 4.46691 8.2665 4.00025ZM8.53317 7.53358C8.39984 7.46691 8.2665 7.46691 8.19984 7.60024C8.13317 7.73358 8.13317 7.86691 8.2665 7.93358C8.39984 8.00024 8.53317 8.00025 8.59984 7.86691C8.73317 7.73358 8.6665 7.60024 8.53317 7.53358ZM13.9998 5.66691L9.6665 6.66691L9.99984 8.13358L14.9998 6.93358L15.3332 6.46691L13.9998 5.66691ZM15.3332 12.6669H12.6665V14.0002H15.3332V12.6669ZM3.33317 12.6669H0.666504V14.0002H3.33317V12.6669Z" fill="#00A3FF"/>
</svg>
