<svg width="18" height="18" viewBox="0 0 18 18" fill="none" xmlns="http://www.w3.org/2000/svg">
<path d="M17.3164 7.3799C16.5199 3.49025 13.0548 0.666992 9.07738 0.666992C4.43976 0.666992 0.666748 4.43974 0.666748 9.07705C0.666748 13.0542 3.4902 16.5191 7.38012 17.3155C7.51638 17.3445 7.65774 17.3387 7.79118 17.2987C7.92463 17.2587 8.04589 17.1859 8.1438 17.0868L17.0868 8.14437C17.287 7.94421 17.3728 7.65827 17.3164 7.3799ZM8.23632 14.1231C8.23246 12.7828 8.63253 11.4725 9.38437 10.3629C9.62664 10.0054 9.90204 9.67143 10.2069 9.36551C10.5125 9.06113 10.8459 8.78604 11.2027 8.54385C11.5634 8.30106 11.9464 8.09323 12.3466 7.92319C12.7511 7.75246 13.1759 7.62042 13.609 7.53128C14.2096 7.41199 14.8235 7.37409 15.4341 7.41858L8.26071 14.5915C8.24978 14.4359 8.23632 14.2803 8.23632 14.1231ZM2.34887 9.07705C2.34887 5.36737 5.36745 2.349 9.07738 2.349C11.524 2.349 13.7268 3.68536 14.9051 5.71723C14.3562 5.71923 13.8089 5.775 13.2709 5.88375C12.7301 5.99476 12.1994 6.1596 11.6906 6.37406C11.1906 6.58675 10.7121 6.84667 10.2616 7.1503C9.81331 7.45391 9.3953 7.79872 9.01767 8.17633C8.64003 8.55394 8.29603 8.97108 7.99073 9.42102C7.68879 9.86927 7.42722 10.3495 7.21527 10.849C6.7785 11.8853 6.55372 12.9985 6.55419 14.1231C6.55419 14.536 6.59456 14.9464 6.65428 15.3518C4.10586 14.3653 2.34887 11.8826 2.34887 9.07705Z" fill="white"/>
</svg>
