<svg width="32" height="32" viewBox="0 0 32 32" fill="none" xmlns="http://www.w3.org/2000/svg">
<path d="M29.3065 13.4074C28.0321 7.18396 22.4878 2.66675 16.124 2.66675C8.70381 2.66675 2.66699 8.70315 2.66699 16.1228C2.66699 22.4862 7.18451 28.0301 13.4084 29.3044C13.6264 29.3507 13.8526 29.3415 14.0661 29.2775C14.2796 29.2135 14.4736 29.0969 14.6303 28.9384L28.9391 14.6306C29.2594 14.3103 29.3967 13.8528 29.3065 13.4074ZM14.7783 24.1965C14.7721 22.0521 15.4122 19.9556 16.6152 18.1803C17.0028 17.6082 17.4435 17.0739 17.9313 16.5844C18.4202 16.0974 18.9536 15.6572 19.5246 15.2697C20.1017 14.8813 20.7145 14.5487 21.3547 14.2767C22.002 14.0035 22.6816 13.7922 23.3746 13.6496C24.3355 13.4588 25.3177 13.3981 26.2948 13.4693L14.8173 24.946C14.7998 24.6971 14.7783 24.4481 14.7783 24.1965ZM5.35839 16.1228C5.35839 10.1874 10.1881 5.35797 16.124 5.35797C20.0386 5.35797 23.563 7.49614 25.4484 10.7471C24.5702 10.7503 23.6944 10.8396 22.8337 11.0136C21.9684 11.1912 21.1192 11.4549 20.3051 11.798C19.5052 12.1384 18.7396 12.5542 18.0188 13.04C17.3015 13.5258 16.6327 14.0775 16.0285 14.6817C15.4242 15.2859 14.8738 15.9533 14.3854 16.6732C13.9023 17.3904 13.4837 18.1587 13.1446 18.958C12.4458 20.6161 12.0861 22.3972 12.0869 24.1965C12.0869 24.8572 12.1515 25.5138 12.247 26.1624C8.16957 24.584 5.35839 20.6118 5.35839 16.1228Z" fill="#00A3FF"/>
</svg>
