<svg width="48" height="48" viewBox="0 0 48 48" fill="none" xmlns="http://www.w3.org/2000/svg">
    <rect x="0.5" y="0.5" width="47" height="47" rx="7.5" stroke="#E5EAF4"/>
    <path d="M34.0696 11.996C33.7486 12.0194 33.4335 12.0947 33.1366 12.219H33.1326C32.8476 12.332 31.4926 12.902 29.4326 13.766L22.0506 16.875C16.7536 19.105 11.5466 21.301 11.5466 21.301L11.6086 21.277C11.6086 21.277 11.2496 21.395 10.8746 21.652C10.643 21.7995 10.4436 21.9924 10.2886 22.219C10.1046 22.489 9.95663 22.902 10.0116 23.329C10.1016 24.051 10.5696 24.484 10.9056 24.723C11.2456 24.965 11.5696 25.078 11.5696 25.078H11.5776L16.4606 26.723C16.6796 27.426 17.9486 31.598 18.2536 32.559C18.4336 33.133 18.6086 33.492 18.8276 33.766C18.9336 33.906 19.0576 34.023 19.2066 34.117C19.2841 34.1621 19.3667 34.1977 19.4526 34.223L19.4026 34.211C19.4176 34.215 19.4296 34.227 19.4406 34.231C19.4806 34.242 19.5076 34.246 19.5586 34.254C20.3316 34.488 20.9526 34.008 20.9526 34.008L20.9876 33.98L23.8706 31.355L28.7026 35.062L28.8126 35.109C29.8196 35.551 30.8396 35.305 31.3786 34.871C31.9216 34.434 32.1326 33.875 32.1326 33.875L32.1676 33.785L35.9016 14.656C36.0076 14.184 36.0346 13.742 35.9176 13.313C35.797 12.8789 35.5184 12.5055 35.1366 12.266C34.8161 12.0712 34.4443 11.9771 34.0696 11.996ZM33.9686 14.046C33.9646 14.109 33.9766 14.102 33.9486 14.223V14.234L30.2496 33.164C30.2336 33.191 30.2066 33.25 30.1326 33.309C30.0546 33.371 29.9926 33.41 29.6676 33.281L23.7576 28.75L20.1876 32.004L20.9376 27.214L30.5936 18.214C30.9916 17.844 30.8586 17.766 30.8586 17.766C30.8866 17.312 30.2576 17.633 30.2576 17.633L18.0816 25.176L18.0776 25.156L12.2416 23.191V23.187L12.2266 23.184C12.2369 23.1806 12.2469 23.1766 12.2566 23.172L12.2886 23.156L12.3196 23.145C12.3196 23.145 17.5306 20.949 22.8276 18.719C25.4796 17.602 28.1516 16.477 30.2066 15.609C32.2616 14.746 33.7806 14.113 33.8666 14.079C33.9486 14.047 33.9096 14.047 33.9686 14.047V14.046Z" fill="#131635"/>
</svg>
