<svg width="32" height="32" viewBox="0 0 32 32" fill="none" xmlns="http://www.w3.org/2000/svg">
<path d="M26.0699 3.99604C25.7489 4.0194 25.4338 4.09471 25.1369 4.21904H25.1329C24.8479 4.33204 23.4929 4.90204 21.4329 5.76604L14.0509 8.87504C8.75387 11.105 3.54687 13.301 3.54687 13.301L3.60887 13.277C3.60887 13.277 3.24987 13.395 2.87487 13.652C2.6432 13.7995 2.44385 13.9924 2.28887 14.219C2.10487 14.489 1.95687 14.902 2.01187 15.329C2.10187 16.051 2.56987 16.484 2.90587 16.723C3.24587 16.965 3.56987 17.078 3.56987 17.078H3.57787L8.46088 18.723C8.67987 19.426 9.94887 23.598 10.2539 24.559C10.4339 25.133 10.6089 25.492 10.8279 25.766C10.9339 25.906 11.0579 26.023 11.2069 26.117C11.2843 26.1621 11.3669 26.1977 11.4529 26.223L11.4029 26.211C11.4179 26.215 11.4299 26.227 11.4409 26.231C11.4809 26.242 11.5079 26.246 11.5589 26.254C12.3319 26.488 12.9529 26.008 12.9529 26.008L12.9879 25.98L15.8709 23.355L20.7029 27.062L20.8129 27.109C21.8199 27.551 22.8399 27.305 23.3789 26.871C23.9219 26.434 24.1329 25.875 24.1329 25.875L24.1679 25.785L27.9019 6.65604C28.0079 6.18404 28.0349 5.74204 27.9179 5.31304C27.7972 4.87887 27.5187 4.50545 27.1369 4.26604C26.8163 4.07116 26.4446 3.97709 26.0699 3.99604ZM25.9689 6.04604C25.9649 6.10904 25.9769 6.10204 25.9489 6.22304V6.23404L22.2499 25.164C22.2339 25.191 22.2069 25.25 22.1329 25.309C22.0549 25.371 21.9929 25.41 21.6679 25.281L15.7579 20.75L12.1879 24.004L12.9379 19.214L22.5939 10.214C22.9919 9.84404 22.8589 9.76604 22.8589 9.76604C22.8869 9.31204 22.2579 9.63304 22.2579 9.63304L10.0819 17.176L10.0779 17.156L4.24187 15.191V15.187L4.22687 15.184C4.23711 15.1806 4.24712 15.1766 4.25687 15.172L4.28887 15.156L4.31987 15.145C4.31987 15.145 9.53087 12.949 14.8279 10.719C17.4799 9.60204 20.1519 8.47704 22.2069 7.60904C24.2619 6.74604 25.7809 6.11304 25.8669 6.07904C25.9489 6.04704 25.9099 6.04704 25.9689 6.04704V6.04604Z" fill="#131635"/>
</svg>
