<svg width="16" height="16" viewBox="0 0 16 16" fill="none" xmlns="http://www.w3.org/2000/svg">
    <path d="M13.0351 1.99802C12.8745 2.0097 12.717 2.04736 12.5686 2.10952H12.5666C12.4241 2.16602 11.7466 2.45102 10.7166 2.88302L7.02556 4.43752C4.37706 5.55252 1.77356 6.65052 1.77356 6.65052L1.80456 6.63852C1.80456 6.63852 1.62506 6.69752 1.43756 6.82602C1.32172 6.89973 1.22205 6.99618 1.14456 7.10952C1.05256 7.24452 0.978559 7.45102 1.00606 7.66452C1.05106 8.02552 1.28506 8.24202 1.45306 8.36152C1.62306 8.48252 1.78506 8.53902 1.78506 8.53902H1.78906L4.23056 9.36152C4.34006 9.71302 4.97456 11.799 5.12706 12.2795C5.21706 12.5665 5.30456 12.746 5.41406 12.883C5.46706 12.953 5.52906 13.0115 5.60356 13.0585C5.64229 13.081 5.68358 13.0988 5.72656 13.1115L5.70156 13.1055C5.70906 13.1075 5.71506 13.1135 5.72056 13.1155C5.74056 13.121 5.75406 13.123 5.77956 13.127C6.16606 13.244 6.47656 13.004 6.47656 13.004L6.49406 12.99L7.93556 11.6775L10.3516 13.531L10.4066 13.5545C10.9101 13.7755 11.4201 13.6525 11.6896 13.4355C11.9611 13.217 12.0666 12.9375 12.0666 12.9375L12.0841 12.8925L13.9511 3.32802C14.0041 3.09202 14.0176 2.87102 13.9591 2.65652C13.8987 2.43943 13.7594 2.25273 13.5686 2.13302C13.4083 2.03558 13.2224 1.98855 13.0351 1.99802ZM12.9846 3.02302C12.9826 3.05452 12.9886 3.05102 12.9746 3.11152V3.11702L11.1251 12.582C11.1171 12.5955 11.1036 12.625 11.0666 12.6545C11.0276 12.6855 10.9966 12.705 10.8341 12.6405L7.87906 10.375L6.09406 12.002L6.46906 9.60702L11.2971 5.10702C11.4961 4.92202 11.4296 4.88302 11.4296 4.88302C11.4436 4.65602 11.1291 4.81652 11.1291 4.81652L5.04106 8.58802L5.03906 8.57802L2.12106 7.59552V7.59352L2.11356 7.59202C2.11867 7.59032 2.12368 7.58832 2.12856 7.58602L2.14456 7.57802L2.16006 7.57252C2.16006 7.57252 4.76556 6.47452 7.41406 5.35952C8.74006 4.80102 10.0761 4.23852 11.1036 3.80452C12.1311 3.37302 12.8906 3.05652 12.9336 3.03952C12.9746 3.02352 12.9551 3.02352 12.9846 3.02352V3.02302Z" fill="#7D8DA7"/>
</svg>