<svg width="32" height="28" viewBox="0 0 32 28" fill="none" xmlns="http://www.w3.org/2000/svg">
<rect x="1.25" y="1.25" width="29.5" height="25.5" rx="4.75" stroke="#0177FB" stroke-width="2.5"/>
<path d="M12.5712 19.5714C12.5712 19.2683 12.6916 18.9776 12.9059 18.7632C13.1202 18.5489 13.4109 18.4285 13.714 18.4285H14.8569V9.2857H11.4283V10.4286C11.4283 10.7317 11.3079 11.0223 11.0936 11.2367C10.8792 11.451 10.5886 11.5714 10.2855 11.5714C9.98236 11.5714 9.69167 11.451 9.47734 11.2367C9.26302 11.0223 9.14261 10.7317 9.14261 10.4286V8.14285C9.14261 7.83975 9.26302 7.54906 9.47734 7.33473C9.69167 7.12041 9.98236 7 10.2855 7H21.714C22.0171 7 22.3078 7.12041 22.5221 7.33473C22.7364 7.54906 22.8568 7.83975 22.8568 8.14285V10.4286C22.8568 10.7317 22.7364 11.0223 22.5221 11.2367C22.3078 11.451 22.0171 11.5714 21.714 11.5714C21.4109 11.5714 21.1202 11.451 20.9058 11.2367C20.6915 11.0223 20.5711 10.7317 20.5711 10.4286V9.2857H17.1426V18.4285H18.2854C18.5885 18.4285 18.8792 18.5489 19.0935 18.7632C19.3079 18.9776 19.4283 19.2683 19.4283 19.5714C19.4283 19.8745 19.3079 20.1651 19.0935 20.3795C18.8792 20.5938 18.5885 20.7142 18.2854 20.7142H13.714C13.4109 20.7142 13.1202 20.5938 12.9059 20.3795C12.6916 20.1651 12.5712 19.8745 12.5712 19.5714Z" fill="#0177FB"/>
</svg>
