<svg width="18" height="18" viewBox="0 0 18 18" fill="none" xmlns="http://www.w3.org/2000/svg">
<path d="M11.5001 6.08398L9.62506 6.08398L9.62506 11.9173L10.0417 11.9173C10.2075 11.9173 10.3665 11.9832 10.4837 12.1004C10.6009 12.2176 10.6667 12.3766 10.6667 12.5423C10.6667 12.7081 10.6009 12.867 10.4837 12.9843C10.3665 13.1015 10.2075 13.1673 10.0417 13.1673L7.95839 13.1673C7.79263 13.1673 7.63366 13.1015 7.51645 12.9843C7.39924 12.867 7.33339 12.7081 7.33339 12.5423C7.33339 12.3766 7.39924 12.2176 7.51645 12.1004C7.63366 11.9832 7.79263 11.9173 7.95839 11.9173L8.37506 11.9173L8.37506 6.08398L6.50006 6.08398L6.50006 6.70898C6.50006 6.87474 6.43421 7.03372 6.317 7.15093C6.19979 7.26814 6.04082 7.33398 5.87506 7.33398C5.7093 7.33398 5.55033 7.26814 5.43312 7.15093C5.31591 7.03372 5.25006 6.87474 5.25006 6.70898L5.25006 5.45898C5.25006 5.29322 5.31591 5.13425 5.43312 5.01704C5.55033 4.89983 5.7093 4.83398 5.87506 4.83398L12.1251 4.83398C12.2908 4.83398 12.4498 4.89983 12.567 5.01704C12.6842 5.13425 12.7501 5.29322 12.7501 5.45898L12.7501 6.70898C12.7501 6.87474 12.6842 7.03372 12.567 7.15093C12.4498 7.26814 12.2908 7.33398 12.1251 7.33398C11.9593 7.33398 11.8003 7.26814 11.6831 7.15093C11.5659 7.03372 11.5001 6.87474 11.5001 6.70898L11.5001 6.08398Z" fill="white"/>
<path d="M1.49921 4.50016C1.49921 3.70447 1.81529 2.94137 2.37793 2.37873C2.94057 1.81609 3.70368 1.5 4.49937 1.5H13.4999C14.2955 1.5 15.0587 1.81609 15.6213 2.37873C16.1839 2.94137 16.5 3.70447 16.5 4.50016V13.5007C16.5 14.2963 16.1839 15.0594 15.6213 15.6221C15.0587 16.1847 14.2955 16.5008 13.4999 16.5008H4.49937C3.70368 16.5008 2.94057 16.1847 2.37793 15.6221C1.81529 15.0594 1.49921 14.2963 1.49921 13.5007V4.50016Z" stroke="white" stroke-width="1.67" stroke-linecap="round" stroke-linejoin="round"/>
</svg>
