<svg width="48" height="48" viewBox="0 0 48 48" fill="none" xmlns="http://www.w3.org/2000/svg">
    <rect x="0.5" y="0.5" width="47" height="47" rx="7.5" stroke="#E5EAF4"/>
    <path d="M24.5053 12.0203C25.7607 12 27.0088 12.012 28.2556 12C28.3311 13.5308 28.8591 15.0902 29.9339 16.1725C31.0066 17.2818 32.5238 17.7896 34 17.9613V21.9883C32.6166 21.941 31.2267 21.641 29.9713 21.02C29.4246 20.762 28.9153 20.4297 28.4167 20.0899C28.4102 23.0121 28.4282 25.9305 28.3987 28.8406C28.3239 30.2387 27.8815 31.63 27.1016 32.7821C25.847 34.7 23.6694 35.9503 21.4327 35.9893C20.0608 36.071 18.6904 35.681 17.5213 34.9625C15.584 33.7714 14.2207 31.591 14.0222 29.2509C13.9971 28.7553 13.9933 28.2588 14.0106 27.7628C14.1833 25.86 15.0862 24.0396 16.4876 22.8013C18.076 21.359 20.3011 20.672 22.3845 21.0785C22.4039 22.5598 22.3471 24.0396 22.3471 25.521C21.3953 25.2 20.2831 25.29 19.4515 25.8922C18.8431 26.3101 18.3833 26.925 18.1429 27.6421C17.9443 28.1491 18.0012 28.7124 18.0127 29.2509C18.2407 30.892 19.7544 32.2713 21.3701 32.1221C22.4413 32.1101 23.4679 31.462 24.0262 30.5132C24.2068 30.181 24.4089 29.8412 24.4197 29.4504C24.5139 27.6616 24.4765 25.8802 24.488 24.0914C24.496 20.0599 24.4765 16.0397 24.506 12.021L24.5053 12.0203Z" fill="#131635"/>
</svg>