<svg width="32" height="32" viewBox="0 0 32 32" fill="none" xmlns="http://www.w3.org/2000/svg">
<path d="M15.9737 0.0247513C17.5638 0 19.1449 0.0146674 20.724 0C20.8197 1.87102 21.4886 3.77687 22.85 5.09969C24.2086 6.45551 26.1305 7.07613 28.0003 7.28606V12.2079C26.248 12.1501 24.4875 11.7835 22.8974 11.0244C22.2048 10.7091 21.5597 10.303 20.9282 9.88769C20.92 13.4592 20.9427 17.0262 20.9054 20.583C20.8106 22.2918 20.2502 23.9923 19.2624 25.4004C17.6732 27.7444 14.9149 29.2726 12.0818 29.3202C10.344 29.4202 8.60813 28.9435 7.12736 28.0652C4.67337 26.6095 2.94656 23.9446 2.69506 21.0845C2.66338 20.4787 2.65852 19.8719 2.68048 19.2657C2.89918 16.94 4.04279 14.7151 5.8179 13.2016C7.82993 11.4388 10.6484 10.5991 13.2874 11.0959C13.312 12.9064 13.24 14.7151 13.24 16.5256C12.0344 16.1333 10.6256 16.2433 9.57222 16.9794C8.80153 17.4902 8.21912 18.2416 7.91467 19.1181C7.66317 19.7378 7.73516 20.4263 7.74974 21.0845C8.0386 23.0902 9.95586 24.7761 12.0025 24.5936C13.3594 24.579 14.6597 23.7869 15.3668 22.6273C15.5956 22.2212 15.8516 21.8059 15.8653 21.3283C15.9847 19.1419 15.9373 16.9647 15.9519 14.7784C15.9619 9.85103 15.9373 4.93743 15.9746 0.025668L15.9737 0.0247513Z" fill="#25F4EE"/>
<path d="M17.3067 2.69126C18.8968 2.6665 20.4779 2.68117 22.057 2.6665C22.1527 4.53752 22.8216 6.44337 24.183 7.76619C25.5416 9.12202 27.4635 9.74263 29.3333 9.95256V14.8744C27.581 14.8167 25.8205 14.45 24.2304 13.6909C23.5378 13.3756 22.8927 12.9695 22.2612 12.5542C22.253 16.1257 22.2757 19.6927 22.2384 23.2495C22.1436 24.9583 21.5832 26.6588 20.5954 28.0669C19.0062 30.4109 16.2479 31.9391 13.4148 31.9867C11.6771 32.0867 9.94113 31.61 8.46036 30.7318C6.00638 29.276 4.27957 26.6111 4.02807 23.751C3.99639 23.1452 3.99152 22.5384 4.01349 21.9322C4.23219 19.6065 5.3758 17.3816 7.1509 15.8681C9.16293 14.1053 11.9814 13.2656 14.6204 13.7624C14.645 15.5729 14.573 17.3816 14.573 19.1921C13.3674 18.7998 11.9586 18.9098 10.9052 19.6459C10.1345 20.1567 9.55212 20.9081 9.24768 21.7846C8.99617 22.4043 9.06816 23.0928 9.08274 23.751C9.37161 25.7567 11.2889 27.4426 13.3355 27.2601C14.6924 27.2455 15.9927 26.4534 16.6998 25.2938C16.9286 24.8877 17.1846 24.4724 17.1983 23.9948C17.3177 21.8084 17.2703 19.6312 17.2849 17.4449C17.2949 12.5175 17.2703 7.60393 17.3076 2.69217L17.3067 2.69126Z" fill="#EE3559"/>
<path d="M16.6741 1.35825C18.3479 1.3335 20.0121 1.34816 21.6744 1.3335C21.7751 3.20451 22.4792 5.11036 23.9122 6.43318C25.3424 7.78901 27.3654 8.40962 29.3337 8.61955V13.5414C27.4891 13.4836 25.6359 13.117 23.9621 12.3579C23.2331 12.0426 22.554 11.6365 21.8893 11.2212C21.8806 14.7927 21.9046 18.3597 21.8653 21.9165C21.7655 23.6253 21.1756 25.3258 20.1358 26.7338C18.463 29.0779 15.5595 30.6061 12.5773 30.6537C10.7481 30.7536 8.92082 30.277 7.36211 29.3987C4.77897 27.943 2.96128 25.2781 2.69654 22.418C2.66319 21.8122 2.65807 21.2054 2.68119 20.5992C2.9114 18.2735 4.1152 16.0486 5.98373 14.5351C8.10166 12.7723 11.0685 11.9326 13.8463 12.4294C13.8722 14.2399 13.7965 16.0486 13.7965 17.8591C12.5274 17.4668 11.0445 17.5768 9.93566 18.3129C9.1244 18.8237 8.51133 19.5751 8.19086 20.4516C7.92612 21.0713 8.0019 21.7598 8.01725 22.418C8.32132 24.4237 10.3395 26.1096 12.4939 25.9271C13.9221 25.9125 15.2909 25.1204 16.0352 23.9608C16.276 23.5547 16.5455 23.1394 16.5599 22.6618C16.6856 20.4754 16.6357 18.2982 16.6511 16.1119C16.6616 11.1845 16.6357 6.27093 16.675 1.35916L16.6741 1.35825Z" fill="#131635"/>
</svg>
