<svg width="16" height="16" viewBox="0 0 16 16" fill="none" xmlns="http://www.w3.org/2000/svg">
    <path d="M8.35389 0.0135C9.22639 0 10.0939 0.008 10.9604 0C11.0129 1.0205 11.3799 2.06 12.1269 2.7815C12.8724 3.521 13.9269 3.8595 14.9529 3.974V6.6585C13.9914 6.627 13.0254 6.427 12.1529 6.013C11.7729 5.841 11.4189 5.6195 11.0724 5.393C11.0679 7.341 11.0804 9.2865 11.0599 11.2265C11.0079 12.1585 10.7004 13.086 10.1584 13.854C9.28639 15.1325 7.77289 15.966 6.21839 15.992C5.26489 16.0465 4.31239 15.7865 3.49989 15.3075C2.15339 14.5135 1.20589 13.06 1.06789 11.5C1.05051 11.1696 1.04784 10.8386 1.05989 10.508C1.17989 9.2395 1.80739 8.026 2.78139 7.2005C3.88539 6.239 5.43189 5.781 6.87989 6.052C6.89339 7.0395 6.85389 8.026 6.85389 9.0135C6.19239 8.7995 5.41939 8.8595 4.84139 9.261C4.41851 9.53958 4.09894 9.94945 3.93189 10.4275C3.79389 10.7655 3.83339 11.141 3.84139 11.5C3.99989 12.594 5.05189 13.5135 6.17489 13.414C6.91939 13.406 7.63289 12.974 8.02089 12.3415C8.14639 12.12 8.28689 11.8935 8.29439 11.633C8.35989 10.4405 8.33389 9.253 8.34189 8.0605C8.34739 5.373 8.33389 2.693 8.35439 0.014L8.35389 0.0135Z" fill="#7D8DA7"/>
</svg>