<svg width="24" height="24" viewBox="0 0 24 24" fill="none" xmlns="http://www.w3.org/2000/svg">
    <path d="M11.98 0.0185635C13.1726 0 14.3584 0.0110006 15.5428 0C15.6145 1.40326 16.1162 2.83265 17.1372 3.82477C18.1562 4.84163 19.5976 5.3071 21 5.46454V9.15593C19.6858 9.11261 18.3654 8.8376 17.1728 8.26832C16.6534 8.0318 16.1695 7.72722 15.6959 7.41577C15.6897 10.0944 15.7068 12.7696 15.6788 15.4373C15.6077 16.7188 15.1874 17.9942 14.4466 19.0503C13.2546 20.8083 11.1859 21.9544 9.0611 21.9902C7.75779 22.0651 6.45585 21.7076 5.34527 21.0489C3.50478 19.9571 2.20968 17.9585 2.02105 15.8133C1.99729 15.359 1.99364 14.9039 2.01012 14.4493C2.17414 12.705 3.03185 11.0363 4.36318 9.90122C5.8722 8.57908 7.98606 7.9493 9.96528 8.32194C9.98373 9.67983 9.92974 11.0363 9.92974 12.3942C9.02556 12.1 7.96897 12.1825 7.17892 12.7346C6.6009 13.1176 6.16409 13.6812 5.93576 14.3386C5.74713 14.8034 5.80112 15.3197 5.81206 15.8133C6.0287 17.3177 7.46665 18.5821 9.00164 18.4452C10.0193 18.4342 10.9945 17.8402 11.5249 16.9705C11.6964 16.6659 11.8885 16.3544 11.8987 15.9962C11.9882 14.3565 11.9527 12.7236 11.9636 11.0838C11.9712 7.38827 11.9527 3.70307 11.9807 0.019251L11.98 0.0185635Z" fill="#25F4EE"/>
    <path d="M12.98 2.01856C14.1726 2 15.3584 2.011 16.5428 2C16.6145 3.40326 17.1162 4.83265 18.1372 5.82477C19.1562 6.84163 20.5976 7.3071 22 7.46454V11.1559C20.6858 11.1126 19.3654 10.8376 18.1728 10.2683C17.6534 10.0318 17.1695 9.72722 16.6959 9.41577C16.6897 12.0944 16.7068 14.7696 16.6788 17.4373C16.6077 18.7188 16.1874 19.9942 15.4466 21.0503C14.2546 22.8083 12.1859 23.9544 10.0611 23.9902C8.75779 24.0651 7.45585 23.7076 6.34527 23.0489C4.50478 21.9571 3.20968 19.9585 3.02105 17.8133C2.99729 17.359 2.99364 16.9039 3.01012 16.4493C3.17414 14.705 4.03185 13.0363 5.36318 11.9012C6.8722 10.5791 8.98606 9.9493 10.9653 10.3219C10.9837 11.6798 10.9297 13.0363 10.9297 14.3942C10.0256 14.1 8.96897 14.1825 8.17892 14.7346C7.6009 15.1176 7.16409 15.6812 6.93576 16.3386C6.74713 16.8034 6.80112 17.3197 6.81206 17.8133C7.0287 19.3177 8.46665 20.5821 10.0016 20.4452C11.0193 20.4342 11.9945 19.8402 12.5249 18.9705C12.6964 18.6659 12.8885 18.3544 12.8987 17.9962C12.9882 16.3565 12.9527 14.7236 12.9636 13.0838C12.9712 9.38827 12.9527 5.70307 12.9807 2.01925L12.98 2.01856Z" fill="#EE3559"/>
    <path d="M12.5053 1.01856C13.7607 1 15.0088 1.011 16.2556 1C16.3311 2.40326 16.8591 3.83265 17.9339 4.82477C19.0066 5.84163 20.5238 6.3071 22 6.46454V10.1559C20.6166 10.1126 19.2267 9.8376 17.9713 9.26832C17.4246 9.0318 16.9153 8.72722 16.4167 8.41577C16.4102 11.0944 16.4282 13.7696 16.3987 16.4373C16.3239 17.7188 15.8815 18.9942 15.1016 20.0503C13.847 21.8083 11.6694 22.9544 9.43274 22.9902C8.06083 23.0651 6.69037 22.7076 5.52134 22.0489C3.58398 20.9571 2.22071 18.9585 2.02216 16.8133C1.99715 16.359 1.99331 15.9039 2.01065 15.4493C2.1833 13.705 3.08616 12.0363 4.48756 10.9012C6.076 9.57908 8.30111 8.9493 10.3845 9.32194C10.4039 10.6798 10.3471 12.0363 10.3471 13.3942C9.39533 13.1 8.28313 13.1825 7.4515 13.7346C6.84306 14.1176 6.38326 14.6812 6.1429 15.3386C5.94435 15.8034 6.00118 16.3197 6.01269 16.8133C6.24074 18.3177 7.75437 19.5821 9.37015 19.4452C10.4413 19.4342 11.4679 18.8402 12.0262 17.9705C12.2068 17.6659 12.4089 17.3544 12.4197 16.9962C12.5139 15.3565 12.4765 13.7236 12.488 12.0838C12.496 8.38827 12.4765 4.70307 12.506 1.01925L12.5053 1.01856Z" fill="black"/>
</svg>
