<svg width="21" height="24" viewBox="0 0 21 24" fill="none" xmlns="http://www.w3.org/2000/svg">
<path d="M11.0306 0.0202511C12.3487 0 13.6593 0.0120006 14.9683 0C15.0477 1.53083 15.6021 3.09016 16.7306 4.17247C17.8569 5.28178 19.45 5.78956 21 5.96132V9.98828C19.5474 9.94103 18.088 9.64101 16.7699 9.01998C16.1958 8.76197 15.661 8.4297 15.1375 8.08993C15.1307 11.0121 15.1496 13.9305 15.1187 16.8406C15.0401 18.2387 14.5755 19.63 13.7567 20.7821C12.4393 22.7 10.1528 23.9503 7.80437 23.9893C6.36388 24.071 4.92489 23.681 3.69741 22.9625C1.66318 21.7714 0.231749 19.591 0.0232663 17.2509C-0.00299443 16.7553 -0.00702711 16.2588 0.0111803 15.7628C0.19247 13.86 1.14046 12.0396 2.61193 10.8013C4.2798 9.359 6.61617 8.67196 8.80373 9.07848C8.82413 10.5598 8.76445 12.0396 8.76445 13.521C7.76509 13.2 6.59729 13.29 5.72407 13.8922C5.08521 14.3101 4.60242 14.925 4.35005 15.6421C4.14156 16.1491 4.20124 16.7124 4.21333 17.2509C4.45278 18.892 6.04209 20.2713 7.73866 20.1221C8.86341 20.1101 9.94133 19.462 10.5275 18.5132C10.7171 18.181 10.9294 17.8412 10.9407 17.4504C11.0396 15.6616 11.0004 13.8802 11.0124 12.0914C11.0208 8.05993 11.0004 4.03972 11.0313 0.0210011L11.0306 0.0202511Z" fill="#131635"/>
</svg>
