<svg width="28" height="28" viewBox="0 0 28 28" fill="none" xmlns="http://www.w3.org/2000/svg">
<path d="M0.666656 9.99998C0.666656 7.41331 1.59999 5.21331 3.39999 3.39998C5.21332 1.59998 7.41332 0.666645 9.99999 0.666645C12.08 0.666645 13.9467 1.33331 15.6 2.55998C17.24 3.81331 18.36 5.41331 18.9333 7.37331L18.5067 7.33331H18C15.08 7.33331 12.5733 8.35998 10.4667 10.4666C8.35999 12.5733 7.33332 15.08 7.33332 18V18.4933L7.37332 18.9333C5.41332 18.36 3.81332 17.24 2.55999 15.6C1.33332 13.9466 0.666656 12.08 0.666656 9.99998ZM8.66666 18C8.66666 15.5246 9.64999 13.1507 11.4003 11.4003C13.1507 9.64998 15.5246 8.66665 18 8.66665C20.4753 8.66665 22.8493 9.64998 24.5997 11.4003C26.35 13.1507 27.3333 15.5246 27.3333 18C27.3333 20.4753 26.35 22.8493 24.5997 24.5996C22.8493 26.35 20.4753 27.3333 18 27.3333C15.5246 27.3333 13.1507 26.35 11.4003 24.5996C9.64999 22.8493 8.66666 20.4753 8.66666 18ZM11.3333 18C11.3333 19.7681 12.0357 21.4638 13.2859 22.714C14.5362 23.9643 16.2319 24.6666 18 24.6666C19.7681 24.6666 21.4638 23.9643 22.714 22.714C23.9643 21.4638 24.6667 19.7681 24.6667 18C24.6667 17.1245 24.4942 16.2576 24.1592 15.4488C23.8242 14.6399 23.3331 13.905 22.714 13.2859C22.095 12.6669 21.3601 12.1758 20.5512 11.8408C19.7424 11.5058 18.8755 11.3333 18 11.3333C17.1245 11.3333 16.2576 11.5058 15.4488 11.8408C14.6399 12.1758 13.905 12.6669 13.2859 13.2859C12.6669 13.905 12.1758 14.6399 11.8408 15.4488C11.5058 16.2576 11.3333 17.1245 11.3333 18Z" fill="#0177FB"/>
</svg>
