<svg width="16" height="16" viewBox="0 0 16 16" fill="none" xmlns="http://www.w3.org/2000/svg">
<path d="M15.762 3.29122C15.2053 3.53789 14.6073 3.70456 13.9787 3.77989C14.6273 3.39175 15.1126 2.78087 15.344 2.06122C14.7346 2.42321 14.0676 2.67802 13.372 2.81456C12.9042 2.31513 12.2847 1.98411 11.6095 1.87287C10.9344 1.76164 10.2414 1.87642 9.63815 2.19939C9.03491 2.52236 8.55518 3.03546 8.27343 3.65902C7.99168 4.28259 7.92369 4.98172 8.08 5.64789C6.84512 5.58589 5.63708 5.26492 4.53428 4.70583C3.43148 4.14673 2.45856 3.362 1.67866 2.40256C1.412 2.86256 1.25866 3.39589 1.25866 3.96389C1.25837 4.47522 1.38429 4.97872 1.62525 5.42971C1.86621 5.8807 2.21477 6.26525 2.64 6.54922C2.14685 6.53353 1.66458 6.40028 1.23333 6.16055V6.20055C1.23328 6.91772 1.48135 7.61281 1.93545 8.16789C2.38955 8.72296 3.02171 9.10384 3.72466 9.24589C3.26719 9.3697 2.78756 9.38794 2.322 9.29922C2.52033 9.9163 2.90666 10.4559 3.42691 10.8425C3.94716 11.2291 4.57527 11.4433 5.22333 11.4552C4.12322 12.3188 2.76459 12.7873 1.366 12.7852C1.11825 12.7853 0.870715 12.7708 0.624664 12.7419C2.04431 13.6547 3.69689 14.1391 5.38466 14.1372C11.098 14.1372 14.2213 9.40522 14.2213 5.30122C14.2213 5.16789 14.218 5.03322 14.212 4.89989C14.8195 4.46054 15.3439 3.91649 15.7607 3.29322L15.762 3.29122Z" fill="#00A3FF"/>
</svg>
