<svg width="48" height="48" viewBox="0 0 48 48" fill="none" xmlns="http://www.w3.org/2000/svg">
    <rect x="0.5" y="0.5" width="47" height="47" rx="7.5" stroke="#E5EAF4"/>
    <path d="M37.9555 15.5549C36.9575 15.9972 35.8854 16.296 34.7583 16.431C35.9213 15.7352 36.7913 14.64 37.2061 13.3498C36.1135 13.9988 34.9177 14.4556 33.6707 14.7004C32.8321 13.805 31.7213 13.2115 30.5109 13.0121C29.3005 12.8127 28.058 13.0184 26.9765 13.5975C25.895 14.1765 25.0349 15.0964 24.5298 16.2143C24.0247 17.3323 23.9028 18.5857 24.183 19.78C21.9691 19.6689 19.8033 19.0934 17.8262 18.0911C15.849 17.0887 14.1048 15.6818 12.7065 13.9617C12.2284 14.7864 11.9535 15.7426 11.9535 16.7609C11.953 17.6776 12.1788 18.5803 12.6108 19.3889C13.0428 20.1974 13.6677 20.8869 14.43 21.396C13.5459 21.3678 12.6813 21.1289 11.9081 20.6992V20.7709C11.908 22.0566 12.3528 23.3028 13.1669 24.298C13.981 25.2931 15.1144 25.976 16.3747 26.2306C15.5545 26.4526 14.6946 26.4853 13.8599 26.3262C14.2155 27.4326 14.9081 28.4 15.8408 29.0931C16.7736 29.7862 17.8997 30.1703 19.0615 30.1916C17.0892 31.7399 14.6534 32.5797 12.146 32.576C11.7018 32.5762 11.258 32.5502 10.8169 32.4984C13.3621 34.1348 16.3249 35.0033 19.3508 34.9999C29.5938 34.9999 35.1934 26.5163 35.1934 19.1585C35.1934 18.9195 35.1874 18.678 35.1766 18.439C36.2658 17.6513 37.206 16.6759 37.9531 15.5585L37.9555 15.5549Z" fill="#131635"/>
</svg>