<svg width="32" height="32" viewBox="0 0 32 32" fill="none" xmlns="http://www.w3.org/2000/svg">
<path d="M29.9558 7.55494C28.9578 7.99717 27.8856 8.29598 26.7586 8.43104C27.9215 7.73517 28.7916 6.63996 29.2064 5.34976C28.1138 5.99875 26.9179 6.45557 25.6709 6.70036C24.8323 5.80498 23.7216 5.21151 22.5111 5.01208C21.3007 4.81266 20.0583 5.01844 18.9768 5.59748C17.8953 6.17651 17.0352 7.09641 16.5301 8.21435C16.0249 9.33228 15.903 10.5857 16.1833 11.78C13.9693 11.6689 11.8035 11.0934 9.82641 10.0911C7.84927 9.08872 6.10499 7.68183 4.70678 5.96171C4.22869 6.78642 3.95379 7.74259 3.95379 8.76092C3.95326 9.67764 4.17901 10.5803 4.61102 11.3889C5.04302 12.1974 5.66793 12.8869 6.43028 13.396C5.54615 13.3678 4.68153 13.1289 3.90837 12.6992V12.7709C3.90828 14.0566 4.35303 15.3028 5.16716 16.298C5.98128 17.2931 7.11463 17.976 8.3749 18.2306C7.55473 18.4526 6.69483 18.4853 5.86016 18.3262C6.21574 19.4326 6.90837 20.4 7.84108 21.0931C8.77379 21.7862 9.8999 22.1703 11.0618 22.1916C9.08945 23.7399 6.65365 24.5797 4.14622 24.576C3.70206 24.5762 3.25827 24.5502 2.81714 24.4984C5.36233 26.1348 8.32511 27.0033 11.351 26.9999C21.594 26.9999 27.1936 18.5163 27.1936 11.1585C27.1936 10.9195 27.1876 10.678 27.1769 10.439C28.2661 9.65132 29.2063 8.67593 29.9534 7.55853L29.9558 7.55494Z" fill="#131635"/>
</svg>
