<svg width="52" height="56" viewBox="0 0 52 56" fill="none" xmlns="http://www.w3.org/2000/svg">
<path d="M49.6867 45.1992C48.3972 42.1447 46.5258 39.3702 44.1769 37.0303C41.8352 34.6836 39.0611 32.8125 36.008 31.5205C35.9806 31.5068 35.9533 31.5 35.926 31.4863C40.1847 28.4102 42.9533 23.3994 42.9533 17.7461C42.9533 8.38086 35.3654 0.792969 26.0002 0.792969C16.6349 0.792969 9.04705 8.38086 9.04705 17.7461C9.04705 23.3994 11.8156 28.4102 16.0744 31.4932C16.047 31.5068 16.0197 31.5137 15.9924 31.5273C12.9299 32.8193 10.1818 34.6719 7.82341 37.0371C5.4767 39.3789 3.60567 42.1529 2.31365 45.2061C1.04437 48.1951 0.359813 51.3997 0.297046 54.6465C0.295221 54.7194 0.308018 54.792 0.334683 54.86C0.361348 54.9279 0.401342 54.9898 0.452306 55.0421C0.503271 55.0943 0.564177 55.1358 0.631434 55.1641C0.698691 55.1925 0.770939 55.2071 0.843921 55.207H4.94548C5.24626 55.207 5.48552 54.9678 5.49236 54.6738C5.62908 49.3965 7.74822 44.4541 11.4943 40.708C15.3703 36.832 20.5177 34.6992 26.0002 34.6992C31.4826 34.6992 36.6301 36.832 40.506 40.708C44.2521 44.4541 46.3713 49.3965 46.508 54.6738C46.5148 54.9746 46.7541 55.207 47.0549 55.207H51.1564C51.2294 55.2071 51.3017 55.1925 51.3689 55.1641C51.4362 55.1358 51.4971 55.0943 51.548 55.0421C51.599 54.9898 51.639 54.9279 51.6657 54.86C51.6923 54.792 51.7051 54.7194 51.7033 54.6465C51.6349 51.3789 50.9582 48.2002 49.6867 45.1992ZM26.0002 29.5039C22.8625 29.5039 19.9093 28.2803 17.6877 26.0586C15.466 23.8369 14.2424 20.8838 14.2424 17.7461C14.2424 14.6084 15.466 11.6553 17.6877 9.43359C19.9093 7.21191 22.8625 5.98828 26.0002 5.98828C29.1379 5.98828 32.091 7.21191 34.3127 9.43359C36.5343 11.6553 37.758 14.6084 37.758 17.7461C37.758 20.8838 36.5343 23.8369 34.3127 26.0586C32.091 28.2803 29.1379 29.5039 26.0002 29.5039Z" fill="black"/>
</svg>
