<svg width="74" height="77" viewBox="0 0 74 77" fill="none" xmlns="http://www.w3.org/2000/svg">
<g filter="url(#filter0_d)">
<path d="M29.0447 16.2672C29.6422 12.9782 34.3578 12.9782 34.9553 16.2672C35.3457 18.4158 37.8255 19.443 39.6208 18.1997C42.369 16.2965 45.7035 19.631 43.8003 22.3792C42.557 24.1745 43.5842 26.6543 45.7328 27.0447C49.0218 27.6422 49.0218 32.3578 45.7328 32.9553C43.5842 33.3457 42.557 35.8255 43.8003 37.6208C45.7035 40.369 42.369 43.7035 39.6208 41.8003C37.8255 40.557 35.3457 41.5842 34.9553 43.7328C34.3578 47.0218 29.6422 47.0218 29.0447 43.7328C28.6543 41.5842 26.1745 40.557 24.3792 41.8003C21.631 43.7035 18.2965 40.369 20.1997 37.6208C21.443 35.8255 20.4158 33.3457 18.2672 32.9553C14.9782 32.3578 14.9782 27.6422 18.2672 27.0447C20.4158 26.6543 21.443 24.1745 20.1997 22.3792C18.2965 19.631 21.631 16.2965 24.3792 18.1997C26.1745 19.443 28.6543 18.4158 29.0447 16.2672Z" fill="url(#paint0_linear)"/>
</g>
<g clip-path="url(#clip0)">
<path d="M36.1138 25.0733C36.3192 24.8659 36.5985 24.7483 36.8904 24.7461C37.1824 24.744 37.4633 24.8575 37.6718 25.0618C37.8803 25.2662 37.9995 25.5448 38.0032 25.8367C38.007 26.1286 37.895 26.4102 37.6918 26.6198L31.8118 33.9706C31.7107 34.0793 31.5889 34.1666 31.4534 34.2272C31.3179 34.2878 31.1715 34.3205 31.0231 34.3233C30.8747 34.3261 30.7273 34.299 30.5896 34.2435C30.4519 34.1881 30.3268 34.1054 30.2218 34.0006L26.3233 30.1036C26.1161 29.8963 25.9997 29.6152 25.9998 29.3222C25.9999 29.0291 26.1164 28.7481 26.3236 28.5409C26.5309 28.3338 26.812 28.2174 27.105 28.2175C27.3981 28.2176 27.6791 28.334 27.8863 28.5413L30.9695 31.6253L36.0845 25.1078C36.0938 25.0959 36.1038 25.0847 36.1145 25.0741L36.1138 25.0733Z" fill="white"/>
</g>
<defs>
<filter id="filter0_d" x="0.800446" y="3.80054" width="72.3991" height="72.3991" filterUnits="userSpaceOnUse" color-interpolation-filters="sRGB">
<feFlood flood-opacity="0" result="BackgroundImageFix"/>
<feColorMatrix in="SourceAlpha" type="matrix" values="0 0 0 0 0 0 0 0 0 0 0 0 0 0 0 0 0 0 127 0"/>
<feOffset dx="5" dy="10"/>
<feGaussianBlur stdDeviation="10"/>
<feColorMatrix type="matrix" values="0 0 0 0 0 0 0 0 0 0.639216 0 0 0 0 1 0 0 0 0.25 0"/>
<feBlend mode="normal" in2="BackgroundImageFix" result="effect1_dropShadow"/>
<feBlend mode="normal" in="SourceGraphic" in2="effect1_dropShadow" result="shape"/>
</filter>
<linearGradient id="paint0_linear" x1="54" y1="9.85463e-07" x2="32" y2="60" gradientUnits="userSpaceOnUse">
<stop stop-color="#50C0FF"/>
<stop offset="1" stop-color="#00A3FF"/>
</linearGradient>
<clipPath id="clip0">
<rect width="12" height="12" fill="white" transform="translate(26 24)"/>
</clipPath>
</defs>
</svg>
