<svg width="16" height="16" viewBox="0 0 16 16" fill="none" xmlns="http://www.w3.org/2000/svg">
<path d="M10.6667 14C13.0181 12.9687 14.6661 10.7273 14.6661 8C14.6661 5.27267 13.0181 3.03133 10.6667 2V3.33333C12.2581 4.25733 13.3327 6.03133 13.3327 8C13.3327 9.96867 12.2581 11.7427 10.6667 12.6667V14Z" fill="#00A3FF"/>
<path d="M10.6666 4.66632V11.333C11.4833 10.5997 11.9999 9.18032 11.9999 7.99966C11.9999 6.81899 11.4833 5.39966 10.6666 4.66632ZM2.66659 11.333H4.46459L8.29659 13.8877C8.39711 13.9544 8.5138 13.9928 8.63433 13.9986C8.75485 14.0045 8.87472 13.9777 8.98125 13.921C9.08766 13.864 9.1766 13.7792 9.23859 13.6757C9.30058 13.5721 9.3333 13.4537 9.33325 13.333V2.66632C9.33319 2.54573 9.30042 2.42742 9.23843 2.32398C9.17645 2.22054 9.08756 2.13585 8.98125 2.07893C8.87494 2.02202 8.75518 1.995 8.63473 2.00076C8.51428 2.00652 8.39764 2.04485 8.29725 2.11166L4.46459 4.66632H2.66659C1.93125 4.66632 1.33325 5.26432 1.33325 5.99966V9.99966C1.33325 10.735 1.93125 11.333 2.66659 11.333ZM2.66659 5.99966H4.66659C4.68859 5.99966 4.70725 5.98899 4.72859 5.98699C4.81726 5.97795 4.90331 5.95168 4.98192 5.90966C4.99925 5.89966 5.01992 5.89832 5.03659 5.88766L7.99992 3.91166V12.0877L5.03659 10.1117C5.01992 10.1003 4.99925 10.0983 4.98192 10.0897C4.90319 10.0468 4.81653 10.0205 4.72725 10.0123C4.70592 10.0103 4.68792 9.99966 4.66659 9.99966H2.66659V5.99966Z" fill="#00A3FF"/>
</svg>
