<svg width="32" height="32" viewBox="0 0 32 32" fill="none" xmlns="http://www.w3.org/2000/svg">
    <rect width="32" height="32" rx="8" fill="#00A3FF"/>
    <path d="M18.0354 8.88774C18.0352 8.72046 17.9878 8.55664 17.8986 8.4151C17.8094 8.27357 17.6821 8.16007 17.5313 8.08764C17.3805 8.01521 17.2123 7.9868 17.0461 8.00567C16.8799 8.02455 16.7224 8.08993 16.5917 8.19432L12.3902 11.5548H8.25632C8.02054 11.5548 7.79442 11.6484 7.62769 11.8152C7.46097 11.9819 7.36731 12.208 7.36731 12.4438V19.5559C7.36731 19.7916 7.46097 20.0178 7.62769 20.1845C7.79442 20.3512 8.02054 20.4449 8.25632 20.4449H12.3902L16.5917 23.8053C16.7224 23.9097 16.8799 23.9751 17.0461 23.994C17.2123 24.0128 17.3805 23.9844 17.5313 23.912C17.6821 23.8396 17.8094 23.7261 17.8986 23.5845C17.9878 23.443 18.0352 23.2792 18.0354 23.1119V8.88774ZM13.2561 13.1372L16.2574 10.7369V21.2628L13.2561 18.8624C13.0987 18.7362 12.9031 18.6672 12.7014 18.6668H9.14533V13.3328H12.7014C12.9031 13.3324 13.0987 13.2635 13.2561 13.1372ZM23.4139 15.9998C23.4153 17.0507 23.209 18.0916 22.8068 19.0625C22.4046 20.0334 21.8146 20.9153 21.0705 21.6575L19.8134 20.4004C20.3922 19.8231 20.8511 19.1372 21.1638 18.382C21.4766 17.6268 21.637 16.8172 21.6359 15.9998C21.6369 15.1824 21.4765 14.3729 21.1637 13.6177C20.851 12.8625 20.3921 12.1765 19.8134 11.5992L21.0705 10.3422C21.8146 11.0843 22.4046 11.9662 22.8068 12.9371C23.209 13.9081 23.4153 14.9489 23.4139 15.9998Z" fill="white"/>
</svg>