<svg width="48" height="48" viewBox="0 0 48 48" fill="none" xmlns="http://www.w3.org/2000/svg">
    <rect x="0.5" y="0.5" width="47" height="47" rx="7.5" stroke="#E5EAF4"/>
    <g clip-path="url(#clip0)">
        <path d="M39.3332 16.6759C39.152 16.0296 38.799 15.4444 38.3118 14.9826C37.8109 14.5066 37.1969 14.1661 36.5278 13.9933C34.0238 13.3333 23.9918 13.3333 23.9918 13.3333C19.8096 13.2857 15.6284 13.495 11.4718 13.9599C10.8028 14.1456 10.1899 14.4937 9.68785 14.9733C9.19451 15.4479 8.83718 16.0333 8.65051 16.6746C8.2021 19.0903 7.98424 21.5431 7.99985 23.9999C7.98385 26.4546 8.20118 28.9066 8.65051 31.3253C8.83318 31.9639 9.18918 32.5466 9.68385 33.0173C10.1785 33.4879 10.7945 33.8279 11.4718 34.0079C14.0092 34.6666 23.9918 34.6666 23.9918 34.6666C28.1794 34.7143 32.3659 34.505 36.5278 34.0399C37.1969 33.8671 37.8109 33.5266 38.3118 33.0506C38.8052 32.5799 39.1558 31.9946 39.3318 31.3573C39.792 28.9425 40.0157 26.4887 39.9998 24.0306C40.0345 21.5621 39.811 19.0967 39.3332 16.6746V16.6759ZM20.8025 28.5653V19.4359L29.1492 24.0013L20.8025 28.5653Z" fill="#131635"/>
    </g>
    <defs>
        <clipPath id="clip0">
            <rect width="32" height="32" fill="white" transform="translate(8 8)"/>
        </clipPath>
    </defs>
</svg>