<svg width="32" height="32" viewBox="0 0 32 32" fill="none" xmlns="http://www.w3.org/2000/svg">
<g clip-path="url(#clip0_2140:104)">
<path d="M31.3332 8.67618C31.152 8.02982 30.799 7.44464 30.3118 6.98285C29.8109 6.50685 29.1969 6.16636 28.5278 5.99352C26.0238 5.33352 15.9918 5.33352 15.9918 5.33352C11.8096 5.28593 7.62842 5.49522 3.47185 5.96018C2.80277 6.1458 2.18993 6.4939 1.68785 6.97352C1.19451 7.44818 0.83718 8.03352 0.650513 8.67485C0.202104 11.0905 -0.0157643 13.5433 -0.000153652 16.0002C-0.0161537 18.4549 0.20118 20.9068 0.650513 23.3255C0.83318 23.9642 1.18918 24.5469 1.68385 25.0175C2.17851 25.4882 2.79451 25.8282 3.47185 26.0082C6.00918 26.6669 15.9918 26.6669 15.9918 26.6669C20.1794 26.7145 24.3659 26.5052 28.5278 26.0402C29.1969 25.8673 29.8109 25.5268 30.3118 25.0508C30.8052 24.5802 31.1558 23.9949 31.3318 23.3575C31.792 20.9428 32.0157 18.489 31.9998 16.0308C32.0345 13.5623 31.811 11.0969 31.3332 8.67485V8.67618ZM12.8025 20.5655V11.4362L21.1492 16.0015L12.8025 20.5655Z" fill="#FF0000"/>
</g>
<defs>
<clipPath id="clip0_2140:104">
<rect width="32" height="32" fill="white"/>
</clipPath>
</defs>
</svg>
