<svg width="24" height="17" viewBox="0 0 24 17" fill="none" xmlns="http://www.w3.org/2000/svg">
<path d="M24 8.42675C24 8.36919 24 8.30379 23.9973 8.22792C23.9946 8.016 23.9893 7.77793 23.9839 7.52416C23.9625 6.79424 23.925 6.06694 23.8661 5.3815C23.7857 4.43706 23.6679 3.64958 23.5071 3.05833C23.3375 2.4413 23.0051 1.87855 22.543 1.42634C22.081 0.974124 21.5055 0.648281 20.8741 0.481379C20.1161 0.282548 18.6321 0.159587 16.5429 0.083718C15.5491 0.0470913 14.4857 0.0235455 13.4223 0.0104646C13.05 0.00523222 12.7045 0.00261619 12.3938 0H11.6062C11.2955 0.00261619 10.95 0.00523222 10.5777 0.0104646C9.51429 0.0235455 8.45089 0.0470913 7.45714 0.083718C5.36786 0.162204 3.88125 0.285164 3.12589 0.481379C2.49429 0.647872 1.91858 0.973577 1.45646 1.42585C0.994336 1.87813 0.662036 2.44109 0.492857 3.05833C0.329464 3.64958 0.214286 4.43706 0.133929 5.3815C0.075 6.06694 0.0375 6.79424 0.0160714 7.52416C0.00803567 7.77793 0.0053571 8.016 0.00267853 8.22792C0.00267853 8.30379 0 8.36919 0 8.42675V8.57325C0 8.63081 -4.09117e-08 8.69621 0.00267853 8.77208C0.0053571 8.98399 0.0107142 9.22207 0.0160714 9.47584C0.0375 10.2058 0.075 10.9331 0.133929 11.6185C0.214286 12.5629 0.332143 13.3504 0.492857 13.9417C0.835714 15.1948 1.84286 16.1837 3.12589 16.5186C3.88125 16.7175 5.36786 16.8404 7.45714 16.9163C8.45089 16.9529 9.51429 16.9765 10.5777 16.9895C10.95 16.9948 11.2955 16.9974 11.6062 17H12.3938C12.7045 16.9974 13.05 16.9948 13.4223 16.9895C14.4857 16.9765 15.5491 16.9529 16.5429 16.9163C18.6321 16.8378 20.1187 16.7148 20.8741 16.5186C22.1571 16.1837 23.1643 15.1974 23.5071 13.9417C23.6705 13.3504 23.7857 12.5629 23.8661 11.6185C23.925 10.9331 23.9625 10.2058 23.9839 9.47584C23.992 9.22207 23.9946 8.98399 23.9973 8.77208C23.9973 8.69621 24 8.63081 24 8.57325V8.42675ZM22.0714 8.56279C22.0714 8.61773 22.0714 8.6779 22.0688 8.74854C22.0661 8.9526 22.0607 9.17759 22.0554 9.4209C22.0366 10.1168 21.9991 10.8127 21.9429 11.4589C21.8705 12.3013 21.7688 12.992 21.6429 13.4551C21.4768 14.0594 20.9893 14.5382 20.3732 14.6978C19.8107 14.8443 18.3937 14.962 16.4679 15.0326C15.4929 15.0693 14.4429 15.0928 13.3955 15.1059C13.0286 15.1111 12.6884 15.1137 12.383 15.1137H11.617L10.6045 15.1059C9.55714 15.0928 8.50982 15.0693 7.53214 15.0326C5.60625 14.9594 4.18661 14.8443 3.62679 14.6978C3.01071 14.5356 2.52321 14.0594 2.35714 13.4551C2.23125 12.992 2.12946 12.3013 2.05714 11.4589C2.00089 10.8127 1.96607 10.1168 1.94464 9.4209C1.93661 9.17759 1.93393 8.94998 1.93125 8.74854C1.93125 8.6779 1.92857 8.61511 1.92857 8.56279V8.43721C1.92857 8.38227 1.92857 8.3221 1.93125 8.25146C1.93393 8.0474 1.93929 7.82241 1.94464 7.5791C1.96339 6.88319 2.00089 6.18729 2.05714 5.54109C2.12946 4.69868 2.23125 4.008 2.35714 3.54494C2.52321 2.9406 3.01071 2.46183 3.62679 2.30225C4.18929 2.15574 5.60625 2.03801 7.53214 1.96737C8.50714 1.93075 9.55714 1.9072 10.6045 1.89412C10.9714 1.88889 11.3116 1.88627 11.617 1.88627H12.383L13.3955 1.89412C14.4429 1.9072 15.4902 1.93075 16.4679 1.96737C18.3937 2.04063 19.8134 2.15574 20.3732 2.30225C20.9893 2.46445 21.4768 2.9406 21.6429 3.54494C21.7688 4.008 21.8705 4.69868 21.9429 5.54109C21.9991 6.18729 22.0339 6.88319 22.0554 7.5791C22.0634 7.82241 22.0661 8.05001 22.0688 8.25146C22.0688 8.3221 22.0714 8.38489 22.0714 8.43721V8.56279ZM9.61607 12.0057L15.8304 8.47384L9.61607 4.99431V12.0057Z" fill="#00A3FF"/>
</svg>
