<svg width="18" height="19" viewBox="0 0 18 19" fill="none" xmlns="http://www.w3.org/2000/svg">
<g clip-path="url(#clip0_2140:111)">
<path d="M17.6255 5.38037C17.5235 5.01679 17.325 4.68763 17.051 4.42787C16.7692 4.16012 16.4238 3.96859 16.0475 3.87137C14.639 3.50012 8.99596 3.50012 8.99596 3.50012C6.64346 3.47335 4.29153 3.59107 1.95346 3.85262C1.57711 3.95703 1.23239 4.15283 0.949963 4.42262C0.672463 4.68962 0.471463 5.01887 0.366463 5.37962C0.114233 6.73843 -0.0083181 8.11813 0.000462887 9.50012C-0.00853711 10.8809 0.113713 12.2601 0.366463 13.6206C0.469213 13.9799 0.669463 14.3076 0.947713 14.5724C1.22596 14.8371 1.57246 15.0284 1.95346 15.1296C3.38071 15.5001 8.99596 15.5001 8.99596 15.5001C11.3515 15.5269 13.7064 15.4092 16.0475 15.1476C16.4238 15.0504 16.7692 14.8589 17.051 14.5911C17.3285 14.3264 17.5257 13.9971 17.6247 13.6386C17.8835 12.2803 18.0094 10.9001 18.0005 9.51737C18.0199 8.12882 17.8942 6.74204 17.6255 5.37962V5.38037ZM7.20196 12.0681V6.93287L11.897 9.50087L7.20196 12.0681Z" fill="white"/>
</g>
<defs>
<clipPath id="clip0_2140:111">
<rect width="18" height="18" fill="white" transform="translate(0 0.5)"/>
</clipPath>
</defs>
</svg>
